<?xml version="1.0" standalone="no"?>
<!DOCTYPE svg PUBLIC "-//W3C//DTD SVG 1.1//EN" "http://www.w3.org/Graphics/SVG/1.1/DTD/svg11.dtd">
<svg width="800" height="463" version="1.1" xmlns="http://www.w3.org/2000/svg">
<desc>netsgraph - network SVG graph</desc>
<g stroke-width="1" stroke="#cccccc" font-family="Arial,Verdana" font-weight="normal" font-size="12" fill="#808080">
	<line x1="88.000000" y1="12" x2="88.000000" y2="403" />
	<text x="88.000000" y="423" stroke-width="0" text-anchor="start">2012-03-01 00:02:05</text>
	<line x1="776.000000" y1="12" x2="776.000000" y2="403" />
	<text x="776.000000" y="423" stroke-width="0" text-anchor="end" >2012-03-01 23:59:05</text>
	<line x1="115.729065" y1="12" x2="115.729065" y2="403" />
	<line x1="144.455579" y1="12" x2="144.455579" y2="403" />
	<line x1="173.182092" y1="12" x2="173.182092" y2="403" />
	<line x1="201.908606" y1="12" x2="201.908606" y2="403" />
	<line x1="230.635119" y1="12" x2="230.635119" y2="403" />
	<line x1="259.361633" y1="12" x2="259.361633" y2="403" />
	<line x1="288.088147" y1="12" x2="288.088147" y2="403" />
	<line x1="316.814660" y1="12" x2="316.814660" y2="403" />
	<line x1="345.541174" y1="12" x2="345.541174" y2="403" />
	<line x1="374.267687" y1="12" x2="374.267687" y2="403" />
	<line x1="402.994201" y1="12" x2="402.994201" y2="403" />
	<line x1="431.720714" y1="12" x2="431.720714" y2="403" />
	<line x1="460.447228" y1="12" x2="460.447228" y2="403" />
	<line x1="489.173742" y1="12" x2="489.173742" y2="403" />
	<line x1="517.900255" y1="12" x2="517.900255" y2="403" />
	<line x1="546.626769" y1="12" x2="546.626769" y2="403" />
	<line x1="575.353282" y1="12" x2="575.353282" y2="403" />
	<line x1="604.079796" y1="12" x2="604.079796" y2="403" />
	<line x1="632.806309" y1="12" x2="632.806309" y2="403" />
	<line x1="661.532823" y1="12" x2="661.532823" y2="403" />
	<line x1="690.259337" y1="12" x2="690.259337" y2="403" />
	<line x1="718.985850" y1="12" x2="718.985850" y2="403" />
	<line x1="747.712364" y1="12" x2="747.712364" y2="403" />
</g>
<g stroke-width="1" stroke="#cccccc" text-anchor="middle" font-family="Arial,Verdana" font-weight="normal" font-size="12" fill="#808080">
	<line x1="84" y1="399.000000" x2="776" y2="399.000000" />
	<text x="70" y="403" stroke-width="0">0</text>
	<line x1="84" y1="350.625000" x2="776" y2="350.625000" />
	<text x="70" y="354.625" stroke-width="0">25</text>
	<line x1="84" y1="302.250000" x2="776" y2="302.250000" />
	<text x="70" y="306.25" stroke-width="0">50</text>
	<line x1="84" y1="253.875000" x2="776" y2="253.875000" />
	<text x="70" y="257.875" stroke-width="0">75</text>
	<line x1="84" y1="205.500000" x2="776" y2="205.500000" />
	<text x="70" y="209.5" stroke-width="0">100</text>
	<line x1="84" y1="157.125000" x2="776" y2="157.125000" />
	<text x="70" y="161.125" stroke-width="0">125</text>
	<line x1="84" y1="108.750000" x2="776" y2="108.750000" />
	<text x="70" y="112.75" stroke-width="0">150</text>
	<line x1="84" y1="60.375000" x2="776" y2="60.375000" />
	<text x="70" y="64.375" stroke-width="0">175</text>
	<line x1="84" y1="12.000000" x2="776" y2="12.000000" />
	<text x="70" y="16" stroke-width="0">200</text>
</g>
<polyline fill="none" stroke="#0000ff" stroke-width="1" points=" 88.000000,334.866360 88.470796,339.176282 88.957550,342.928902 89.436326,335.709246 89.915101,339.569442 90.393876,349.510182 90.872651,326.713560 91.351427,328.909140 91.830202,336.656880 92.308977,348.981540 92.787752,344.249820 93.266527,342.327720 93.745303,351.442860 94.224078,348.630660 94.702853,354.159600 95.181628,366.750000 95.652424,359.074719 96.139179,361.355685 97.096729,349.972260 97.575505,360.171000 98.054280,357.898020 98.525075,353.486176 99.003851,356.602294 99.490605,362.278369 99.961401,357.479754 100.440176,358.561338 100.926931,352.743476 101.397727,359.796244 101.876502,354.090972 102.363257,364.334951 102.842032,357.245280 103.320807,353.181780 103.799582,355.715340 104.278358,363.310860 104.757133,369.482220 105.227929,362.228441 105.714683,365.537823 106.193459,364.035840 106.672234,366.303660 107.151009,357.183360 108.100580,360.100597 108.587335,362.540793 109.074090,364.875482 109.536906,370.570179 110.023660,368.885056 110.502436,365.898600 110.981211,363.050280 111.459986,360.890820 111.930782,369.805769 112.409557,366.946080 112.888332,362.235000 113.375087,353.534911 113.853862,367.613784 114.332637,361.280400 114.811413,358.575528 115.290188,356.351310 115.760984,375.842445 116.247738,373.446834 116.726514,370.266024 117.205289,374.980200 117.684064,371.729400 118.162839,376.959060 118.641614,381.148980 119.120390,369.420300 119.599165,375.271740 120.069961,367.898319 120.556715,373.067193 121.035491,360.245820 121.514266,381.239280 121.985061,373.463247 122.471816,377.005711 122.950592,375.568440 123.429367,381.590160 123.900162,374.662292 124.386917,373.145862 124.865692,372.477600 125.823243,380.537520 126.780793,375.203941 127.251589,372.518705 127.730364,378.803760 128.209139,380.738760 128.687915,372.998760 129.174669,374.267528 129.645465,370.283288 130.132220,367.441102 130.610995,373.780500 131.089770,381.422460 131.568546,377.511180 132.039341,382.599071 132.534076,379.198084 132.996892,376.727483 133.475667,383.081400 133.962422,384.065607 134.433217,380.923402 134.911993,383.527817 135.390768,378.904638 136.356298,378.951116 136.835073,376.980474 137.313848,370.041564 137.792624,380.938194 138.271399,382.147440 138.750174,375.946152 139.220970,382.732094 139.707724,379.894127 140.186500,378.641994 140.665275,376.101726 141.136071,371.463966 141.622825,376.475331 142.101601,384.900300 142.580376,387.864720 143.059151,379.324920 143.537926,383.034960 144.016701,374.967300 144.495477,384.281100 144.974252,381.716580 145.453027,380.978700 145.923823,385.073247 146.410578,383.928570 146.889353,382.717620 147.368128,388.976700 147.838924,384.511769 148.325678,380.670157 148.804454,384.497820 149.283229,385.305360 149.762004,391.525740 150.232800,386.214569 150.719555,382.393259 151.190350,385.474678 151.677105,389.714538 152.147901,386.419220 152.634656,387.511810 153.113431,384.637140 153.592206,388.450380 154.063002,384.960427 154.549756,386.971279 155.507307,383.089140 155.986082,385.204740 156.456878,383.039858 156.943633,389.407475 157.422408,386.507640 157.901183,388.545840 158.379958,384.172740 158.858733,383.499360 159.337509,387.686700 160.287080,385.183444 160.773834,391.483318 161.731385,388.612920 162.210160,391.226460 162.696915,386.704820 163.167711,389.701505 163.646486,389.090220 164.125261,386.886900 164.604036,389.141820 165.074832,387.355892 165.553607,386.659860 166.040362,389.077574 166.989933,387.256190 167.955463,388.455540 168.913013,384.913200 169.391788,388.238820 169.870564,387.057180 170.349339,385.008660 170.828114,387.103054 171.306889,387.865339 171.785665,384.355533 172.264440,389.396724 172.743215,392.873790 173.700765,390.170982 174.658316,383.438793 175.137091,389.076030 175.615866,390.078618 176.573417,391.029606 177.052192,386.619096 177.530967,389.661432 178.001763,388.690845 178.959313,389.658738 179.446068,384.084132 179.924843,388.246818 180.395639,382.756757 180.882394,386.131298 181.353190,390.819738 181.831965,387.727206 182.318720,389.386666 182.797495,386.774412 183.276270,389.472060 184.233820,383.070826 184.712596,386.265120 185.183391,388.179742 185.670146,390.285521 186.148921,389.745540 186.619717,386.379864 187.106472,391.300603 187.577267,388.318800 188.056043,390.736260 188.542797,384.573148 189.021573,383.566440 189.500348,391.187760 189.979123,387.949860 190.457898,390.310560 190.936674,391.662480 191.407469,383.624949 191.886244,387.537060 192.372999,383.766157 192.851775,390.302820 193.330550,386.982360 194.280121,388.468440 194.766875,387.836636 195.245651,394.190880 195.716446,388.491966 196.203201,382.548059 196.681976,384.905460 197.152772,388.533946 198.118302,385.811548 198.597077,390.052560 199.075852,386.719200 199.546648,389.793336 200.033403,391.358970 200.512178,392.286840 200.990953,386.427660 201.461749,390.310210 201.948504,390.856505 202.427279,387.730560 202.906054,385.166040 203.376850,378.852386 203.855625,389.067000 204.813176,389.591308 205.299930,390.338813 205.770726,387.849153 206.257481,386.877384 206.736256,387.413220 207.215031,392.119140 207.685827,390.635553 208.164602,386.943660 208.651357,384.149351 209.130132,389.454000 209.608907,391.835340 210.087683,388.620660 210.566458,386.195460 211.045233,387.173280 211.524008,388.721280 211.994804,391.068468 212.952354,388.825180 213.447089,387.102871 214.388680,385.782660 214.875435,391.592439 215.354210,384.146940 215.832985,389.941620 216.782556,391.540739 217.269311,389.113102 217.740107,381.562698 218.218882,385.620120 218.705637,386.613462 219.176432,389.969125 220.141962,386.160476 220.620738,387.001013 221.091533,390.202637 221.578288,392.088307 222.535839,387.318944 223.014614,389.160912 223.972164,389.223348 224.450939,390.672276 224.921735,388.431358 225.408490,389.847513 225.879286,391.148754 226.366040,393.240932 226.844816,390.177948 227.794386,391.084560 228.281141,392.726793 228.751937,391.490626 229.238692,394.992203 229.717467,389.721804 230.196242,391.330950 230.667038,393.571505 231.153793,392.287009 232.111343,389.361636 232.590118,392.160936 233.068894,391.443954 233.547669,392.179512 234.018464,389.857355 234.983994,387.468432 235.454790,391.107824 235.941545,393.389134 236.412341,392.372461 236.899095,390.374341 237.856646,389.090220 238.327441,392.278007 238.814196,391.435102 239.292971,389.642340 239.763767,390.997627 240.250522,392.762321 240.729297,391.690860 241.686848,387.046860 242.157643,393.395715 242.644398,390.950400 243.115194,393.322251 243.601949,394.211351 244.080724,385.000920 245.038274,389.761020 245.517049,384.239820 245.995825,388.313640 246.474600,386.489580 246.953375,388.086600 247.432150,390.248640 247.910926,389.474640 248.860496,387.796678 249.826026,385.684620 250.304802,390.839460 251.262352,384.288753 251.741127,388.814160 252.698678,393.632754 253.656228,389.002500 254.127024,390.501742 254.613779,388.831416 255.092554,391.657320 255.563350,389.016712 256.050104,387.747816 256.528880,386.685660 257.007655,390.491160 257.478450,389.958631 257.965205,388.382243 258.443981,389.131500 258.922756,386.969460 259.393551,390.924163 259.880306,388.351790 260.351102,384.522264 260.829877,383.197500 261.316632,386.415521 261.795407,389.724900 262.274182,389.074740 262.752958,390.382800 263.223753,389.735614 263.710508,388.864407 264.668058,388.865760 265.138854,382.900800 265.625609,378.703436 266.096405,387.046292 266.583159,385.687200 267.061935,383.710920 267.540710,385.883280 268.490281,384.288753 268.977035,383.068289 269.463790,388.323875 270.413361,383.390577 270.892136,376.246980 271.370912,383.641260 271.849687,381.195420 272.328462,387.346140 272.807237,384.746275 273.278033,382.743639 273.764788,384.825319 274.722338,380.333150 275.209093,380.964277 275.671909,377.500415 276.158664,379.320606 276.637439,376.121334 277.108235,385.589335 277.594990,379.586050 278.073765,386.449332 278.552540,385.344318 279.031315,380.719926 279.510090,383.615460 279.980886,381.095937 280.459661,384.786780 280.946416,380.111862 281.417212,376.624841 281.903967,382.888111 282.382742,376.894560 282.853537,380.919885 283.332313,379.420380 283.819068,381.571043 284.297843,379.128840 284.768638,374.150664 285.255393,379.035875 285.726189,373.190380 286.212944,376.939731 286.691719,372.606600 287.170494,371.708760 287.641290,376.729790 288.128045,371.633390 288.606820,377.611800 289.077615,375.294610 289.564370,376.536236 290.043145,379.242360 290.521921,377.446680 290.992716,379.988461 291.479471,376.807770 291.950267,367.811736 292.437022,364.332413 292.915797,369.415140 293.394572,372.877500 293.865368,373.722997 294.352122,371.582636 294.822918,367.087586 295.309673,361.497797 295.788448,376.719120 296.267223,374.606100 296.738019,365.712753 297.224774,370.082854 297.695569,365.783777 298.182324,369.592568 298.661100,373.125438 299.139875,361.264146 299.618650,362.598006 300.097425,370.764222 301.054976,375.220182 301.533751,361.610640 302.012526,373.416720 302.491301,365.261340 302.970077,359.732400 303.448852,363.873300 303.927627,368.981700 304.406402,367.580760 304.885177,358.156020 305.355973,362.831898 305.834748,369.229380 306.321503,364.197915 306.792299,363.616393 307.279054,356.848721 307.749849,355.994461 308.236604,360.855757 308.715379,359.015160 309.194154,361.551300 309.664950,358.426658 310.143725,357.485220 310.622501,365.410980 311.101276,347.111040 311.580051,355.787580 312.066806,363.998503 312.545581,352.428549 313.503132,342.951048 313.981907,354.367806 314.452702,343.633812 314.939457,345.814780 315.410253,343.195912 315.897008,346.723279 316.375783,354.048660 316.854558,347.149740 317.333333,358.615260 317.812109,343.222980 318.290884,352.121400 318.769659,342.817920 319.240455,348.545695 319.719230,349.365960 320.205985,350.710013 320.684760,339.582600 321.163535,344.244660 321.634331,340.425254 322.113106,347.201340 322.591881,342.410978 323.078636,349.477957 323.557411,339.196374 324.028207,332.730382 324.506982,331.360140 324.993737,340.373941 325.472512,345.129600 325.951287,343.302960 326.430063,333.029400 326.908838,327.742980 327.387613,338.274540 327.858409,333.168020 328.345164,340.368866 328.823939,341.891700 329.302714,342.959820 329.781489,330.949920 330.252285,332.758719 330.731060,333.831780 331.696590,333.714132 332.175365,332.952774 332.646161,325.868807 333.132916,301.695765 333.611691,324.123240 334.082487,317.478122 334.569241,334.001764 335.040037,323.698983 335.526792,327.193102 336.005567,325.557720 336.484342,333.406080 337.441893,315.490560 337.920668,313.031820 338.399443,326.406980 338.878219,329.490930 339.356994,313.453908 339.827789,313.985939 340.314544,319.920039 340.793319,308.418780 341.750870,320.248080 342.229645,305.118960 342.700441,325.428020 343.187196,304.637980 343.657991,289.656102 344.144746,247.284252 344.615542,248.596845 345.094317,241.111998 346.059847,257.334780 346.538622,259.581960 347.009418,252.367668 347.496173,301.201928 347.974948,331.019580 348.453723,309.222890 348.932498,322.477974 349.411273,315.117750 350.368824,302.071980 351.326374,298.529725 351.805150,301.207680 352.283925,293.581200 352.762700,292.636920 353.241475,302.848560 353.712271,295.372342 354.199026,299.270988 355.148597,302.295128 355.635351,296.250866 356.114127,298.114260 356.592902,292.224120 357.071677,285.634800 357.542473,289.000169 358.029228,281.709816 358.508003,280.443840 358.986778,298.758410 359.457574,282.468921 359.944328,274.007628 360.423104,293.336100 360.901879,288.227700 361.859429,292.525515 362.330225,285.363681 362.816980,278.865049 363.295755,288.784980 363.774530,286.148660 364.253305,286.695180 364.732081,278.214978 365.210856,262.084560 365.681652,274.136746 366.168406,286.097508 366.639202,246.897193 367.125957,270.899193 367.604732,258.726356 368.075528,277.125173 368.562283,265.564684 369.041058,280.614120 369.519833,274.834920 369.998608,262.352880 370.477383,275.147100 371.426954,262.605458 371.913709,282.661127 372.384505,264.532586 372.871260,271.292284 373.342055,266.790305 373.828810,274.715902 374.307585,254.708340 374.786360,253.761480 375.265136,271.857600 375.743911,280.671591 376.222686,280.143773 376.693482,272.424500 377.180237,282.618061 377.651032,266.202590 378.145767,276.510755 378.608583,261.497566 379.087358,255.812580 379.574113,268.422393 380.052888,260.419352 380.531663,280.664172 381.010438,260.519274 381.489214,252.105120 381.967989,254.006580 382.446764,257.146440 382.925539,263.529360 383.396335,265.544034 383.883090,266.603799 384.361865,273.223710 384.832661,265.980622 385.319415,248.948046 385.790211,264.817261 386.276966,252.021207 386.755741,264.636180 387.234516,260.590740 387.713292,266.150564 388.192067,270.832050 388.670842,244.034364 389.628392,244.504440 390.107168,249.986940 390.585943,237.442980 391.056739,250.835410 391.543493,259.488075 392.022269,248.983062 392.501044,262.654740 392.979819,246.310440 393.458594,234.568860 393.929390,257.901112 394.416145,247.773089 395.373695,258.836598 395.852470,254.866752 396.331246,238.895520 396.810021,238.242780 397.280817,245.653546 397.767571,247.194492 398.246347,244.071259 398.725122,234.542725 399.211877,265.091148 399.674693,245.246234 400.153468,260.688780 400.640223,240.307161 401.111018,264.835627 401.597773,263.204872 402.068569,245.083857 402.555324,253.258338 403.034099,248.031042 403.512874,258.955020 403.991649,236.036880 404.462445,253.897302 404.941220,244.576680 405.427975,245.220692 405.906750,272.840477 406.377546,246.309740 406.872280,249.383303 407.335096,239.737490 407.821851,241.842472 408.300626,254.409060 408.779402,240.670560 409.258177,264.418868 409.736952,255.744984 410.215727,231.663006 410.694502,252.915240 411.173278,215.376240 411.652053,235.513140 412.130828,230.180280 412.601624,223.584236 413.080399,239.005686 413.567154,225.618925 414.037949,233.461078 414.524704,259.981987 415.003479,241.400700 415.482255,236.506440 415.961030,242.101868 416.431826,243.694932 416.918580,231.854066 417.397356,244.432200 418.346926,242.360766 418.833681,225.415908 419.312457,245.002562 419.783252,240.348891 420.270007,243.738138 420.748782,234.143160 421.227557,224.145660 421.706333,235.133880 422.177128,232.723339 422.663883,238.857497 423.142658,233.974686 423.621434,230.327340 424.092229,226.348149 424.578984,222.297069 425.049780,204.618427 425.528555,233.710160 426.015310,229.656667 426.486105,226.828292 426.972860,219.835495 427.451635,216.575940 427.930411,241.496160 428.401206,229.220268 428.879981,234.632844 429.366736,243.024535 429.845511,234.140580 430.324287,229.163760 430.803062,226.204500 431.281837,211.467540 431.760612,217.395014 432.239388,224.594064 432.718163,228.495540 433.196938,235.760820 433.667734,238.656061 434.154489,224.010020 434.625284,236.490515 435.112039,242.425738 435.582835,227.638499 436.540385,218.776068 437.027140,232.506256 437.497936,221.006237 437.984690,213.735285 438.455486,216.690466 438.942241,202.013193 439.421016,223.420680 439.899791,225.662700 440.370587,222.402061 440.857342,201.476648 441.336117,220.192326 441.814892,195.796620 442.293667,212.197680 442.772443,175.731960 443.251218,209.158440 443.722013,208.463424 444.208768,198.444673 444.687543,208.755960 445.166319,193.923540 445.637114,215.478041 446.123869,178.710136 446.602644,208.350900 447.560195,210.819960 448.046950,164.607423 448.509766,180.702641 448.996521,176.733517 449.467316,185.858504 449.954071,168.307397 450.432846,189.276960 450.903642,178.116142 451.382417,182.546954 451.869172,178.584594 452.339968,177.132244 452.818743,145.355040 453.297518,164.902618 453.784273,144.568918 454.271028,163.955233 454.733844,177.478531 455.220598,150.954570 455.699374,191.648420 456.178149,159.034458 457.135699,146.335440 457.614475,150.042900 458.085270,160.350010 458.572025,169.082919 459.050800,150.300900 459.529576,172.295400 460.008351,176.764787 460.487126,157.718271 460.965901,182.019420 461.444676,171.859380 461.923452,189.746520 462.394247,167.427519 462.888982,187.306506 463.351798,185.573237 463.838553,175.390131 464.317328,170.510040 464.796103,175.255332 465.266899,180.475688 465.753653,198.144970 466.224449,188.996746 466.703224,184.945140 467.189979,178.866787 467.660775,184.306753 468.626305,164.426400 469.105080,174.356820 469.575876,141.260887 470.062630,172.960203 470.541406,136.721586 471.020181,140.871000 471.490977,159.018020 471.977731,145.238315 472.448527,156.454113 472.935282,164.122721 473.414057,162.359820 473.892832,147.911718 474.371608,155.082956 474.850383,167.029104 475.329158,161.895420 475.807933,154.545000 476.286708,157.476320 476.765484,195.742698 477.244259,172.494060 477.723034,182.966280 478.193830,184.654475 478.680585,176.128528 479.159360,164.643894 479.638135,165.669960 480.116910,172.328940 480.587706,168.691708 481.074461,176.219378 481.553236,151.414170 482.032011,189.049920 482.510786,198.203760 482.989562,196.686720 483.468337,194.575430 483.939132,187.075127 484.425887,178.118164 484.904662,167.365020 485.375458,186.168366 485.862213,186.805922 486.340988,175.659204 486.811784,177.119125 487.298539,191.984184 487.769334,192.515166 488.248109,202.992240 488.734864,180.341119 489.213640,185.162634 489.692415,219.251400 490.171190,226.253520 490.641986,209.112875 491.128740,204.515803 491.607516,206.985564 492.086291,201.821694 492.557087,216.078875 493.035862,209.506740 493.514637,204.855000 494.001392,208.457113 494.480167,230.956860 494.950963,204.883424 495.437717,233.455357 495.916493,214.873140 496.395268,232.995060 496.866064,208.719500 497.352818,215.944686 497.823614,219.412060 498.310369,209.704977 498.789144,213.554760 499.259940,215.097600 499.746695,226.716661 500.217490,224.620948 500.696265,233.709720 501.191000,208.551058 501.653816,210.192041 502.140571,209.227889 502.619346,229.670112 503.576896,219.692064 504.055672,225.035760 504.526467,216.388475 505.013222,191.689810 505.491997,223.609020 505.970772,184.570190 506.449548,202.364268 506.928323,208.975260 507.407098,204.563460 507.885873,232.365540 508.372628,202.469652 508.843424,216.421534 509.314219,221.958126 509.800974,220.436931 510.271770,217.718705 510.750545,223.663200 511.237300,226.120249 511.716075,221.728510 512.186871,213.086774 512.673626,216.724269 513.144421,208.651098 513.623196,219.986700 514.109951,223.619213 514.588727,220.703864 515.059522,216.082285 515.546277,219.728911 516.017073,237.976515 516.495848,240.830520 516.974623,234.117360 517.940153,225.735972 518.418928,247.097856 518.897704,228.732900 519.368499,235.872285 519.855254,221.271836 520.334029,234.537900 520.812804,240.980858 521.283600,177.782929 521.770355,108.767764 522.241151,110.917200 522.719926,87.470084 523.206681,102.335443 523.677476,98.189492 524.164231,100.129416 524.643006,98.169344 525.121781,130.920714 525.600557,221.261220 526.079332,248.273820 526.558107,232.829940 527.036882,239.762659 527.515658,242.869159 527.986453,227.090664 528.473208,222.890892 528.944004,253.781858 529.430759,215.970570 529.917513,225.380380 530.396289,223.841660 530.859105,216.344274 531.345859,221.340354 531.816655,214.709288 532.303410,227.626249 532.774206,217.217573 533.260960,231.883428 533.731756,220.091605 534.210531,217.990554 534.697286,193.785954 535.176061,213.490260 535.654836,198.856500 536.133612,200.121140 536.612387,215.167518 537.091162,227.817000 537.569937,214.886040 538.048713,200.543820 538.519508,202.886766 539.006263,142.652394 539.477059,79.439801 539.955834,96.765900 540.434609,90.042420 540.913384,57.927278 541.392160,101.696280 541.878914,160.072544 542.357690,92.617442 542.836465,104.467716 543.315240,150.512460 543.786036,233.156725 544.272791,236.734072 544.751566,214.640632 545.222361,238.183239 545.709116,233.525398 546.187891,200.303880 546.666667,206.854500 547.145442,189.160860 547.616238,142.319746 548.102992,138.366539 548.581768,141.570180 549.060543,155.927880 549.539318,150.731760 550.018093,132.352538 550.496868,68.416860 550.967664,122.771207 551.454419,123.856629 551.933194,103.046652 552.403990,74.268956 552.890745,67.626492 553.369520,118.693244 553.840315,53.883370 554.327070,94.556616 554.797866,98.083959 555.284621,127.484589 555.763396,73.285320 556.242171,106.433160 556.720946,57.225002 557.199722,95.912436 557.670517,60.158542 558.149293,148.200780 558.636047,196.573548 559.106843,189.641658 559.593598,190.834603 560.072373,171.704580 560.543169,196.049329 561.029923,207.136491 561.508699,200.911728 561.987474,202.772424 562.466249,195.530880 562.937045,193.887376 563.423800,183.005784 563.902575,201.047360 564.381350,205.949178 564.860125,199.901400 565.338900,206.730660 565.809696,195.873539 566.296451,198.937928 566.775226,197.085330 567.254001,211.770948 567.732777,192.243960 568.211552,210.239460 568.690327,199.142880 569.169102,204.710702 569.639898,212.185786 570.118673,191.985960 570.605428,204.040820 571.076224,223.818875 571.562978,205.956787 572.041754,209.906822 572.512549,226.398525 572.999304,224.403364 573.470100,193.024169 573.956855,217.825633 574.427650,226.293051 574.914405,222.290142 575.393180,211.888080 575.871955,199.516980 576.350731,230.804640 576.829506,224.233380 577.308281,224.940300 577.787056,221.670848 578.265832,224.446230 578.744607,231.049740 579.223382,217.951080 579.694178,221.111186 580.180932,204.342807 580.659708,205.530110 581.138483,219.280812 581.617258,228.462516 582.096033,242.215980 582.566829,218.846908 583.053584,244.555279 583.524379,226.962102 584.011134,229.188893 584.489910,240.382890 584.968685,220.464000 585.447460,233.007960 585.926235,227.102340 586.405010,231.137460 586.875806,214.607410 587.362561,227.405723 587.841336,212.855580 588.320111,212.166720 588.790907,218.107017 589.269682,231.439320 589.756437,213.034371 590.235212,234.404772 590.706008,225.728687 591.192763,232.605226 591.671538,231.351600 592.142334,205.318963 592.621109,217.504740 593.107864,200.437458 593.578659,210.614172 594.065414,229.377266 594.544189,248.173200 595.022965,244.117440 595.501740,216.204420 595.980515,222.049850 596.459290,226.430508 596.930086,216.322881 597.416841,228.019593 597.887636,221.349946 598.374391,212.260446 598.853166,223.273286 599.331942,209.366904 599.810717,229.578108 600.289492,217.571820 600.760288,221.402420 601.247042,229.577744 601.725818,236.630280 602.204593,217.697390 602.683368,219.836028 603.154164,216.884359 603.640919,242.832177 604.119694,233.624580 604.598469,212.582100 605.069265,207.442007 605.548040,212.357898 606.026815,216.859740 606.513570,194.983751 606.984366,232.424705 607.471120,215.455416 607.949896,195.285188 608.428671,229.312110 608.907446,204.186780 609.386221,197.303340 609.864997,208.804980 610.343772,216.103800 610.822547,205.600802 611.301322,213.681696 611.772118,211.765464 612.258873,208.824393 612.729668,200.341749 613.216423,206.579363 613.695198,189.858595 614.165994,199.915393 614.652749,214.343902 615.123544,190.484400 616.089074,210.175658 616.567850,205.329720 617.046625,209.891160 617.517421,170.701485 617.996196,187.452900 618.482951,183.964707 618.953746,189.400538 619.440501,199.938620 619.919276,178.637040 620.398051,196.524180 620.876827,204.529920 621.355602,208.085342 621.834377,184.576716 622.305173,173.406549 622.783948,176.338260 623.270703,179.711843 623.741498,184.650986 624.220274,173.161248 624.707029,156.760839 625.185804,183.025620 625.664579,177.798540 626.143354,166.220198 626.622129,193.469460 627.100905,196.397760 627.571700,181.078332 628.058455,167.140052 628.537230,175.115264 629.016006,177.334914 629.486801,167.261776 629.973556,164.262295 630.444352,169.854020 630.931106,174.788366 631.409882,151.710612 631.888657,193.195980 632.359453,153.959471 632.846207,175.060230 633.324983,170.189786 633.803758,177.518352 634.274553,168.576264 634.761308,164.363803 635.240084,168.193304 635.718859,179.371643 636.189654,159.226607 636.676409,158.204793 637.147205,162.323919 637.633960,151.832795 638.104755,170.741365 638.583531,160.484160 639.070285,178.450603 639.541081,144.681966 640.027836,136.951440 640.498631,139.078468 640.993366,162.071110 641.456182,174.801559 641.934957,151.645004 642.421712,163.331719 642.900487,134.944740 643.371283,163.024454 643.858038,172.933633 644.328833,140.194263 644.815588,157.891894 645.286384,176.106366 645.773138,168.010485 646.251914,139.808273 646.722709,130.640242 647.209464,177.125921 647.688239,159.336060 648.167015,130.770300 648.637810,162.848062 649.124565,129.920803 649.603340,109.005420 650.074136,140.365932 650.560891,145.405296 651.039666,131.237280 651.510462,120.365247 652.005196,141.248013 652.475992,115.067074 652.946787,142.445500 653.425563,127.898760 653.912317,124.798446 654.383113,99.132645 654.869868,123.917355 655.827418,134.099134 656.298214,123.528075 656.784969,135.232981 657.255764,107.926149 657.742519,156.755764 658.221294,109.425110 658.700070,134.445768 659.178845,131.245020 659.657620,111.368700 660.128416,93.137949 660.615170,111.126814 661.085966,104.410353 661.572721,92.391954 662.051496,105.097676 662.522292,111.538761 663.009047,103.179738 663.487822,108.172080 663.966597,109.882544 664.445372,103.466934 664.924148,105.034800 665.394943,88.699464 665.889678,93.240714 666.360473,100.789607 666.831269,106.984231 667.318024,96.084240 667.796799,116.810694 668.267595,87.243295 668.754349,114.482675 669.233125,85.855004 669.703920,76.688821 670.190675,101.636813 670.661471,110.061864 671.148225,104.278743 671.627001,84.351456 672.097796,92.611444 672.584551,102.236398 673.063326,70.973640 673.534122,66.552569 674.020877,86.035003 674.491672,88.023777 674.978427,92.543709 675.457203,109.472400 675.935978,75.243206 676.414753,86.178612 676.893528,102.785040 677.372303,105.457920 677.851079,89.601680 678.329854,75.150918 678.800650,66.253464 679.287404,44.641408 679.758200,80.132203 680.236975,88.571820 680.723730,77.543843 681.202505,103.820318 681.681280,83.463420 682.152076,65.684115 682.630851,79.282196 683.125586,57.680731 683.596381,65.691986 684.067177,72.122746 684.545952,56.319938 685.024727,53.610240 685.511482,82.269049 685.990257,55.240982 686.469033,99.434136 686.963767,91.459839 687.418604,78.444505 687.905358,56.608463 688.392113,79.609534 688.862909,74.027573 689.333704,78.513285 689.820459,77.943785 690.299235,71.262600 690.778010,88.681136 691.256785,106.641882 691.735560,98.435160 692.206356,97.208217 692.693111,112.076603 693.171886,78.283812 693.650661,99.511020 694.129436,122.405940 694.608212,109.894928 695.086987,99.780630 695.565762,94.100760 696.044537,75.303320 696.523312,103.905018 697.002088,87.596580 697.480863,110.439900 697.959638,85.021664 698.438413,65.171994 698.917189,85.842180 699.387984,69.674807 699.874739,73.621237 700.353514,77.513940 700.832289,90.217860 701.303085,81.570453 701.789840,62.113074 702.268615,102.774720 702.739411,87.904475 703.226166,103.241329 703.704941,115.040040 704.183716,83.115120 704.662491,52.848548 705.141267,91.351770 705.620042,93.951120 706.090837,74.987858 706.577592,97.220624 707.048388,74.928824 707.527163,112.429080 708.013918,108.845089 708.484714,93.613184 708.963489,95.016660 709.450244,77.782387 709.929019,109.151888 710.407794,113.490750 710.886569,109.129260 711.365344,102.552840 711.836140,103.211231 712.322895,95.402433 712.801670,103.540980 713.280445,89.596933 713.759221,75.282085 714.237996,99.908340 714.716771,102.462540 715.195546,80.967452 715.674322,114.469086 716.153097,103.987320 716.623892,150.719166 717.110647,108.770481 717.589422,121.033896 718.068198,137.609880 718.538993,128.629993 719.017768,134.307920 719.504523,124.565231 719.983299,132.447300 720.462074,148.492320 720.940849,164.790878 721.419624,132.565980 721.898399,142.604760 722.377175,147.210060 722.855950,136.797180 723.334725,139.675610 723.813500,166.218468 724.292276,178.188120 724.763071,146.193234 725.249826,157.015296 725.720622,144.028658 726.215356,185.713065 726.686152,176.890861 727.164927,183.987960 727.643702,163.611818 728.122477,168.092580 728.593273,159.359105 729.072048,203.307000 729.558803,187.992374 730.037578,163.439474 730.508374,184.493902 731.019068,184.783406 731.465924,196.726157 731.952679,176.877226 732.423475,214.436605 732.910230,191.767717 733.389005,195.121950 733.859801,172.965763 734.346555,198.140656 734.817351,168.775668 735.304106,184.106058 735.782881,218.690766 736.261656,192.130440 736.732452,204.760108 737.219207,209.486734 737.697982,200.077796 738.168778,216.544849 738.655532,222.599817 739.134308,212.602740 739.605103,206.158556 740.091858,201.980203 740.562654,203.905220 741.049408,216.518969 741.520204,203.894278 742.006959,221.819980 742.485734,224.450100 742.956530,206.525878 743.443285,236.255640 743.922060,239.053932 744.879610,231.449640 745.358386,232.602900 745.829181,230.451661 746.315936,237.939482 746.794711,225.012464 747.273486,225.547374 747.752262,250.688700 748.231037,256.826520 748.709812,244.243860 749.188587,259.225920 749.667363,254.700600 750.138158,244.781079 750.624913,250.401897 751.103688,251.563062 751.582463,245.776380 752.053259,269.799722 752.532034,263.498400 753.010810,270.172860 753.497564,273.106997 753.968360,274.375428 754.455115,255.300936 754.925910,269.164517 755.412665,273.492728 755.891441,284.262240 756.370216,270.015480 756.841011,293.733376 757.327766,295.159652 757.806541,273.188880 758.277337,280.672639 758.764092,295.370536 759.242867,281.842458 759.721642,307.438380 760.192438,296.275769 760.679193,276.230911 761.157968,297.577620 761.636743,294.930540 762.115518,287.925840 762.586314,306.348264 763.073069,300.438079 763.551844,302.210708 764.509395,301.162593 764.988170,298.893420 765.466945,303.470340 766.432475,314.534129 766.895291,313.673172 767.382046,301.983541 767.860821,311.171640 768.331617,307.809681 768.818372,295.069504 769.289167,321.480342 769.767942,330.410442 770.246718,317.501154 770.725493,326.265156 771.212248,333.364800 771.691023,325.206840 772.169798,327.637200 772.640594,338.929729 773.127349,326.898728 773.606124,326.112420 774.563674,346.687751 775.034470,336.550007 775.513245,341.398920 776.000000,331.930997" />
<path fill="#00ff00" opacity="0.7" stroke-width="0" d="M 88,399 L  88.000000,334.866360 88.470796,339.176282 88.957550,342.928902 89.436326,335.709246 89.915101,339.569442 90.393876,349.510182 90.872651,326.713560 91.351427,328.909140 91.830202,336.656880 92.308977,348.981540 92.787752,344.249820 93.266527,342.327720 93.745303,351.442860 94.224078,348.630660 94.702853,354.159600 95.181628,366.750000 95.652424,359.074719 96.139179,361.355685 97.096729,349.972260 97.575505,360.171000 98.054280,357.898020 98.525075,353.486176 99.003851,356.602294 99.490605,362.278369 99.961401,357.479754 100.440176,358.561338 100.926931,352.743476 101.397727,359.796244 101.876502,354.090972 102.363257,364.334951 102.842032,357.245280 103.320807,353.181780 103.799582,355.715340 104.278358,363.310860 104.757133,369.482220 105.227929,362.228441 105.714683,365.537823 106.193459,364.035840 106.672234,366.303660 107.151009,357.183360 108.100580,360.100597 108.587335,362.540793 109.074090,364.875482 109.536906,370.570179 110.023660,368.885056 110.502436,365.898600 110.981211,363.050280 111.459986,360.890820 111.930782,369.805769 112.409557,366.946080 112.888332,362.235000 113.375087,353.534911 113.853862,367.613784 114.332637,361.280400 114.811413,358.575528 115.290188,356.351310 115.760984,375.842445 116.247738,373.446834 116.726514,370.266024 117.205289,374.980200 117.684064,371.729400 118.162839,376.959060 118.641614,381.148980 119.120390,369.420300 119.599165,375.271740 120.069961,367.898319 120.556715,373.067193 121.035491,360.245820 121.514266,381.239280 121.985061,373.463247 122.471816,377.005711 122.950592,375.568440 123.429367,381.590160 123.900162,374.662292 124.386917,373.145862 124.865692,372.477600 125.823243,380.537520 126.780793,375.203941 127.251589,372.518705 127.730364,378.803760 128.209139,380.738760 128.687915,372.998760 129.174669,374.267528 129.645465,370.283288 130.132220,367.441102 130.610995,373.780500 131.089770,381.422460 131.568546,377.511180 132.039341,382.599071 132.534076,379.198084 132.996892,376.727483 133.475667,383.081400 133.962422,384.065607 134.433217,380.923402 134.911993,383.527817 135.390768,378.904638 136.356298,378.951116 136.835073,376.980474 137.313848,370.041564 137.792624,380.938194 138.271399,382.147440 138.750174,375.946152 139.220970,382.732094 139.707724,379.894127 140.186500,378.641994 140.665275,376.101726 141.136071,371.463966 141.622825,376.475331 142.101601,384.900300 142.580376,387.864720 143.059151,379.324920 143.537926,383.034960 144.016701,374.967300 144.495477,384.281100 144.974252,381.716580 145.453027,380.978700 145.923823,385.073247 146.410578,383.928570 146.889353,382.717620 147.368128,388.976700 147.838924,384.511769 148.325678,380.670157 148.804454,384.497820 149.283229,385.305360 149.762004,391.525740 150.232800,386.214569 150.719555,382.393259 151.190350,385.474678 151.677105,389.714538 152.147901,386.419220 152.634656,387.511810 153.113431,384.637140 153.592206,388.450380 154.063002,384.960427 154.549756,386.971279 155.507307,383.089140 155.986082,385.204740 156.456878,383.039858 156.943633,389.407475 157.422408,386.507640 157.901183,388.545840 158.379958,384.172740 158.858733,383.499360 159.337509,387.686700 160.287080,385.183444 160.773834,391.483318 161.731385,388.612920 162.210160,391.226460 162.696915,386.704820 163.167711,389.701505 163.646486,389.090220 164.125261,386.886900 164.604036,389.141820 165.074832,387.355892 165.553607,386.659860 166.040362,389.077574 166.989933,387.256190 167.955463,388.455540 168.913013,384.913200 169.391788,388.238820 169.870564,387.057180 170.349339,385.008660 170.828114,387.103054 171.306889,387.865339 171.785665,384.355533 172.264440,389.396724 172.743215,392.873790 173.700765,390.170982 174.658316,383.438793 175.137091,389.076030 175.615866,390.078618 176.573417,391.029606 177.052192,386.619096 177.530967,389.661432 178.001763,388.690845 178.959313,389.658738 179.446068,384.084132 179.924843,388.246818 180.395639,382.756757 180.882394,386.131298 181.353190,390.819738 181.831965,387.727206 182.318720,389.386666 182.797495,386.774412 183.276270,389.472060 184.233820,383.070826 184.712596,386.265120 185.183391,388.179742 185.670146,390.285521 186.148921,389.745540 186.619717,386.379864 187.106472,391.300603 187.577267,388.318800 188.056043,390.736260 188.542797,384.573148 189.021573,383.566440 189.500348,391.187760 189.979123,387.949860 190.457898,390.310560 190.936674,391.662480 191.407469,383.624949 191.886244,387.537060 192.372999,383.766157 192.851775,390.302820 193.330550,386.982360 194.280121,388.468440 194.766875,387.836636 195.245651,394.190880 195.716446,388.491966 196.203201,382.548059 196.681976,384.905460 197.152772,388.533946 198.118302,385.811548 198.597077,390.052560 199.075852,386.719200 199.546648,389.793336 200.033403,391.358970 200.512178,392.286840 200.990953,386.427660 201.461749,390.310210 201.948504,390.856505 202.427279,387.730560 202.906054,385.166040 203.376850,378.852386 203.855625,389.067000 204.813176,389.591308 205.299930,390.338813 205.770726,387.849153 206.257481,386.877384 206.736256,387.413220 207.215031,392.119140 207.685827,390.635553 208.164602,386.943660 208.651357,384.149351 209.130132,389.454000 209.608907,391.835340 210.087683,388.620660 210.566458,386.195460 211.045233,387.173280 211.524008,388.721280 211.994804,391.068468 212.952354,388.825180 213.447089,387.102871 214.388680,385.782660 214.875435,391.592439 215.354210,384.146940 215.832985,389.941620 216.782556,391.540739 217.269311,389.113102 217.740107,381.562698 218.218882,385.620120 218.705637,386.613462 219.176432,389.969125 220.141962,386.160476 220.620738,387.001013 221.091533,390.202637 221.578288,392.088307 222.535839,387.318944 223.014614,389.160912 223.972164,389.223348 224.450939,390.672276 224.921735,388.431358 225.408490,389.847513 225.879286,391.148754 226.366040,393.240932 226.844816,390.177948 227.794386,391.084560 228.281141,392.726793 228.751937,391.490626 229.238692,394.992203 229.717467,389.721804 230.196242,391.330950 230.667038,393.571505 231.153793,392.287009 232.111343,389.361636 232.590118,392.160936 233.068894,391.443954 233.547669,392.179512 234.018464,389.857355 234.983994,387.468432 235.454790,391.107824 235.941545,393.389134 236.412341,392.372461 236.899095,390.374341 237.856646,389.090220 238.327441,392.278007 238.814196,391.435102 239.292971,389.642340 239.763767,390.997627 240.250522,392.762321 240.729297,391.690860 241.686848,387.046860 242.157643,393.395715 242.644398,390.950400 243.115194,393.322251 243.601949,394.211351 244.080724,385.000920 245.038274,389.761020 245.517049,384.239820 245.995825,388.313640 246.474600,386.489580 246.953375,388.086600 247.432150,390.248640 247.910926,389.474640 248.860496,387.796678 249.826026,385.684620 250.304802,390.839460 251.262352,384.288753 251.741127,388.814160 252.698678,393.632754 253.656228,389.002500 254.127024,390.501742 254.613779,388.831416 255.092554,391.657320 255.563350,389.016712 256.050104,387.747816 256.528880,386.685660 257.007655,390.491160 257.478450,389.958631 257.965205,388.382243 258.443981,389.131500 258.922756,386.969460 259.393551,390.924163 259.880306,388.351790 260.351102,384.522264 260.829877,383.197500 261.316632,386.415521 261.795407,389.724900 262.274182,389.074740 262.752958,390.382800 263.223753,389.735614 263.710508,388.864407 264.668058,388.865760 265.138854,382.900800 265.625609,378.703436 266.096405,387.046292 266.583159,385.687200 267.061935,383.710920 267.540710,385.883280 268.490281,384.288753 268.977035,383.068289 269.463790,388.323875 270.413361,383.390577 270.892136,376.246980 271.370912,383.641260 271.849687,381.195420 272.328462,387.346140 272.807237,384.746275 273.278033,382.743639 273.764788,384.825319 274.722338,380.333150 275.209093,380.964277 275.671909,377.500415 276.158664,379.320606 276.637439,376.121334 277.108235,385.589335 277.594990,379.586050 278.073765,386.449332 278.552540,385.344318 279.031315,380.719926 279.510090,383.615460 279.980886,381.095937 280.459661,384.786780 280.946416,380.111862 281.417212,376.624841 281.903967,382.888111 282.382742,376.894560 282.853537,380.919885 283.332313,379.420380 283.819068,381.571043 284.297843,379.128840 284.768638,374.150664 285.255393,379.035875 285.726189,373.190380 286.212944,376.939731 286.691719,372.606600 287.170494,371.708760 287.641290,376.729790 288.128045,371.633390 288.606820,377.611800 289.077615,375.294610 289.564370,376.536236 290.043145,379.242360 290.521921,377.446680 290.992716,379.988461 291.479471,376.807770 291.950267,367.811736 292.437022,364.332413 292.915797,369.415140 293.394572,372.877500 293.865368,373.722997 294.352122,371.582636 294.822918,367.087586 295.309673,361.497797 295.788448,376.719120 296.267223,374.606100 296.738019,365.712753 297.224774,370.082854 297.695569,365.783777 298.182324,369.592568 298.661100,373.125438 299.139875,361.264146 299.618650,362.598006 300.097425,370.764222 301.054976,375.220182 301.533751,361.610640 302.012526,373.416720 302.491301,365.261340 302.970077,359.732400 303.448852,363.873300 303.927627,368.981700 304.406402,367.580760 304.885177,358.156020 305.355973,362.831898 305.834748,369.229380 306.321503,364.197915 306.792299,363.616393 307.279054,356.848721 307.749849,355.994461 308.236604,360.855757 308.715379,359.015160 309.194154,361.551300 309.664950,358.426658 310.143725,357.485220 310.622501,365.410980 311.101276,347.111040 311.580051,355.787580 312.066806,363.998503 312.545581,352.428549 313.503132,342.951048 313.981907,354.367806 314.452702,343.633812 314.939457,345.814780 315.410253,343.195912 315.897008,346.723279 316.375783,354.048660 316.854558,347.149740 317.333333,358.615260 317.812109,343.222980 318.290884,352.121400 318.769659,342.817920 319.240455,348.545695 319.719230,349.365960 320.205985,350.710013 320.684760,339.582600 321.163535,344.244660 321.634331,340.425254 322.113106,347.201340 322.591881,342.410978 323.078636,349.477957 323.557411,339.196374 324.028207,332.730382 324.506982,331.360140 324.993737,340.373941 325.472512,345.129600 325.951287,343.302960 326.430063,333.029400 326.908838,327.742980 327.387613,338.274540 327.858409,333.168020 328.345164,340.368866 328.823939,341.891700 329.302714,342.959820 329.781489,330.949920 330.252285,332.758719 330.731060,333.831780 331.696590,333.714132 332.175365,332.952774 332.646161,325.868807 333.132916,301.695765 333.611691,324.123240 334.082487,317.478122 334.569241,334.001764 335.040037,323.698983 335.526792,327.193102 336.005567,325.557720 336.484342,333.406080 337.441893,315.490560 337.920668,313.031820 338.399443,326.406980 338.878219,329.490930 339.356994,313.453908 339.827789,313.985939 340.314544,319.920039 340.793319,308.418780 341.750870,320.248080 342.229645,305.118960 342.700441,325.428020 343.187196,304.637980 343.657991,289.656102 344.144746,247.284252 344.615542,248.596845 345.094317,241.111998 346.059847,257.334780 346.538622,259.581960 347.009418,252.367668 347.496173,301.201928 347.974948,331.019580 348.453723,309.222890 348.932498,322.477974 349.411273,315.117750 350.368824,302.071980 351.326374,298.529725 351.805150,301.207680 352.283925,293.581200 352.762700,292.636920 353.241475,302.848560 353.712271,295.372342 354.199026,299.270988 355.148597,302.295128 355.635351,296.250866 356.114127,298.114260 356.592902,292.224120 357.071677,285.634800 357.542473,289.000169 358.029228,281.709816 358.508003,280.443840 358.986778,298.758410 359.457574,282.468921 359.944328,274.007628 360.423104,293.336100 360.901879,288.227700 361.859429,292.525515 362.330225,285.363681 362.816980,278.865049 363.295755,288.784980 363.774530,286.148660 364.253305,286.695180 364.732081,278.214978 365.210856,262.084560 365.681652,274.136746 366.168406,286.097508 366.639202,246.897193 367.125957,270.899193 367.604732,258.726356 368.075528,277.125173 368.562283,265.564684 369.041058,280.614120 369.519833,274.834920 369.998608,262.352880 370.477383,275.147100 371.426954,262.605458 371.913709,282.661127 372.384505,264.532586 372.871260,271.292284 373.342055,266.790305 373.828810,274.715902 374.307585,254.708340 374.786360,253.761480 375.265136,271.857600 375.743911,280.671591 376.222686,280.143773 376.693482,272.424500 377.180237,282.618061 377.651032,266.202590 378.145767,276.510755 378.608583,261.497566 379.087358,255.812580 379.574113,268.422393 380.052888,260.419352 380.531663,280.664172 381.010438,260.519274 381.489214,252.105120 381.967989,254.006580 382.446764,257.146440 382.925539,263.529360 383.396335,265.544034 383.883090,266.603799 384.361865,273.223710 384.832661,265.980622 385.319415,248.948046 385.790211,264.817261 386.276966,252.021207 386.755741,264.636180 387.234516,260.590740 387.713292,266.150564 388.192067,270.832050 388.670842,244.034364 389.628392,244.504440 390.107168,249.986940 390.585943,237.442980 391.056739,250.835410 391.543493,259.488075 392.022269,248.983062 392.501044,262.654740 392.979819,246.310440 393.458594,234.568860 393.929390,257.901112 394.416145,247.773089 395.373695,258.836598 395.852470,254.866752 396.331246,238.895520 396.810021,238.242780 397.280817,245.653546 397.767571,247.194492 398.246347,244.071259 398.725122,234.542725 399.211877,265.091148 399.674693,245.246234 400.153468,260.688780 400.640223,240.307161 401.111018,264.835627 401.597773,263.204872 402.068569,245.083857 402.555324,253.258338 403.034099,248.031042 403.512874,258.955020 403.991649,236.036880 404.462445,253.897302 404.941220,244.576680 405.427975,245.220692 405.906750,272.840477 406.377546,246.309740 406.872280,249.383303 407.335096,239.737490 407.821851,241.842472 408.300626,254.409060 408.779402,240.670560 409.258177,264.418868 409.736952,255.744984 410.215727,231.663006 410.694502,252.915240 411.173278,215.376240 411.652053,235.513140 412.130828,230.180280 412.601624,223.584236 413.080399,239.005686 413.567154,225.618925 414.037949,233.461078 414.524704,259.981987 415.003479,241.400700 415.482255,236.506440 415.961030,242.101868 416.431826,243.694932 416.918580,231.854066 417.397356,244.432200 418.346926,242.360766 418.833681,225.415908 419.312457,245.002562 419.783252,240.348891 420.270007,243.738138 420.748782,234.143160 421.227557,224.145660 421.706333,235.133880 422.177128,232.723339 422.663883,238.857497 423.142658,233.974686 423.621434,230.327340 424.092229,226.348149 424.578984,222.297069 425.049780,204.618427 425.528555,233.710160 426.015310,229.656667 426.486105,226.828292 426.972860,219.835495 427.451635,216.575940 427.930411,241.496160 428.401206,229.220268 428.879981,234.632844 429.366736,243.024535 429.845511,234.140580 430.324287,229.163760 430.803062,226.204500 431.281837,211.467540 431.760612,217.395014 432.239388,224.594064 432.718163,228.495540 433.196938,235.760820 433.667734,238.656061 434.154489,224.010020 434.625284,236.490515 435.112039,242.425738 435.582835,227.638499 436.540385,218.776068 437.027140,232.506256 437.497936,221.006237 437.984690,213.735285 438.455486,216.690466 438.942241,202.013193 439.421016,223.420680 439.899791,225.662700 440.370587,222.402061 440.857342,201.476648 441.336117,220.192326 441.814892,195.796620 442.293667,212.197680 442.772443,175.731960 443.251218,209.158440 443.722013,208.463424 444.208768,198.444673 444.687543,208.755960 445.166319,193.923540 445.637114,215.478041 446.123869,178.710136 446.602644,208.350900 447.560195,210.819960 448.046950,164.607423 448.509766,180.702641 448.996521,176.733517 449.467316,185.858504 449.954071,168.307397 450.432846,189.276960 450.903642,178.116142 451.382417,182.546954 451.869172,178.584594 452.339968,177.132244 452.818743,145.355040 453.297518,164.902618 453.784273,144.568918 454.271028,163.955233 454.733844,177.478531 455.220598,150.954570 455.699374,191.648420 456.178149,159.034458 457.135699,146.335440 457.614475,150.042900 458.085270,160.350010 458.572025,169.082919 459.050800,150.300900 459.529576,172.295400 460.008351,176.764787 460.487126,157.718271 460.965901,182.019420 461.444676,171.859380 461.923452,189.746520 462.394247,167.427519 462.888982,187.306506 463.351798,185.573237 463.838553,175.390131 464.317328,170.510040 464.796103,175.255332 465.266899,180.475688 465.753653,198.144970 466.224449,188.996746 466.703224,184.945140 467.189979,178.866787 467.660775,184.306753 468.626305,164.426400 469.105080,174.356820 469.575876,141.260887 470.062630,172.960203 470.541406,136.721586 471.020181,140.871000 471.490977,159.018020 471.977731,145.238315 472.448527,156.454113 472.935282,164.122721 473.414057,162.359820 473.892832,147.911718 474.371608,155.082956 474.850383,167.029104 475.329158,161.895420 475.807933,154.545000 476.286708,157.476320 476.765484,195.742698 477.244259,172.494060 477.723034,182.966280 478.193830,184.654475 478.680585,176.128528 479.159360,164.643894 479.638135,165.669960 480.116910,172.328940 480.587706,168.691708 481.074461,176.219378 481.553236,151.414170 482.032011,189.049920 482.510786,198.203760 482.989562,196.686720 483.468337,194.575430 483.939132,187.075127 484.425887,178.118164 484.904662,167.365020 485.375458,186.168366 485.862213,186.805922 486.340988,175.659204 486.811784,177.119125 487.298539,191.984184 487.769334,192.515166 488.248109,202.992240 488.734864,180.341119 489.213640,185.162634 489.692415,219.251400 490.171190,226.253520 490.641986,209.112875 491.128740,204.515803 491.607516,206.985564 492.086291,201.821694 492.557087,216.078875 493.035862,209.506740 493.514637,204.855000 494.001392,208.457113 494.480167,230.956860 494.950963,204.883424 495.437717,233.455357 495.916493,214.873140 496.395268,232.995060 496.866064,208.719500 497.352818,215.944686 497.823614,219.412060 498.310369,209.704977 498.789144,213.554760 499.259940,215.097600 499.746695,226.716661 500.217490,224.620948 500.696265,233.709720 501.191000,208.551058 501.653816,210.192041 502.140571,209.227889 502.619346,229.670112 503.576896,219.692064 504.055672,225.035760 504.526467,216.388475 505.013222,191.689810 505.491997,223.609020 505.970772,184.570190 506.449548,202.364268 506.928323,208.975260 507.407098,204.563460 507.885873,232.365540 508.372628,202.469652 508.843424,216.421534 509.314219,221.958126 509.800974,220.436931 510.271770,217.718705 510.750545,223.663200 511.237300,226.120249 511.716075,221.728510 512.186871,213.086774 512.673626,216.724269 513.144421,208.651098 513.623196,219.986700 514.109951,223.619213 514.588727,220.703864 515.059522,216.082285 515.546277,219.728911 516.017073,237.976515 516.495848,240.830520 516.974623,234.117360 517.940153,225.735972 518.418928,247.097856 518.897704,228.732900 519.368499,235.872285 519.855254,221.271836 520.334029,234.537900 520.812804,240.980858 521.283600,177.782929 521.770355,108.767764 522.241151,110.917200 522.719926,87.470084 523.206681,102.335443 523.677476,98.189492 524.164231,100.129416 524.643006,98.169344 525.121781,130.920714 525.600557,221.261220 526.079332,248.273820 526.558107,232.829940 527.036882,239.762659 527.515658,242.869159 527.986453,227.090664 528.473208,222.890892 528.944004,253.781858 529.430759,215.970570 529.917513,225.380380 530.396289,223.841660 530.859105,216.344274 531.345859,221.340354 531.816655,214.709288 532.303410,227.626249 532.774206,217.217573 533.260960,231.883428 533.731756,220.091605 534.210531,217.990554 534.697286,193.785954 535.176061,213.490260 535.654836,198.856500 536.133612,200.121140 536.612387,215.167518 537.091162,227.817000 537.569937,214.886040 538.048713,200.543820 538.519508,202.886766 539.006263,142.652394 539.477059,79.439801 539.955834,96.765900 540.434609,90.042420 540.913384,57.927278 541.392160,101.696280 541.878914,160.072544 542.357690,92.617442 542.836465,104.467716 543.315240,150.512460 543.786036,233.156725 544.272791,236.734072 544.751566,214.640632 545.222361,238.183239 545.709116,233.525398 546.187891,200.303880 546.666667,206.854500 547.145442,189.160860 547.616238,142.319746 548.102992,138.366539 548.581768,141.570180 549.060543,155.927880 549.539318,150.731760 550.018093,132.352538 550.496868,68.416860 550.967664,122.771207 551.454419,123.856629 551.933194,103.046652 552.403990,74.268956 552.890745,67.626492 553.369520,118.693244 553.840315,53.883370 554.327070,94.556616 554.797866,98.083959 555.284621,127.484589 555.763396,73.285320 556.242171,106.433160 556.720946,57.225002 557.199722,95.912436 557.670517,60.158542 558.149293,148.200780 558.636047,196.573548 559.106843,189.641658 559.593598,190.834603 560.072373,171.704580 560.543169,196.049329 561.029923,207.136491 561.508699,200.911728 561.987474,202.772424 562.466249,195.530880 562.937045,193.887376 563.423800,183.005784 563.902575,201.047360 564.381350,205.949178 564.860125,199.901400 565.338900,206.730660 565.809696,195.873539 566.296451,198.937928 566.775226,197.085330 567.254001,211.770948 567.732777,192.243960 568.211552,210.239460 568.690327,199.142880 569.169102,204.710702 569.639898,212.185786 570.118673,191.985960 570.605428,204.040820 571.076224,223.818875 571.562978,205.956787 572.041754,209.906822 572.512549,226.398525 572.999304,224.403364 573.470100,193.024169 573.956855,217.825633 574.427650,226.293051 574.914405,222.290142 575.393180,211.888080 575.871955,199.516980 576.350731,230.804640 576.829506,224.233380 577.308281,224.940300 577.787056,221.670848 578.265832,224.446230 578.744607,231.049740 579.223382,217.951080 579.694178,221.111186 580.180932,204.342807 580.659708,205.530110 581.138483,219.280812 581.617258,228.462516 582.096033,242.215980 582.566829,218.846908 583.053584,244.555279 583.524379,226.962102 584.011134,229.188893 584.489910,240.382890 584.968685,220.464000 585.447460,233.007960 585.926235,227.102340 586.405010,231.137460 586.875806,214.607410 587.362561,227.405723 587.841336,212.855580 588.320111,212.166720 588.790907,218.107017 589.269682,231.439320 589.756437,213.034371 590.235212,234.404772 590.706008,225.728687 591.192763,232.605226 591.671538,231.351600 592.142334,205.318963 592.621109,217.504740 593.107864,200.437458 593.578659,210.614172 594.065414,229.377266 594.544189,248.173200 595.022965,244.117440 595.501740,216.204420 595.980515,222.049850 596.459290,226.430508 596.930086,216.322881 597.416841,228.019593 597.887636,221.349946 598.374391,212.260446 598.853166,223.273286 599.331942,209.366904 599.810717,229.578108 600.289492,217.571820 600.760288,221.402420 601.247042,229.577744 601.725818,236.630280 602.204593,217.697390 602.683368,219.836028 603.154164,216.884359 603.640919,242.832177 604.119694,233.624580 604.598469,212.582100 605.069265,207.442007 605.548040,212.357898 606.026815,216.859740 606.513570,194.983751 606.984366,232.424705 607.471120,215.455416 607.949896,195.285188 608.428671,229.312110 608.907446,204.186780 609.386221,197.303340 609.864997,208.804980 610.343772,216.103800 610.822547,205.600802 611.301322,213.681696 611.772118,211.765464 612.258873,208.824393 612.729668,200.341749 613.216423,206.579363 613.695198,189.858595 614.165994,199.915393 614.652749,214.343902 615.123544,190.484400 616.089074,210.175658 616.567850,205.329720 617.046625,209.891160 617.517421,170.701485 617.996196,187.452900 618.482951,183.964707 618.953746,189.400538 619.440501,199.938620 619.919276,178.637040 620.398051,196.524180 620.876827,204.529920 621.355602,208.085342 621.834377,184.576716 622.305173,173.406549 622.783948,176.338260 623.270703,179.711843 623.741498,184.650986 624.220274,173.161248 624.707029,156.760839 625.185804,183.025620 625.664579,177.798540 626.143354,166.220198 626.622129,193.469460 627.100905,196.397760 627.571700,181.078332 628.058455,167.140052 628.537230,175.115264 629.016006,177.334914 629.486801,167.261776 629.973556,164.262295 630.444352,169.854020 630.931106,174.788366 631.409882,151.710612 631.888657,193.195980 632.359453,153.959471 632.846207,175.060230 633.324983,170.189786 633.803758,177.518352 634.274553,168.576264 634.761308,164.363803 635.240084,168.193304 635.718859,179.371643 636.189654,159.226607 636.676409,158.204793 637.147205,162.323919 637.633960,151.832795 638.104755,170.741365 638.583531,160.484160 639.070285,178.450603 639.541081,144.681966 640.027836,136.951440 640.498631,139.078468 640.993366,162.071110 641.456182,174.801559 641.934957,151.645004 642.421712,163.331719 642.900487,134.944740 643.371283,163.024454 643.858038,172.933633 644.328833,140.194263 644.815588,157.891894 645.286384,176.106366 645.773138,168.010485 646.251914,139.808273 646.722709,130.640242 647.209464,177.125921 647.688239,159.336060 648.167015,130.770300 648.637810,162.848062 649.124565,129.920803 649.603340,109.005420 650.074136,140.365932 650.560891,145.405296 651.039666,131.237280 651.510462,120.365247 652.005196,141.248013 652.475992,115.067074 652.946787,142.445500 653.425563,127.898760 653.912317,124.798446 654.383113,99.132645 654.869868,123.917355 655.827418,134.099134 656.298214,123.528075 656.784969,135.232981 657.255764,107.926149 657.742519,156.755764 658.221294,109.425110 658.700070,134.445768 659.178845,131.245020 659.657620,111.368700 660.128416,93.137949 660.615170,111.126814 661.085966,104.410353 661.572721,92.391954 662.051496,105.097676 662.522292,111.538761 663.009047,103.179738 663.487822,108.172080 663.966597,109.882544 664.445372,103.466934 664.924148,105.034800 665.394943,88.699464 665.889678,93.240714 666.360473,100.789607 666.831269,106.984231 667.318024,96.084240 667.796799,116.810694 668.267595,87.243295 668.754349,114.482675 669.233125,85.855004 669.703920,76.688821 670.190675,101.636813 670.661471,110.061864 671.148225,104.278743 671.627001,84.351456 672.097796,92.611444 672.584551,102.236398 673.063326,70.973640 673.534122,66.552569 674.020877,86.035003 674.491672,88.023777 674.978427,92.543709 675.457203,109.472400 675.935978,75.243206 676.414753,86.178612 676.893528,102.785040 677.372303,105.457920 677.851079,89.601680 678.329854,75.150918 678.800650,66.253464 679.287404,44.641408 679.758200,80.132203 680.236975,88.571820 680.723730,77.543843 681.202505,103.820318 681.681280,83.463420 682.152076,65.684115 682.630851,79.282196 683.125586,57.680731 683.596381,65.691986 684.067177,72.122746 684.545952,56.319938 685.024727,53.610240 685.511482,82.269049 685.990257,55.240982 686.469033,99.434136 686.963767,91.459839 687.418604,78.444505 687.905358,56.608463 688.392113,79.609534 688.862909,74.027573 689.333704,78.513285 689.820459,77.943785 690.299235,71.262600 690.778010,88.681136 691.256785,106.641882 691.735560,98.435160 692.206356,97.208217 692.693111,112.076603 693.171886,78.283812 693.650661,99.511020 694.129436,122.405940 694.608212,109.894928 695.086987,99.780630 695.565762,94.100760 696.044537,75.303320 696.523312,103.905018 697.002088,87.596580 697.480863,110.439900 697.959638,85.021664 698.438413,65.171994 698.917189,85.842180 699.387984,69.674807 699.874739,73.621237 700.353514,77.513940 700.832289,90.217860 701.303085,81.570453 701.789840,62.113074 702.268615,102.774720 702.739411,87.904475 703.226166,103.241329 703.704941,115.040040 704.183716,83.115120 704.662491,52.848548 705.141267,91.351770 705.620042,93.951120 706.090837,74.987858 706.577592,97.220624 707.048388,74.928824 707.527163,112.429080 708.013918,108.845089 708.484714,93.613184 708.963489,95.016660 709.450244,77.782387 709.929019,109.151888 710.407794,113.490750 710.886569,109.129260 711.365344,102.552840 711.836140,103.211231 712.322895,95.402433 712.801670,103.540980 713.280445,89.596933 713.759221,75.282085 714.237996,99.908340 714.716771,102.462540 715.195546,80.967452 715.674322,114.469086 716.153097,103.987320 716.623892,150.719166 717.110647,108.770481 717.589422,121.033896 718.068198,137.609880 718.538993,128.629993 719.017768,134.307920 719.504523,124.565231 719.983299,132.447300 720.462074,148.492320 720.940849,164.790878 721.419624,132.565980 721.898399,142.604760 722.377175,147.210060 722.855950,136.797180 723.334725,139.675610 723.813500,166.218468 724.292276,178.188120 724.763071,146.193234 725.249826,157.015296 725.720622,144.028658 726.215356,185.713065 726.686152,176.890861 727.164927,183.987960 727.643702,163.611818 728.122477,168.092580 728.593273,159.359105 729.072048,203.307000 729.558803,187.992374 730.037578,163.439474 730.508374,184.493902 731.019068,184.783406 731.465924,196.726157 731.952679,176.877226 732.423475,214.436605 732.910230,191.767717 733.389005,195.121950 733.859801,172.965763 734.346555,198.140656 734.817351,168.775668 735.304106,184.106058 735.782881,218.690766 736.261656,192.130440 736.732452,204.760108 737.219207,209.486734 737.697982,200.077796 738.168778,216.544849 738.655532,222.599817 739.134308,212.602740 739.605103,206.158556 740.091858,201.980203 740.562654,203.905220 741.049408,216.518969 741.520204,203.894278 742.006959,221.819980 742.485734,224.450100 742.956530,206.525878 743.443285,236.255640 743.922060,239.053932 744.879610,231.449640 745.358386,232.602900 745.829181,230.451661 746.315936,237.939482 746.794711,225.012464 747.273486,225.547374 747.752262,250.688700 748.231037,256.826520 748.709812,244.243860 749.188587,259.225920 749.667363,254.700600 750.138158,244.781079 750.624913,250.401897 751.103688,251.563062 751.582463,245.776380 752.053259,269.799722 752.532034,263.498400 753.010810,270.172860 753.497564,273.106997 753.968360,274.375428 754.455115,255.300936 754.925910,269.164517 755.412665,273.492728 755.891441,284.262240 756.370216,270.015480 756.841011,293.733376 757.327766,295.159652 757.806541,273.188880 758.277337,280.672639 758.764092,295.370536 759.242867,281.842458 759.721642,307.438380 760.192438,296.275769 760.679193,276.230911 761.157968,297.577620 761.636743,294.930540 762.115518,287.925840 762.586314,306.348264 763.073069,300.438079 763.551844,302.210708 764.509395,301.162593 764.988170,298.893420 765.466945,303.470340 766.432475,314.534129 766.895291,313.673172 767.382046,301.983541 767.860821,311.171640 768.331617,307.809681 768.818372,295.069504 769.289167,321.480342 769.767942,330.410442 770.246718,317.501154 770.725493,326.265156 771.212248,333.364800 771.691023,325.206840 772.169798,327.637200 772.640594,338.929729 773.127349,326.898728 773.606124,326.112420 774.563674,346.687751 775.034470,336.550007 775.513245,341.398920 776.000000,331.930997 776,399 Z" />
	<text font-family="Arial,Verdana" font-weight="normal" font-size="14" fill="#000000" text-anchor="middle" x="432" y="449" stroke-width="0">Time</text>
	<text font-family="Arial,Verdana" font-weight="normal" font-size="14" fill="#000000" text-anchor="middle" x="0" y="0" stroke-width="0" transform="rotate(-90),translate(-219.5, 28)">Network Data Rate [Mbps]</text>
	<g xml:space="preserve" stroke-width="0" font-family="monospace" font-weight="normal" font-size="10" fill="#404040">
<rect x="98" y="22" width="166.66666666667" height="165" stroke-width="0" fill="#ffffee" opacity="0.75"/>
		<text x="108" y="43" text-anchor="start">  samples:</text>
		<text x="254.66666666667" y="43" text-anchor="end">1,438     </text>
		<text x="108" y="54" text-anchor="start"> tot data:</text>
		<text x="254.66666666667" y="54" text-anchor="end">760.253 GB  </text>
		<text x="108" y="65" text-anchor="start">      sum:</text>
		<text x="254.66666666667" y="65" text-anchor="end">101.372 Gbps</text>
		<text x="108" y="76" text-anchor="start">      min:</text>
		<text x="254.66666666667" y="76" text-anchor="end">2.071 Mbps</text>
		<text x="108" y="87" text-anchor="start">      max:</text>
		<text x="254.66666666667" y="87" text-anchor="end">183.131 Mbps</text>
		<text x="108" y="98" text-anchor="start">    range:</text>
		<text x="254.66666666667" y="98" text-anchor="end">181.060 Mbps</text>
		<text x="108" y="109" text-anchor="start">     mean:</text>
		<text x="254.66666666667" y="109" text-anchor="end">70.495 Mbps</text>
		<text x="108" y="120" text-anchor="start">   median:</text>
		<text x="254.66666666667" y="120" text-anchor="end">79.508 Mbps</text>
		<text x="108" y="131" text-anchor="start">     mode:</text>
		<text x="254.66666666667" y="131" text-anchor="end">5.520 Mbps</text>
		<text x="108" y="142" text-anchor="start">   stddev:</text>
		<text x="254.66666666667" y="142" text-anchor="end">51.904 Mbps</text>
		<text x="108" y="153" text-anchor="start"> skewness:</text>
		<text x="254.66666666667" y="153" text-anchor="end">0.173     </text>
		<text x="108" y="164" text-anchor="start"> kurtosis:</text>
		<text x="254.66666666667" y="164" text-anchor="end">1.815     </text>
	</g>
</svg>
