<?xml version="1.0" standalone="no"?>
<!DOCTYPE svg PUBLIC "-//W3C//DTD SVG 1.1//EN" "http://www.w3.org/Graphics/SVG/1.1/DTD/svg11.dtd">
<svg width="1024" height="589" version="1.1" xmlns="http://www.w3.org/2000/svg">
<desc>netsgraph - network SVG graph</desc>
<g stroke-width="1" stroke="#cccccc" text-anchor="middle" font-family="Arial,Verdana" font-weight="normal" font-size="12" fill="#808080">
	<line x1="88.000000" y1="12" x2="88.000000" y2="529" />
	<text x="88.000000" y="549" stroke-width="0">0</text>
	<line x1="133.600000" y1="12" x2="133.600000" y2="529" />
	<text x="133.600000" y="549" stroke-width="0">5</text>
	<line x1="179.200000" y1="12" x2="179.200000" y2="529" />
	<text x="179.200000" y="549" stroke-width="0">10</text>
	<line x1="224.800000" y1="12" x2="224.800000" y2="529" />
	<text x="224.800000" y="549" stroke-width="0">15</text>
	<line x1="270.400000" y1="12" x2="270.400000" y2="529" />
	<text x="270.400000" y="549" stroke-width="0">20</text>
	<line x1="316.000000" y1="12" x2="316.000000" y2="529" />
	<text x="316.000000" y="549" stroke-width="0">25</text>
	<line x1="361.600000" y1="12" x2="361.600000" y2="529" />
	<text x="361.600000" y="549" stroke-width="0">30</text>
	<line x1="407.200000" y1="12" x2="407.200000" y2="529" />
	<text x="407.200000" y="549" stroke-width="0">35</text>
	<line x1="452.800000" y1="12" x2="452.800000" y2="529" />
	<text x="452.800000" y="549" stroke-width="0">40</text>
	<line x1="498.400000" y1="12" x2="498.400000" y2="529" />
	<text x="498.400000" y="549" stroke-width="0">45</text>
	<line x1="544.000000" y1="12" x2="544.000000" y2="529" />
	<text x="544.000000" y="549" stroke-width="0">50</text>
	<line x1="589.600000" y1="12" x2="589.600000" y2="529" />
	<text x="589.600000" y="549" stroke-width="0">55</text>
	<line x1="635.200000" y1="12" x2="635.200000" y2="529" />
	<text x="635.200000" y="549" stroke-width="0">60</text>
	<line x1="680.800000" y1="12" x2="680.800000" y2="529" />
	<text x="680.800000" y="549" stroke-width="0">65</text>
	<line x1="726.400000" y1="12" x2="726.400000" y2="529" />
	<text x="726.400000" y="549" stroke-width="0">70</text>
	<line x1="772.000000" y1="12" x2="772.000000" y2="529" />
	<text x="772.000000" y="549" stroke-width="0">75</text>
	<line x1="817.600000" y1="12" x2="817.600000" y2="529" />
	<text x="817.600000" y="549" stroke-width="0">80</text>
	<line x1="863.200000" y1="12" x2="863.200000" y2="529" />
	<text x="863.200000" y="549" stroke-width="0">85</text>
	<line x1="908.800000" y1="12" x2="908.800000" y2="529" />
	<text x="908.800000" y="549" stroke-width="0">90</text>
	<line x1="1000.000000" y1="12" x2="1000.000000" y2="529" />
	<text x="1000.000000" y="549" stroke-width="0">100</text>
</g>
<g stroke-width="1" stroke="#cccccc" text-anchor="middle" font-family="Arial,Verdana" font-weight="normal" font-size="12" fill="#808080">
	<line x1="84" y1="525.000000" x2="1000" y2="525.000000" />
	<text x="70" y="529" stroke-width="0">0</text>
	<line x1="84" y1="460.875000" x2="1000" y2="460.875000" />
	<text x="70" y="464.875" stroke-width="0">25</text>
	<line x1="84" y1="396.750000" x2="1000" y2="396.750000" />
	<text x="70" y="400.75" stroke-width="0">50</text>
	<line x1="84" y1="332.625000" x2="1000" y2="332.625000" />
	<text x="70" y="336.625" stroke-width="0">75</text>
	<line x1="84" y1="268.500000" x2="1000" y2="268.500000" />
	<text x="70" y="272.5" stroke-width="0">100</text>
	<line x1="84" y1="204.375000" x2="1000" y2="204.375000" />
	<text x="70" y="208.375" stroke-width="0">125</text>
	<line x1="84" y1="140.250000" x2="1000" y2="140.250000" />
	<text x="70" y="144.25" stroke-width="0">150</text>
	<line x1="84" y1="76.125000" x2="1000" y2="76.125000" />
	<text x="70" y="80.125" stroke-width="0">175</text>
	<line x1="84" y1="12.000000" x2="1000" y2="12.000000" />
	<text x="70" y="16" stroke-width="0">200</text>
</g>
<polyline fill="none" stroke="#0000ff" stroke-width="1" points=" 88.000000,519.687338 88.634656,518.652256 89.269311,518.625120 89.903967,517.885279 90.538622,517.804088 91.173278,517.605960 91.807933,517.571064 92.442589,517.562341 93.077244,517.473681 93.711900,517.365887 94.346555,516.879210 94.981211,516.787896 95.615866,516.731449 96.250522,516.684354 96.885177,516.214658 97.519833,516.108000 98.154489,516.101384 98.789144,516.101160 99.423800,516.089451 100.058455,515.958888 100.693111,515.954100 101.327766,515.934264 101.962422,515.878860 102.597077,515.837988 103.231733,515.502660 103.866388,515.311140 104.501044,515.273520 105.135699,515.266680 105.770355,515.224828 106.405010,515.180675 107.039666,515.112142 107.674322,515.092260 108.308977,515.045713 108.943633,515.036026 109.578288,514.983846 110.212944,514.972111 110.847599,514.871193 111.482255,514.834050 112.116910,514.793823 112.751566,514.695540 113.386221,514.644240 114.020877,514.592534 114.655532,514.548480 115.290188,514.538278 115.924843,514.507440 116.559499,514.486108 117.194154,514.434594 117.828810,514.392203 118.463466,514.329600 119.098121,514.294820 119.732777,514.205134 120.367432,514.182540 121.002088,514.156397 121.636743,514.080669 122.271399,514.045740 122.906054,513.961979 123.540710,513.960924 124.175365,513.912244 124.810021,513.814918 125.444676,513.734868 126.079332,513.720840 126.713987,513.611400 127.348643,513.577200 127.983299,513.565987 128.617954,513.518892 129.252610,513.481440 129.887265,513.480976 130.521921,513.471180 131.156576,513.460920 131.791232,513.448249 132.425887,513.399360 133.060543,513.338380 133.695198,513.305652 134.329854,513.296418 134.964509,513.173982 135.599165,513.139440 136.233820,513.080274 136.868476,513.028841 137.503132,513.014929 138.137787,512.992380 138.772443,512.880679 139.407098,512.867634 140.041754,512.795817 140.676409,512.770428 141.311065,512.752980 141.945720,512.732460 142.580376,512.719302 143.215031,512.705100 143.849687,512.700996 144.484342,512.691364 145.118998,512.674088 145.753653,512.620968 146.388309,512.617397 147.022965,512.595660 147.657620,512.561460 148.292276,512.528014 148.926931,512.432868 149.561587,512.385246 150.196242,512.378518 150.830898,512.373360 151.465553,512.369940 152.100209,512.346000 152.734864,512.308885 153.369520,512.284328 154.004175,512.270076 154.638831,512.256744 155.273486,512.223564 155.908142,512.044576 156.542797,512.040252 157.177453,511.957488 157.812109,511.932180 158.446764,511.918500 159.081420,511.894111 159.716075,511.863780 160.350731,511.863780 160.985386,511.847016 161.620042,511.844970 162.254697,511.843260 162.889353,511.833000 163.524008,511.797641 164.158664,511.766339 164.793319,511.747500 165.427975,511.713300 166.062630,511.644900 166.697286,511.566240 167.331942,511.564446 167.966597,511.520715 168.601253,511.512447 169.235908,511.497840 169.870564,511.374720 170.505219,511.367880 171.139875,511.334376 171.774530,511.322243 172.409186,511.241340 173.043841,511.231080 173.678497,511.142160 174.313152,511.126393 174.947808,511.070746 175.582463,511.039560 176.217119,511.022460 176.851775,511.015620 177.486430,510.990405 178.121086,510.925298 178.755741,510.884931 179.390397,510.880117 180.025052,510.847928 180.659708,510.841200 181.294363,510.841200 181.929019,510.834360 182.563674,510.764685 183.198330,510.745782 183.832985,510.735180 184.467641,510.656868 185.102296,510.533400 185.736952,510.492360 186.371608,510.352140 187.006263,510.240101 187.640919,510.239280 188.275574,510.239056 188.910230,510.218644 189.544885,510.202052 190.179541,510.149085 190.814196,510.084315 191.448852,510.061440 192.083507,510.056994 192.718163,510.003300 193.352818,509.804940 193.987474,509.771469 194.622129,509.713968 195.256785,509.640780 195.891441,509.564786 196.526096,509.562905 197.160752,509.551860 197.795407,509.515810 198.430063,509.432624 199.064718,509.404800 199.699374,509.322720 200.334029,509.229629 200.968685,509.229387 201.603340,509.168820 202.237996,509.155140 202.872651,509.154386 203.507307,509.094367 204.141962,509.069640 204.776618,509.054951 205.411273,509.052540 206.045929,509.018340 206.680585,508.943100 207.315240,508.930485 207.949896,508.838731 208.584551,508.793988 209.219207,508.720800 209.853862,508.701738 210.488518,508.676340 211.123173,508.642140 211.757829,508.588104 212.392484,508.580636 213.027140,508.447200 213.661795,508.440360 214.296451,508.416420 214.931106,508.363068 215.565762,508.334340 216.200418,508.323153 216.835073,508.318249 217.469729,508.270983 218.104384,508.118880 218.739040,508.051871 219.373695,508.026540 220.008351,507.980167 220.643006,507.941489 221.277662,507.612720 221.912317,507.517633 222.546973,507.479340 223.181628,507.352800 223.816284,507.349380 224.450939,507.263880 225.085595,507.223072 225.720251,507.071085 226.354906,507.010800 226.989562,506.898282 227.624217,506.846640 228.258873,506.713260 228.893528,506.685031 229.528184,506.661960 230.162839,506.648512 230.797495,506.538956 231.432150,506.453340 232.066806,506.443080 232.701461,506.389403 233.336117,506.326800 233.970772,506.316540 234.605428,506.309700 235.240084,506.210307 235.874739,506.159220 236.509395,506.105528 237.144050,505.960860 237.778706,505.923240 238.413361,505.876033 239.048017,505.808583 239.682672,505.794671 240.317328,505.776180 240.951983,505.587567 241.586639,505.499044 242.221294,505.499044 242.855950,505.488900 243.490605,505.434180 244.125261,505.345260 244.759916,505.314256 245.394572,505.311060 246.029228,505.227803 246.663883,505.203246 247.298539,505.021593 247.933194,504.806302 248.567850,504.733080 249.202505,504.640740 249.837161,504.619119 250.471816,504.606540 251.106472,504.541560 251.741127,504.490363 252.375783,504.452640 253.010438,504.372354 253.645094,504.308439 254.279749,504.052500 254.914405,503.908860 255.549061,503.898600 256.183716,503.884584 256.818372,503.881220 257.453027,503.843532 258.087683,503.837040 258.722338,503.659200 259.356994,503.642380 259.991649,503.468260 260.626305,503.450870 261.260960,503.435567 261.895616,503.416380 262.530271,503.259234 263.164927,503.191613 263.799582,502.986413 264.434238,502.660560 265.068894,502.089420 265.703549,501.921840 266.338205,501.896498 266.972860,501.885437 267.607516,501.699540 268.242171,501.456720 268.876827,501.398580 269.511482,501.337020 270.146138,501.266707 270.780793,501.111300 271.415449,501.092182 272.050104,501.057606 272.684760,501.037998 273.319415,501.033336 273.954071,500.842047 274.588727,500.793240 275.223382,500.768274 275.858038,500.702302 276.492693,500.526480 277.127349,500.255571 277.762004,499.962236 278.396660,499.798658 279.031315,499.673610 279.665971,499.265229 280.300626,499.045620 280.935282,498.919080 281.569937,498.913361 282.204593,498.809640 282.839248,498.750948 283.473904,498.659160 284.108559,498.535928 284.743215,498.423572 285.377871,498.361962 286.012526,498.292698 286.647182,498.228240 287.281837,498.095252 287.916493,498.013806 288.551148,497.816130 289.185804,496.648200 289.820459,496.514820 290.455115,496.500550 291.089770,496.429320 291.724426,495.844780 292.359081,495.811326 292.993737,495.782940 293.628392,495.757318 294.263048,495.697440 294.897704,495.582393 295.532359,495.479024 296.167015,495.475966 296.801670,495.464880 297.436326,495.339905 298.070981,495.222452 298.705637,495.141718 299.340292,494.839020 299.974948,494.672466 300.609603,494.646474 301.244259,494.440248 301.878914,494.302776 302.513570,493.939560 303.148225,493.576576 303.782881,493.546260 304.417537,493.477916 305.052192,493.456387 305.686848,493.159800 306.321503,493.142700 306.956159,492.738386 307.590814,492.663900 308.225470,492.215095 308.860125,492.060183 309.494781,491.569500 310.129436,491.493275 310.764092,491.148956 311.398747,491.127199 312.033403,491.087280 312.668058,490.787247 313.302714,490.728236 313.937370,490.701162 314.572025,490.623954 315.206681,490.533240 315.841336,490.372500 316.475992,490.013400 317.110647,489.896888 317.745303,489.842400 318.379958,489.575640 319.014614,488.850600 319.649269,488.823240 320.283925,488.723331 320.918580,488.656052 321.553236,488.498746 322.187891,487.571178 322.822547,487.471355 323.457203,487.313959 324.091858,486.933661 324.726514,486.910776 325.361169,486.667969 325.995825,486.613236 326.630480,486.300671 327.265136,486.018055 327.899791,485.871780 328.534447,485.789700 329.169102,485.782860 329.803758,485.536620 330.438413,485.208300 331.073069,485.080190 331.707724,483.772190 332.342380,483.657417 332.977035,483.395016 333.611691,483.351240 334.246347,483.166111 334.881002,482.697498 335.515658,482.509920 336.150313,482.250000 336.784969,481.658340 337.419624,481.121400 338.054280,480.969193 338.688935,480.875044 339.323591,480.643161 339.958246,480.475020 340.592902,480.276660 341.227557,479.765174 341.862213,479.048656 342.496868,479.045292 343.131524,478.867003 343.766180,478.652160 344.400835,478.602667 345.035491,478.436700 345.670146,478.096149 346.304802,477.691140 346.939457,477.345720 347.574113,477.056237 348.208768,476.746194 348.843424,476.670354 349.478079,476.322490 350.112735,476.265000 350.747390,476.256305 351.382046,475.745160 352.016701,475.437360 352.651357,475.358700 353.286013,475.287777 353.920668,475.099397 354.555324,474.999600 355.189979,474.978054 355.824635,474.483180 356.459290,474.436702 357.093946,473.628180 357.728601,473.529000 358.363257,473.435675 358.997912,473.032231 359.632568,472.947600 360.267223,472.075790 360.901879,471.996840 361.536534,471.466740 362.171190,471.414072 362.805846,471.395262 363.440501,471.216732 364.075157,470.857980 364.709812,470.515980 365.344468,469.968780 365.979123,469.961534 366.613779,469.650720 367.248434,469.568640 367.883090,469.154820 368.517745,469.125049 369.152401,468.798389 369.787056,468.465690 370.421712,467.992658 371.056367,467.718420 371.691023,467.622660 372.325678,465.836394 372.960334,465.560400 373.594990,465.469428 374.229645,465.413340 374.864301,464.732324 375.498956,464.667722 376.133612,464.264220 376.768267,463.683212 377.402923,463.265751 378.037578,462.858600 378.672234,462.706752 379.306889,461.959140 379.941545,460.987692 380.576200,460.009740 381.210856,459.397218 381.845511,459.354502 382.480167,459.206040 383.114823,458.696460 383.749478,458.231340 384.384134,458.118712 385.018789,456.336660 385.653445,456.268260 386.288100,456.216960 386.922756,455.702951 387.557411,455.655856 388.192067,454.498662 388.826722,453.590400 389.461378,452.424180 390.096033,452.417340 390.730689,451.607612 391.365344,451.169040 392.000000,451.063020 392.634656,451.027139 393.269311,450.714180 393.903967,450.702552 394.538622,450.673196 395.173278,450.526080 395.807933,449.986645 396.442589,449.876280 397.077244,449.298300 397.711900,448.645080 398.346555,447.354407 398.981211,447.286387 399.615866,447.279659 400.250522,446.237400 400.885177,446.219958 401.519833,445.725426 402.154489,445.698792 402.789144,445.371966 403.423800,444.503460 404.058455,442.359120 404.693111,442.217451 405.327766,441.102954 405.962422,439.985640 406.597077,438.913455 407.231733,438.839548 407.866388,438.651840 408.501044,438.614220 409.135699,438.458268 409.770355,438.049920 410.405010,437.995200 411.039666,437.734353 411.674322,437.550600 412.308977,437.449026 412.943633,437.191790 413.578288,437.154228 414.212944,436.094577 414.847599,435.337860 415.482255,434.886420 416.116910,434.794080 416.751566,434.078958 417.386221,432.860070 418.020877,432.088860 418.655532,430.543020 419.290188,430.402800 419.924843,429.814111 420.559499,429.423895 421.194154,429.178440 421.828810,428.772043 422.463466,428.635993 423.098121,428.584044 423.732777,428.381580 424.367432,428.058651 425.002088,427.646280 425.636743,427.474353 426.271399,427.181160 426.906054,425.744760 427.540710,425.182373 428.175365,423.563826 428.810021,422.241384 429.444676,420.607920 430.079332,420.173075 430.713987,416.966646 431.348643,416.936115 431.983299,414.301440 432.617954,413.807250 433.252610,413.579136 433.887265,413.033613 434.521921,412.306942 435.156576,411.892345 435.791232,411.601692 436.425887,411.042180 437.060543,408.576360 437.695198,405.993133 438.329854,405.426540 438.964509,404.927220 439.599165,404.119810 440.233820,403.627620 440.868476,402.182583 441.503132,400.553040 442.137787,399.915462 442.772443,398.548108 443.407098,398.367660 444.041754,397.543440 444.676409,397.031715 445.311065,396.809821 445.945720,396.697915 446.580376,396.586536 447.215031,396.514020 447.849687,396.396787 448.484342,396.015317 449.118998,395.368320 449.753653,395.360695 450.388309,395.308554 451.022965,394.348151 451.657620,392.801077 452.292276,392.300580 452.926931,392.274246 453.561587,392.121613 454.196242,391.818472 454.830898,391.267740 455.465553,390.556380 456.100209,388.830671 456.734864,388.797659 457.369520,387.633105 458.004175,387.630710 458.638831,387.351167 459.273486,387.231668 459.908142,387.047460 460.542797,385.460522 461.177453,385.258800 461.812109,384.933900 462.446764,384.007080 463.081420,383.859403 463.716075,383.459880 464.350731,380.055763 464.985386,379.186271 465.620042,378.901020 466.254697,378.316780 466.889353,378.162300 467.524008,377.762160 468.158664,376.130820 468.793319,375.406363 469.427975,375.338557 470.062630,374.725200 470.697286,374.365810 471.331942,372.905760 471.966597,370.783355 472.601253,370.726267 473.235908,370.528570 473.870564,369.698142 474.505219,369.522315 475.139875,368.147452 475.774530,368.146062 476.409186,368.136228 477.043841,368.069880 477.678497,367.844160 478.313152,367.446397 478.947808,365.751344 479.582463,364.889622 480.217119,363.444997 480.851775,362.630535 481.486430,362.259580 482.121086,360.822900 482.755741,360.409080 483.390397,360.265440 484.025052,360.251311 484.659708,359.799986 485.294363,359.483593 485.929019,359.312437 486.563674,358.629895 487.198330,358.273290 487.832985,358.227120 488.467641,358.118577 489.102296,357.765283 489.736952,357.213873 490.371608,356.462400 491.006263,355.713028 491.640919,355.191954 492.275574,355.102950 492.910230,354.229140 493.544885,354.020520 494.179541,353.734515 494.814196,352.892500 495.448852,351.908754 496.083507,349.745288 496.718163,349.498059 497.352818,348.966224 497.987474,348.897259 498.622129,348.671988 499.256785,348.120628 499.891441,348.093254 500.526096,347.492917 501.160752,347.154203 501.795407,347.129858 502.430063,346.889820 503.064718,346.752498 503.699374,346.601755 504.334029,345.422640 504.968685,345.381600 505.603340,344.992505 506.237996,344.263260 506.872651,344.197932 507.507307,343.863120 508.141962,343.507440 508.776618,342.729331 509.411273,341.657220 510.045929,341.527260 510.680585,341.432526 511.315240,341.300071 511.949896,340.720308 512.584551,340.190040 513.219207,340.065587 513.853862,339.718080 514.488518,339.358980 515.123173,339.202002 515.757829,339.055867 516.392484,337.961939 517.027140,337.211220 517.661795,336.961560 518.296451,336.537480 518.931106,335.193420 519.565762,335.103816 520.200418,334.515195 520.835073,333.939648 521.469729,333.729660 522.104384,333.719400 522.739040,333.332940 523.373695,332.799420 524.008351,332.654563 524.643006,332.501532 525.277662,332.474520 525.912317,331.807564 526.546973,331.352760 527.181628,330.626908 527.816284,330.278880 528.450939,330.167646 529.085595,329.560338 529.720251,328.595776 530.354906,328.401300 530.989562,328.021119 531.624217,327.471060 532.258873,326.670890 532.893528,326.140338 533.528184,326.093921 534.162839,325.628376 534.797495,325.200180 535.432150,325.066800 536.066806,324.878358 536.701461,324.536420 537.336117,324.156295 537.970772,323.888427 538.605428,323.769443 539.240084,323.641344 539.874739,323.375349 540.509395,322.597560 541.144050,322.596633 541.778706,321.889620 542.413361,321.726793 543.048017,321.186869 543.682672,321.153010 544.317328,320.971624 544.951983,320.863861 545.586639,320.596860 546.221294,320.570267 546.855950,320.299320 547.490605,320.270951 548.125261,320.203560 548.759916,320.107800 549.394572,319.858140 550.029228,319.690560 550.663883,319.629344 551.298539,319.580436 551.933194,319.187764 552.567850,319.130492 553.202505,319.003140 553.837161,318.241826 554.471816,318.035861 555.106472,317.986839 555.741127,317.448072 556.375783,317.361946 557.010438,317.170020 557.645094,317.018755 558.279749,316.674905 558.914405,316.267869 559.549061,316.215840 560.183716,316.089300 560.818372,315.706602 561.453027,315.532765 562.087683,315.333480 562.722338,315.121440 563.356994,314.740110 563.991649,314.695041 564.626305,314.639725 565.260960,313.917944 565.895616,313.884579 566.530271,312.978468 567.164927,312.914514 567.799582,312.768480 568.434238,312.718077 569.068894,312.451058 569.703549,312.318408 570.338205,311.903220 570.972860,311.824293 571.607516,311.550264 572.242171,311.501174 572.876827,310.843020 573.511482,309.903305 574.146138,309.765720 574.780793,309.601560 575.415449,309.580450 576.050104,309.269104 576.684760,308.979120 577.319415,308.760936 577.954071,308.613180 578.588727,308.284860 579.223382,307.782120 579.858038,307.117956 580.492693,307.033140 581.127349,306.998495 581.762004,306.992100 582.396660,306.945298 583.031315,306.815628 583.665971,306.468840 584.300626,306.465420 584.935282,306.434640 585.569937,306.245514 586.204593,305.894863 586.839248,305.894280 587.473904,305.781420 588.108559,305.649946 588.743215,305.564685 589.377871,305.557102 590.012526,305.161241 590.647182,304.964040 591.281837,304.946940 591.916493,304.728060 592.551148,304.586752 593.185804,304.430184 593.820459,304.427100 594.455115,304.298990 595.089770,304.190888 595.724426,304.112460 596.359081,303.473381 596.993737,303.434459 597.628392,303.181194 598.263048,302.898360 598.897704,302.884680 599.532359,302.768400 600.167015,302.484540 600.801670,302.368260 601.436326,302.245140 602.070981,302.043360 602.705637,301.575458 603.340292,301.410660 603.974948,301.215720 604.609603,300.539451 605.244259,300.521628 605.878914,300.417492 606.513570,300.417010 607.148225,300.151259 607.782881,300.111778 608.417537,300.064890 609.052192,299.943146 609.686848,299.901556 610.321503,299.868240 610.956159,299.297100 611.590814,298.982460 612.225470,298.938684 612.860125,298.351554 613.494781,298.083000 614.129436,297.846964 614.764092,297.846382 615.398747,297.830144 616.033403,297.537818 616.668058,297.135660 617.302714,297.120183 617.937370,296.949763 618.572025,296.772386 619.206681,296.624411 619.841336,296.245092 620.475992,296.202696 621.110647,296.135919 621.745303,296.062881 622.379958,296.010480 623.014614,295.945500 623.649269,295.833819 624.283925,295.324428 624.918580,295.314771 625.553236,295.227300 626.187891,295.169272 626.822547,295.074426 627.457203,294.900157 628.091858,294.853062 628.726514,294.396240 629.361169,294.365359 629.995825,294.269700 630.630480,293.846374 631.265136,293.810736 631.899791,293.619900 632.534447,293.614770 633.169102,293.557948 633.803758,293.332620 634.438413,293.216340 635.073069,293.036538 635.707724,292.813363 636.342380,292.783159 636.977035,292.576800 637.611691,292.518492 638.246347,292.504980 638.881002,292.472127 639.515658,292.255320 640.150313,292.059937 640.784969,291.553043 641.419624,291.167199 642.054280,290.905058 642.688935,290.765882 643.323591,290.756700 643.958246,290.438173 644.592902,290.316586 645.227557,290.133462 645.862213,290.012210 646.496868,289.935775 647.131524,289.579953 647.766180,289.510393 648.400835,289.497679 649.035491,289.406852 649.670146,289.392780 650.304802,289.193898 650.939457,289.054780 651.574113,288.653959 652.208768,288.336000 652.843424,288.300118 653.478079,287.975874 654.112735,287.842361 654.747390,287.703300 655.382046,287.503572 656.016701,287.502866 656.651357,287.361580 657.286013,287.312736 657.920668,286.941567 658.555324,286.767588 659.189979,286.728600 659.824635,286.192414 660.459290,286.098508 661.093946,285.985434 661.728601,285.211627 662.363257,285.057246 662.997912,285.004920 663.632568,284.838630 664.267223,284.696888 664.901879,284.668633 665.536534,284.502180 666.171190,284.413260 666.805846,284.267809 667.440501,284.032597 668.075157,283.590895 668.709812,283.558260 669.344468,283.378682 669.979123,283.333873 670.613779,283.182060 671.248434,283.140846 671.883090,283.106540 672.517745,282.977382 673.152401,282.933559 673.787056,282.874968 674.421712,282.846610 675.056367,282.689580 675.691023,282.556200 676.325678,282.527681 676.960334,282.523159 677.594990,282.379593 678.229645,282.345281 678.864301,281.726705 679.498956,281.696715 680.133612,281.591760 680.768267,281.315082 681.402923,281.222400 682.037578,280.941960 682.672234,280.924860 683.306889,280.707661 683.941545,280.616651 684.576200,280.572613 685.210856,280.346198 685.845511,280.223311 686.480167,279.416541 687.114823,279.345504 687.749478,279.177240 688.384134,279.091740 689.018789,278.556887 689.653445,278.487422 690.288100,278.250420 690.922756,277.915260 691.557411,277.887900 692.192067,277.590702 692.826722,277.461521 693.461378,277.378320 694.096033,277.362553 694.730689,277.337280 695.365344,276.967920 696.000000,276.812652 696.634656,276.805383 697.269311,276.410460 697.903967,275.552040 698.538622,275.279252 699.173278,274.782540 699.807933,274.719683 700.442589,274.697965 701.077244,274.341601 701.711900,274.320840 702.346555,274.074039 702.981211,273.811260 703.615866,273.784741 704.250522,273.625896 704.885177,273.441620 705.519833,273.349560 706.154489,273.289159 706.789144,273.106740 707.423800,272.906754 708.058455,272.881020 708.693111,272.816040 709.327766,272.767710 709.962422,272.677037 710.597077,272.544426 711.231733,272.515080 711.866388,272.428260 712.501044,272.419894 713.135699,272.279100 713.770355,271.927081 714.405010,271.074288 715.039666,270.669302 715.674322,270.469236 716.308977,270.295500 716.943633,270.131340 717.578288,269.930784 718.212944,269.859885 718.847599,269.372969 719.482255,269.105508 720.116910,269.095422 720.751566,268.633621 721.386221,268.539913 722.020877,268.274280 722.655532,268.260020 723.290188,267.682678 723.924843,267.645000 724.559499,267.519214 725.194154,267.453721 725.828810,267.331403 726.463466,267.258540 727.098121,267.214080 727.732777,267.195367 728.367432,266.966046 729.002088,266.759220 729.636743,266.565738 730.271399,266.385990 730.906054,266.371485 731.540710,265.593000 732.175365,265.175760 732.810021,265.035946 733.444676,264.884376 734.079332,264.483027 734.713987,264.343332 735.348643,263.877954 735.983299,263.834223 736.617954,263.624106 737.252610,263.166719 737.887265,262.597663 738.521921,262.417872 739.156576,261.930180 739.791232,261.789188 740.425887,261.662319 741.060543,261.612120 741.695198,261.369883 742.329854,261.312427 742.964509,261.127938 743.599165,261.097149 744.233820,261.078600 744.868476,260.569020 745.503132,260.073120 746.137787,259.801439 746.772443,259.693500 747.407098,259.147590 748.041754,258.828240 748.676409,258.750309 749.311065,258.744590 749.945720,257.634660 750.580376,257.345670 751.215031,256.869557 751.849687,256.817280 752.484342,256.667261 753.118998,256.601820 753.753653,256.434240 754.388309,255.972366 755.022965,255.739342 755.657620,255.637380 756.292276,255.565902 756.926931,255.285120 757.561587,254.959435 758.196242,254.743050 758.830898,254.559856 759.465553,254.018593 760.100209,253.154460 760.734864,253.106522 761.369520,252.972079 762.004175,252.552540 762.638831,252.190020 763.273486,251.962271 763.908142,251.287546 764.542797,250.928040 765.177453,250.777560 765.812109,250.586040 766.446764,250.583685 767.081420,250.296742 767.716075,250.193469 768.350731,250.138603 768.985386,249.059823 769.620042,248.656151 770.254697,248.595600 770.889353,247.766045 771.524008,247.617480 772.158664,247.478477 772.793319,247.158852 773.427975,246.995040 774.062630,246.841140 774.697286,246.694080 775.331942,246.623593 775.966597,245.292216 776.601253,244.577100 777.235908,244.383043 777.870564,244.076331 778.505219,243.719478 779.139875,242.874346 779.774530,242.463598 780.409186,242.270806 781.043841,242.085453 781.678497,241.541166 782.313152,241.252860 782.947808,241.038469 783.582463,240.867559 784.217119,240.862935 784.851775,240.764484 785.486430,240.755833 786.121086,240.654708 786.755741,240.406626 787.390397,240.140588 788.025052,240.097629 788.659708,239.984040 789.294363,239.953217 789.929019,238.708380 790.563674,238.682085 791.198330,238.629720 791.832985,238.073869 792.467641,237.374580 793.102296,236.127092 793.736952,235.629083 794.371608,235.328237 795.006263,235.149855 795.640919,234.315698 796.275574,233.864737 796.910230,233.195508 797.544885,232.987854 798.179541,232.890960 798.814196,232.821439 799.448852,232.643823 800.083507,232.295880 800.718163,232.203148 801.352818,232.200468 801.987474,231.779460 802.622129,231.758766 803.256785,231.408048 803.891441,231.355262 804.526096,231.164886 805.160752,230.896231 805.795407,230.887849 806.430063,230.878841 807.064718,230.576258 807.699374,230.558184 808.334029,230.409136 808.968685,230.367686 809.603340,229.843740 810.237996,229.686153 810.872651,229.565724 811.507307,229.536346 812.141962,229.040040 812.776618,228.943596 813.411273,228.586918 814.045929,228.408231 814.680585,228.222559 815.315240,228.149607 815.949896,227.806717 816.584551,227.789230 817.219207,227.217180 817.853862,225.957519 818.488518,225.632352 819.123173,225.373220 819.757829,225.365850 820.392484,225.330630 821.027140,224.747940 821.661795,224.529060 822.296451,224.484600 822.931106,223.906620 823.565762,223.701420 824.200418,222.424601 824.835073,222.371736 825.469729,222.117960 826.104384,221.693437 826.739040,221.248353 827.373695,220.226195 828.008351,219.818908 828.643006,219.707614 829.277662,219.554583 829.912317,219.198177 830.546973,219.046939 831.181628,218.913420 831.816284,218.804597 832.450939,218.031827 833.085595,217.948980 833.720251,217.812122 834.354906,217.650767 834.989562,217.503696 835.624217,216.431425 836.258873,216.429132 836.893528,215.702040 837.528184,214.684865 838.162839,214.536745 838.797495,214.341906 839.432150,214.293561 840.066806,214.053600 840.701461,213.970623 841.336117,213.836066 841.970772,213.651049 842.605428,213.429030 843.240084,212.973805 843.874739,212.745349 844.509395,212.602511 845.144050,212.195207 845.778706,211.961385 846.413361,211.314180 847.048017,211.266590 847.682672,210.931471 848.317328,210.698580 848.951983,208.827840 849.586639,208.650013 850.221294,208.282210 850.855950,207.336488 851.490605,207.305940 852.125261,207.160851 852.759916,206.906142 853.394572,206.884353 854.029228,206.509080 854.663883,205.806354 855.298539,205.391581 855.933194,205.161429 856.567850,204.840703 857.202505,204.229579 857.837161,203.892275 858.471816,203.885548 859.106472,203.485684 859.741127,202.788120 860.375783,201.668104 861.010438,200.955000 861.645094,200.178834 862.279749,197.359752 862.914405,197.197788 863.549061,197.110819 864.183716,196.804830 864.818372,196.195593 865.453027,195.900240 866.087683,195.883546 866.722338,195.609540 867.356994,195.329100 867.991649,194.987100 868.626305,192.931680 869.260960,192.545220 869.895616,192.162045 870.530271,191.231940 871.164927,190.072560 871.799582,189.884054 872.434238,188.839579 873.068894,188.772960 873.703549,188.618232 874.338205,187.880746 874.972860,187.730892 875.607516,187.014732 876.242171,185.190383 876.876827,185.127240 877.511482,184.916127 878.146138,184.749430 878.780793,183.755820 879.415449,183.345828 880.050104,183.328761 880.684760,182.829000 881.319415,182.159492 881.954071,181.931930 882.588727,181.420270 883.223382,181.244413 883.858038,180.452854 884.492693,179.509133 885.127349,178.506120 885.762004,177.633304 886.396660,177.428820 887.031315,177.328614 887.665971,175.355347 888.300626,174.973260 888.935282,174.311832 889.569937,174.129103 890.204593,173.852341 890.839248,171.820020 891.473904,171.662700 892.108559,171.537085 892.743215,170.068980 893.377871,170.058720 894.012526,169.639086 894.647182,169.439700 895.281837,169.267297 895.916493,168.313623 896.551148,166.602549 897.185804,165.633240 897.820459,165.084222 898.455115,161.523521 899.089770,161.214376 899.724426,160.519586 900.359081,160.355563 900.993737,160.275066 901.628392,159.839541 902.263048,158.836251 902.897704,158.352060 903.532359,156.533304 904.167015,155.646956 904.801670,153.430579 905.436326,150.935106 906.070981,148.623796 906.705637,148.587960 907.340292,147.849128 907.974948,147.831114 908.609603,146.534250 909.244259,145.126920 909.878914,144.659682 910.513570,143.946730 911.148225,143.721300 911.782881,143.400661 912.417537,143.122800 913.052192,142.490100 913.686848,141.988983 914.321503,141.767695 914.956159,141.751279 915.590814,141.207600 916.225470,141.144913 916.860125,140.782735 917.494781,140.752740 918.129436,140.588580 918.764092,140.376048 919.398747,140.277149 920.033403,140.273548 920.668058,139.483920 921.302714,139.157919 921.937370,137.909329 922.572025,137.455518 923.206681,137.178840 923.841336,135.886080 924.475992,135.408547 925.110647,135.325200 925.745303,134.573484 926.379958,134.497444 927.014614,134.322985 927.649269,133.936680 928.283925,133.827582 928.918580,133.715305 929.553236,133.345020 930.187891,133.246866 930.822547,132.947808 931.457203,132.907911 932.091858,132.866164 932.726514,132.689748 933.361169,132.342960 933.995825,132.329280 934.630480,132.035160 935.265136,131.915460 935.899791,131.746983 936.534447,131.615690 937.169102,130.899720 937.803758,130.820892 938.438413,129.697851 939.073069,128.822715 939.707724,128.529660 940.342380,128.360370 940.977035,128.002980 941.611691,127.901064 942.246347,127.501413 942.881002,126.576840 943.515658,126.251186 944.150313,126.224479 944.784969,126.111294 945.419624,124.966874 946.054280,124.950427 946.688935,124.364100 947.323591,123.460504 947.958246,123.232764 948.592902,122.556714 949.227557,122.045340 949.862213,121.435515 950.496868,120.831240 951.131524,120.632880 951.766180,120.184918 952.400835,119.691179 953.035491,119.554956 953.670146,118.864981 954.304802,118.857031 954.939457,118.767242 955.574113,118.566079 956.208768,117.330484 956.843424,117.187230 957.478079,115.684140 958.112735,115.451580 958.747390,114.867343 959.382046,114.861050 960.016701,113.671383 960.651357,113.647087 961.286013,113.502180 961.920668,112.775704 962.555324,112.617559 963.189979,112.209420 963.824635,112.041739 964.459290,111.741112 965.093946,110.329788 965.728601,110.139423 966.363257,109.900819 966.997912,109.883820 967.632568,108.796159 968.267223,107.907744 968.901879,106.730580 969.536534,106.268880 970.171190,105.147344 970.805846,104.221299 971.440501,103.421971 972.075157,102.314780 972.709812,101.621941 973.344468,101.396945 973.979123,101.188027 974.613779,100.168773 975.248434,100.077600 975.883090,99.864588 976.517745,99.413854 977.152401,99.199908 977.787056,98.883698 978.421712,98.844060 979.056367,97.750298 979.691023,95.913703 980.325678,95.885555 980.960334,95.834017 981.594990,95.711682 982.229645,95.495532 982.864301,95.417278 983.498956,94.542569 984.133612,94.222597 984.768267,93.683966 985.402923,93.238680 986.037578,91.697593 986.672234,90.557400 987.306889,90.174360 987.941545,88.452651 988.576200,86.785140 989.210856,85.737443 989.845511,84.313871 990.480167,83.917383 991.114823,83.173098 991.749478,83.162664 992.384134,82.483806 993.018789,78.428959 993.653445,75.838068 994.288100,72.880345 994.922756,72.553527 995.557411,71.949421 996.192067,71.132149 996.826722,70.749685 997.461378,69.319441 998.096033,67.519816 998.730689,67.157760 999.365344,66.148075 1000.000000,55.268844" />
<path fill="#00ff00" opacity="0.7" stroke-width="0" d="M 88,525 L  88.000000,519.687338 88.634656,518.652256 89.269311,518.625120 89.903967,517.885279 90.538622,517.804088 91.173278,517.605960 91.807933,517.571064 92.442589,517.562341 93.077244,517.473681 93.711900,517.365887 94.346555,516.879210 94.981211,516.787896 95.615866,516.731449 96.250522,516.684354 96.885177,516.214658 97.519833,516.108000 98.154489,516.101384 98.789144,516.101160 99.423800,516.089451 100.058455,515.958888 100.693111,515.954100 101.327766,515.934264 101.962422,515.878860 102.597077,515.837988 103.231733,515.502660 103.866388,515.311140 104.501044,515.273520 105.135699,515.266680 105.770355,515.224828 106.405010,515.180675 107.039666,515.112142 107.674322,515.092260 108.308977,515.045713 108.943633,515.036026 109.578288,514.983846 110.212944,514.972111 110.847599,514.871193 111.482255,514.834050 112.116910,514.793823 112.751566,514.695540 113.386221,514.644240 114.020877,514.592534 114.655532,514.548480 115.290188,514.538278 115.924843,514.507440 116.559499,514.486108 117.194154,514.434594 117.828810,514.392203 118.463466,514.329600 119.098121,514.294820 119.732777,514.205134 120.367432,514.182540 121.002088,514.156397 121.636743,514.080669 122.271399,514.045740 122.906054,513.961979 123.540710,513.960924 124.175365,513.912244 124.810021,513.814918 125.444676,513.734868 126.079332,513.720840 126.713987,513.611400 127.348643,513.577200 127.983299,513.565987 128.617954,513.518892 129.252610,513.481440 129.887265,513.480976 130.521921,513.471180 131.156576,513.460920 131.791232,513.448249 132.425887,513.399360 133.060543,513.338380 133.695198,513.305652 134.329854,513.296418 134.964509,513.173982 135.599165,513.139440 136.233820,513.080274 136.868476,513.028841 137.503132,513.014929 138.137787,512.992380 138.772443,512.880679 139.407098,512.867634 140.041754,512.795817 140.676409,512.770428 141.311065,512.752980 141.945720,512.732460 142.580376,512.719302 143.215031,512.705100 143.849687,512.700996 144.484342,512.691364 145.118998,512.674088 145.753653,512.620968 146.388309,512.617397 147.022965,512.595660 147.657620,512.561460 148.292276,512.528014 148.926931,512.432868 149.561587,512.385246 150.196242,512.378518 150.830898,512.373360 151.465553,512.369940 152.100209,512.346000 152.734864,512.308885 153.369520,512.284328 154.004175,512.270076 154.638831,512.256744 155.273486,512.223564 155.908142,512.044576 156.542797,512.040252 157.177453,511.957488 157.812109,511.932180 158.446764,511.918500 159.081420,511.894111 159.716075,511.863780 160.350731,511.863780 160.985386,511.847016 161.620042,511.844970 162.254697,511.843260 162.889353,511.833000 163.524008,511.797641 164.158664,511.766339 164.793319,511.747500 165.427975,511.713300 166.062630,511.644900 166.697286,511.566240 167.331942,511.564446 167.966597,511.520715 168.601253,511.512447 169.235908,511.497840 169.870564,511.374720 170.505219,511.367880 171.139875,511.334376 171.774530,511.322243 172.409186,511.241340 173.043841,511.231080 173.678497,511.142160 174.313152,511.126393 174.947808,511.070746 175.582463,511.039560 176.217119,511.022460 176.851775,511.015620 177.486430,510.990405 178.121086,510.925298 178.755741,510.884931 179.390397,510.880117 180.025052,510.847928 180.659708,510.841200 181.294363,510.841200 181.929019,510.834360 182.563674,510.764685 183.198330,510.745782 183.832985,510.735180 184.467641,510.656868 185.102296,510.533400 185.736952,510.492360 186.371608,510.352140 187.006263,510.240101 187.640919,510.239280 188.275574,510.239056 188.910230,510.218644 189.544885,510.202052 190.179541,510.149085 190.814196,510.084315 191.448852,510.061440 192.083507,510.056994 192.718163,510.003300 193.352818,509.804940 193.987474,509.771469 194.622129,509.713968 195.256785,509.640780 195.891441,509.564786 196.526096,509.562905 197.160752,509.551860 197.795407,509.515810 198.430063,509.432624 199.064718,509.404800 199.699374,509.322720 200.334029,509.229629 200.968685,509.229387 201.603340,509.168820 202.237996,509.155140 202.872651,509.154386 203.507307,509.094367 204.141962,509.069640 204.776618,509.054951 205.411273,509.052540 206.045929,509.018340 206.680585,508.943100 207.315240,508.930485 207.949896,508.838731 208.584551,508.793988 209.219207,508.720800 209.853862,508.701738 210.488518,508.676340 211.123173,508.642140 211.757829,508.588104 212.392484,508.580636 213.027140,508.447200 213.661795,508.440360 214.296451,508.416420 214.931106,508.363068 215.565762,508.334340 216.200418,508.323153 216.835073,508.318249 217.469729,508.270983 218.104384,508.118880 218.739040,508.051871 219.373695,508.026540 220.008351,507.980167 220.643006,507.941489 221.277662,507.612720 221.912317,507.517633 222.546973,507.479340 223.181628,507.352800 223.816284,507.349380 224.450939,507.263880 225.085595,507.223072 225.720251,507.071085 226.354906,507.010800 226.989562,506.898282 227.624217,506.846640 228.258873,506.713260 228.893528,506.685031 229.528184,506.661960 230.162839,506.648512 230.797495,506.538956 231.432150,506.453340 232.066806,506.443080 232.701461,506.389403 233.336117,506.326800 233.970772,506.316540 234.605428,506.309700 235.240084,506.210307 235.874739,506.159220 236.509395,506.105528 237.144050,505.960860 237.778706,505.923240 238.413361,505.876033 239.048017,505.808583 239.682672,505.794671 240.317328,505.776180 240.951983,505.587567 241.586639,505.499044 242.221294,505.499044 242.855950,505.488900 243.490605,505.434180 244.125261,505.345260 244.759916,505.314256 245.394572,505.311060 246.029228,505.227803 246.663883,505.203246 247.298539,505.021593 247.933194,504.806302 248.567850,504.733080 249.202505,504.640740 249.837161,504.619119 250.471816,504.606540 251.106472,504.541560 251.741127,504.490363 252.375783,504.452640 253.010438,504.372354 253.645094,504.308439 254.279749,504.052500 254.914405,503.908860 255.549061,503.898600 256.183716,503.884584 256.818372,503.881220 257.453027,503.843532 258.087683,503.837040 258.722338,503.659200 259.356994,503.642380 259.991649,503.468260 260.626305,503.450870 261.260960,503.435567 261.895616,503.416380 262.530271,503.259234 263.164927,503.191613 263.799582,502.986413 264.434238,502.660560 265.068894,502.089420 265.703549,501.921840 266.338205,501.896498 266.972860,501.885437 267.607516,501.699540 268.242171,501.456720 268.876827,501.398580 269.511482,501.337020 270.146138,501.266707 270.780793,501.111300 271.415449,501.092182 272.050104,501.057606 272.684760,501.037998 273.319415,501.033336 273.954071,500.842047 274.588727,500.793240 275.223382,500.768274 275.858038,500.702302 276.492693,500.526480 277.127349,500.255571 277.762004,499.962236 278.396660,499.798658 279.031315,499.673610 279.665971,499.265229 280.300626,499.045620 280.935282,498.919080 281.569937,498.913361 282.204593,498.809640 282.839248,498.750948 283.473904,498.659160 284.108559,498.535928 284.743215,498.423572 285.377871,498.361962 286.012526,498.292698 286.647182,498.228240 287.281837,498.095252 287.916493,498.013806 288.551148,497.816130 289.185804,496.648200 289.820459,496.514820 290.455115,496.500550 291.089770,496.429320 291.724426,495.844780 292.359081,495.811326 292.993737,495.782940 293.628392,495.757318 294.263048,495.697440 294.897704,495.582393 295.532359,495.479024 296.167015,495.475966 296.801670,495.464880 297.436326,495.339905 298.070981,495.222452 298.705637,495.141718 299.340292,494.839020 299.974948,494.672466 300.609603,494.646474 301.244259,494.440248 301.878914,494.302776 302.513570,493.939560 303.148225,493.576576 303.782881,493.546260 304.417537,493.477916 305.052192,493.456387 305.686848,493.159800 306.321503,493.142700 306.956159,492.738386 307.590814,492.663900 308.225470,492.215095 308.860125,492.060183 309.494781,491.569500 310.129436,491.493275 310.764092,491.148956 311.398747,491.127199 312.033403,491.087280 312.668058,490.787247 313.302714,490.728236 313.937370,490.701162 314.572025,490.623954 315.206681,490.533240 315.841336,490.372500 316.475992,490.013400 317.110647,489.896888 317.745303,489.842400 318.379958,489.575640 319.014614,488.850600 319.649269,488.823240 320.283925,488.723331 320.918580,488.656052 321.553236,488.498746 322.187891,487.571178 322.822547,487.471355 323.457203,487.313959 324.091858,486.933661 324.726514,486.910776 325.361169,486.667969 325.995825,486.613236 326.630480,486.300671 327.265136,486.018055 327.899791,485.871780 328.534447,485.789700 329.169102,485.782860 329.803758,485.536620 330.438413,485.208300 331.073069,485.080190 331.707724,483.772190 332.342380,483.657417 332.977035,483.395016 333.611691,483.351240 334.246347,483.166111 334.881002,482.697498 335.515658,482.509920 336.150313,482.250000 336.784969,481.658340 337.419624,481.121400 338.054280,480.969193 338.688935,480.875044 339.323591,480.643161 339.958246,480.475020 340.592902,480.276660 341.227557,479.765174 341.862213,479.048656 342.496868,479.045292 343.131524,478.867003 343.766180,478.652160 344.400835,478.602667 345.035491,478.436700 345.670146,478.096149 346.304802,477.691140 346.939457,477.345720 347.574113,477.056237 348.208768,476.746194 348.843424,476.670354 349.478079,476.322490 350.112735,476.265000 350.747390,476.256305 351.382046,475.745160 352.016701,475.437360 352.651357,475.358700 353.286013,475.287777 353.920668,475.099397 354.555324,474.999600 355.189979,474.978054 355.824635,474.483180 356.459290,474.436702 357.093946,473.628180 357.728601,473.529000 358.363257,473.435675 358.997912,473.032231 359.632568,472.947600 360.267223,472.075790 360.901879,471.996840 361.536534,471.466740 362.171190,471.414072 362.805846,471.395262 363.440501,471.216732 364.075157,470.857980 364.709812,470.515980 365.344468,469.968780 365.979123,469.961534 366.613779,469.650720 367.248434,469.568640 367.883090,469.154820 368.517745,469.125049 369.152401,468.798389 369.787056,468.465690 370.421712,467.992658 371.056367,467.718420 371.691023,467.622660 372.325678,465.836394 372.960334,465.560400 373.594990,465.469428 374.229645,465.413340 374.864301,464.732324 375.498956,464.667722 376.133612,464.264220 376.768267,463.683212 377.402923,463.265751 378.037578,462.858600 378.672234,462.706752 379.306889,461.959140 379.941545,460.987692 380.576200,460.009740 381.210856,459.397218 381.845511,459.354502 382.480167,459.206040 383.114823,458.696460 383.749478,458.231340 384.384134,458.118712 385.018789,456.336660 385.653445,456.268260 386.288100,456.216960 386.922756,455.702951 387.557411,455.655856 388.192067,454.498662 388.826722,453.590400 389.461378,452.424180 390.096033,452.417340 390.730689,451.607612 391.365344,451.169040 392.000000,451.063020 392.634656,451.027139 393.269311,450.714180 393.903967,450.702552 394.538622,450.673196 395.173278,450.526080 395.807933,449.986645 396.442589,449.876280 397.077244,449.298300 397.711900,448.645080 398.346555,447.354407 398.981211,447.286387 399.615866,447.279659 400.250522,446.237400 400.885177,446.219958 401.519833,445.725426 402.154489,445.698792 402.789144,445.371966 403.423800,444.503460 404.058455,442.359120 404.693111,442.217451 405.327766,441.102954 405.962422,439.985640 406.597077,438.913455 407.231733,438.839548 407.866388,438.651840 408.501044,438.614220 409.135699,438.458268 409.770355,438.049920 410.405010,437.995200 411.039666,437.734353 411.674322,437.550600 412.308977,437.449026 412.943633,437.191790 413.578288,437.154228 414.212944,436.094577 414.847599,435.337860 415.482255,434.886420 416.116910,434.794080 416.751566,434.078958 417.386221,432.860070 418.020877,432.088860 418.655532,430.543020 419.290188,430.402800 419.924843,429.814111 420.559499,429.423895 421.194154,429.178440 421.828810,428.772043 422.463466,428.635993 423.098121,428.584044 423.732777,428.381580 424.367432,428.058651 425.002088,427.646280 425.636743,427.474353 426.271399,427.181160 426.906054,425.744760 427.540710,425.182373 428.175365,423.563826 428.810021,422.241384 429.444676,420.607920 430.079332,420.173075 430.713987,416.966646 431.348643,416.936115 431.983299,414.301440 432.617954,413.807250 433.252610,413.579136 433.887265,413.033613 434.521921,412.306942 435.156576,411.892345 435.791232,411.601692 436.425887,411.042180 437.060543,408.576360 437.695198,405.993133 438.329854,405.426540 438.964509,404.927220 439.599165,404.119810 440.233820,403.627620 440.868476,402.182583 441.503132,400.553040 442.137787,399.915462 442.772443,398.548108 443.407098,398.367660 444.041754,397.543440 444.676409,397.031715 445.311065,396.809821 445.945720,396.697915 446.580376,396.586536 447.215031,396.514020 447.849687,396.396787 448.484342,396.015317 449.118998,395.368320 449.753653,395.360695 450.388309,395.308554 451.022965,394.348151 451.657620,392.801077 452.292276,392.300580 452.926931,392.274246 453.561587,392.121613 454.196242,391.818472 454.830898,391.267740 455.465553,390.556380 456.100209,388.830671 456.734864,388.797659 457.369520,387.633105 458.004175,387.630710 458.638831,387.351167 459.273486,387.231668 459.908142,387.047460 460.542797,385.460522 461.177453,385.258800 461.812109,384.933900 462.446764,384.007080 463.081420,383.859403 463.716075,383.459880 464.350731,380.055763 464.985386,379.186271 465.620042,378.901020 466.254697,378.316780 466.889353,378.162300 467.524008,377.762160 468.158664,376.130820 468.793319,375.406363 469.427975,375.338557 470.062630,374.725200 470.697286,374.365810 471.331942,372.905760 471.966597,370.783355 472.601253,370.726267 473.235908,370.528570 473.870564,369.698142 474.505219,369.522315 475.139875,368.147452 475.774530,368.146062 476.409186,368.136228 477.043841,368.069880 477.678497,367.844160 478.313152,367.446397 478.947808,365.751344 479.582463,364.889622 480.217119,363.444997 480.851775,362.630535 481.486430,362.259580 482.121086,360.822900 482.755741,360.409080 483.390397,360.265440 484.025052,360.251311 484.659708,359.799986 485.294363,359.483593 485.929019,359.312437 486.563674,358.629895 487.198330,358.273290 487.832985,358.227120 488.467641,358.118577 489.102296,357.765283 489.736952,357.213873 490.371608,356.462400 491.006263,355.713028 491.640919,355.191954 492.275574,355.102950 492.910230,354.229140 493.544885,354.020520 494.179541,353.734515 494.814196,352.892500 495.448852,351.908754 496.083507,349.745288 496.718163,349.498059 497.352818,348.966224 497.987474,348.897259 498.622129,348.671988 499.256785,348.120628 499.891441,348.093254 500.526096,347.492917 501.160752,347.154203 501.795407,347.129858 502.430063,346.889820 503.064718,346.752498 503.699374,346.601755 504.334029,345.422640 504.968685,345.381600 505.603340,344.992505 506.237996,344.263260 506.872651,344.197932 507.507307,343.863120 508.141962,343.507440 508.776618,342.729331 509.411273,341.657220 510.045929,341.527260 510.680585,341.432526 511.315240,341.300071 511.949896,340.720308 512.584551,340.190040 513.219207,340.065587 513.853862,339.718080 514.488518,339.358980 515.123173,339.202002 515.757829,339.055867 516.392484,337.961939 517.027140,337.211220 517.661795,336.961560 518.296451,336.537480 518.931106,335.193420 519.565762,335.103816 520.200418,334.515195 520.835073,333.939648 521.469729,333.729660 522.104384,333.719400 522.739040,333.332940 523.373695,332.799420 524.008351,332.654563 524.643006,332.501532 525.277662,332.474520 525.912317,331.807564 526.546973,331.352760 527.181628,330.626908 527.816284,330.278880 528.450939,330.167646 529.085595,329.560338 529.720251,328.595776 530.354906,328.401300 530.989562,328.021119 531.624217,327.471060 532.258873,326.670890 532.893528,326.140338 533.528184,326.093921 534.162839,325.628376 534.797495,325.200180 535.432150,325.066800 536.066806,324.878358 536.701461,324.536420 537.336117,324.156295 537.970772,323.888427 538.605428,323.769443 539.240084,323.641344 539.874739,323.375349 540.509395,322.597560 541.144050,322.596633 541.778706,321.889620 542.413361,321.726793 543.048017,321.186869 543.682672,321.153010 544.317328,320.971624 544.951983,320.863861 545.586639,320.596860 546.221294,320.570267 546.855950,320.299320 547.490605,320.270951 548.125261,320.203560 548.759916,320.107800 549.394572,319.858140 550.029228,319.690560 550.663883,319.629344 551.298539,319.580436 551.933194,319.187764 552.567850,319.130492 553.202505,319.003140 553.837161,318.241826 554.471816,318.035861 555.106472,317.986839 555.741127,317.448072 556.375783,317.361946 557.010438,317.170020 557.645094,317.018755 558.279749,316.674905 558.914405,316.267869 559.549061,316.215840 560.183716,316.089300 560.818372,315.706602 561.453027,315.532765 562.087683,315.333480 562.722338,315.121440 563.356994,314.740110 563.991649,314.695041 564.626305,314.639725 565.260960,313.917944 565.895616,313.884579 566.530271,312.978468 567.164927,312.914514 567.799582,312.768480 568.434238,312.718077 569.068894,312.451058 569.703549,312.318408 570.338205,311.903220 570.972860,311.824293 571.607516,311.550264 572.242171,311.501174 572.876827,310.843020 573.511482,309.903305 574.146138,309.765720 574.780793,309.601560 575.415449,309.580450 576.050104,309.269104 576.684760,308.979120 577.319415,308.760936 577.954071,308.613180 578.588727,308.284860 579.223382,307.782120 579.858038,307.117956 580.492693,307.033140 581.127349,306.998495 581.762004,306.992100 582.396660,306.945298 583.031315,306.815628 583.665971,306.468840 584.300626,306.465420 584.935282,306.434640 585.569937,306.245514 586.204593,305.894863 586.839248,305.894280 587.473904,305.781420 588.108559,305.649946 588.743215,305.564685 589.377871,305.557102 590.012526,305.161241 590.647182,304.964040 591.281837,304.946940 591.916493,304.728060 592.551148,304.586752 593.185804,304.430184 593.820459,304.427100 594.455115,304.298990 595.089770,304.190888 595.724426,304.112460 596.359081,303.473381 596.993737,303.434459 597.628392,303.181194 598.263048,302.898360 598.897704,302.884680 599.532359,302.768400 600.167015,302.484540 600.801670,302.368260 601.436326,302.245140 602.070981,302.043360 602.705637,301.575458 603.340292,301.410660 603.974948,301.215720 604.609603,300.539451 605.244259,300.521628 605.878914,300.417492 606.513570,300.417010 607.148225,300.151259 607.782881,300.111778 608.417537,300.064890 609.052192,299.943146 609.686848,299.901556 610.321503,299.868240 610.956159,299.297100 611.590814,298.982460 612.225470,298.938684 612.860125,298.351554 613.494781,298.083000 614.129436,297.846964 614.764092,297.846382 615.398747,297.830144 616.033403,297.537818 616.668058,297.135660 617.302714,297.120183 617.937370,296.949763 618.572025,296.772386 619.206681,296.624411 619.841336,296.245092 620.475992,296.202696 621.110647,296.135919 621.745303,296.062881 622.379958,296.010480 623.014614,295.945500 623.649269,295.833819 624.283925,295.324428 624.918580,295.314771 625.553236,295.227300 626.187891,295.169272 626.822547,295.074426 627.457203,294.900157 628.091858,294.853062 628.726514,294.396240 629.361169,294.365359 629.995825,294.269700 630.630480,293.846374 631.265136,293.810736 631.899791,293.619900 632.534447,293.614770 633.169102,293.557948 633.803758,293.332620 634.438413,293.216340 635.073069,293.036538 635.707724,292.813363 636.342380,292.783159 636.977035,292.576800 637.611691,292.518492 638.246347,292.504980 638.881002,292.472127 639.515658,292.255320 640.150313,292.059937 640.784969,291.553043 641.419624,291.167199 642.054280,290.905058 642.688935,290.765882 643.323591,290.756700 643.958246,290.438173 644.592902,290.316586 645.227557,290.133462 645.862213,290.012210 646.496868,289.935775 647.131524,289.579953 647.766180,289.510393 648.400835,289.497679 649.035491,289.406852 649.670146,289.392780 650.304802,289.193898 650.939457,289.054780 651.574113,288.653959 652.208768,288.336000 652.843424,288.300118 653.478079,287.975874 654.112735,287.842361 654.747390,287.703300 655.382046,287.503572 656.016701,287.502866 656.651357,287.361580 657.286013,287.312736 657.920668,286.941567 658.555324,286.767588 659.189979,286.728600 659.824635,286.192414 660.459290,286.098508 661.093946,285.985434 661.728601,285.211627 662.363257,285.057246 662.997912,285.004920 663.632568,284.838630 664.267223,284.696888 664.901879,284.668633 665.536534,284.502180 666.171190,284.413260 666.805846,284.267809 667.440501,284.032597 668.075157,283.590895 668.709812,283.558260 669.344468,283.378682 669.979123,283.333873 670.613779,283.182060 671.248434,283.140846 671.883090,283.106540 672.517745,282.977382 673.152401,282.933559 673.787056,282.874968 674.421712,282.846610 675.056367,282.689580 675.691023,282.556200 676.325678,282.527681 676.960334,282.523159 677.594990,282.379593 678.229645,282.345281 678.864301,281.726705 679.498956,281.696715 680.133612,281.591760 680.768267,281.315082 681.402923,281.222400 682.037578,280.941960 682.672234,280.924860 683.306889,280.707661 683.941545,280.616651 684.576200,280.572613 685.210856,280.346198 685.845511,280.223311 686.480167,279.416541 687.114823,279.345504 687.749478,279.177240 688.384134,279.091740 689.018789,278.556887 689.653445,278.487422 690.288100,278.250420 690.922756,277.915260 691.557411,277.887900 692.192067,277.590702 692.826722,277.461521 693.461378,277.378320 694.096033,277.362553 694.730689,277.337280 695.365344,276.967920 696.000000,276.812652 696.634656,276.805383 697.269311,276.410460 697.903967,275.552040 698.538622,275.279252 699.173278,274.782540 699.807933,274.719683 700.442589,274.697965 701.077244,274.341601 701.711900,274.320840 702.346555,274.074039 702.981211,273.811260 703.615866,273.784741 704.250522,273.625896 704.885177,273.441620 705.519833,273.349560 706.154489,273.289159 706.789144,273.106740 707.423800,272.906754 708.058455,272.881020 708.693111,272.816040 709.327766,272.767710 709.962422,272.677037 710.597077,272.544426 711.231733,272.515080 711.866388,272.428260 712.501044,272.419894 713.135699,272.279100 713.770355,271.927081 714.405010,271.074288 715.039666,270.669302 715.674322,270.469236 716.308977,270.295500 716.943633,270.131340 717.578288,269.930784 718.212944,269.859885 718.847599,269.372969 719.482255,269.105508 720.116910,269.095422 720.751566,268.633621 721.386221,268.539913 722.020877,268.274280 722.655532,268.260020 723.290188,267.682678 723.924843,267.645000 724.559499,267.519214 725.194154,267.453721 725.828810,267.331403 726.463466,267.258540 727.098121,267.214080 727.732777,267.195367 728.367432,266.966046 729.002088,266.759220 729.636743,266.565738 730.271399,266.385990 730.906054,266.371485 731.540710,265.593000 732.175365,265.175760 732.810021,265.035946 733.444676,264.884376 734.079332,264.483027 734.713987,264.343332 735.348643,263.877954 735.983299,263.834223 736.617954,263.624106 737.252610,263.166719 737.887265,262.597663 738.521921,262.417872 739.156576,261.930180 739.791232,261.789188 740.425887,261.662319 741.060543,261.612120 741.695198,261.369883 742.329854,261.312427 742.964509,261.127938 743.599165,261.097149 744.233820,261.078600 744.868476,260.569020 745.503132,260.073120 746.137787,259.801439 746.772443,259.693500 747.407098,259.147590 748.041754,258.828240 748.676409,258.750309 749.311065,258.744590 749.945720,257.634660 750.580376,257.345670 751.215031,256.869557 751.849687,256.817280 752.484342,256.667261 753.118998,256.601820 753.753653,256.434240 754.388309,255.972366 755.022965,255.739342 755.657620,255.637380 756.292276,255.565902 756.926931,255.285120 757.561587,254.959435 758.196242,254.743050 758.830898,254.559856 759.465553,254.018593 760.100209,253.154460 760.734864,253.106522 761.369520,252.972079 762.004175,252.552540 762.638831,252.190020 763.273486,251.962271 763.908142,251.287546 764.542797,250.928040 765.177453,250.777560 765.812109,250.586040 766.446764,250.583685 767.081420,250.296742 767.716075,250.193469 768.350731,250.138603 768.985386,249.059823 769.620042,248.656151 770.254697,248.595600 770.889353,247.766045 771.524008,247.617480 772.158664,247.478477 772.793319,247.158852 773.427975,246.995040 774.062630,246.841140 774.697286,246.694080 775.331942,246.623593 775.966597,245.292216 776.601253,244.577100 777.235908,244.383043 777.870564,244.076331 778.505219,243.719478 779.139875,242.874346 779.774530,242.463598 780.409186,242.270806 781.043841,242.085453 781.678497,241.541166 782.313152,241.252860 782.947808,241.038469 783.582463,240.867559 784.217119,240.862935 784.851775,240.764484 785.486430,240.755833 786.121086,240.654708 786.755741,240.406626 787.390397,240.140588 788.025052,240.097629 788.659708,239.984040 789.294363,239.953217 789.929019,238.708380 790.563674,238.682085 791.198330,238.629720 791.832985,238.073869 792.467641,237.374580 793.102296,236.127092 793.736952,235.629083 794.371608,235.328237 795.006263,235.149855 795.640919,234.315698 796.275574,233.864737 796.910230,233.195508 797.544885,232.987854 798.179541,232.890960 798.814196,232.821439 799.448852,232.643823 800.083507,232.295880 800.718163,232.203148 801.352818,232.200468 801.987474,231.779460 802.622129,231.758766 803.256785,231.408048 803.891441,231.355262 804.526096,231.164886 805.160752,230.896231 805.795407,230.887849 806.430063,230.878841 807.064718,230.576258 807.699374,230.558184 808.334029,230.409136 808.968685,230.367686 809.603340,229.843740 810.237996,229.686153 810.872651,229.565724 811.507307,229.536346 812.141962,229.040040 812.776618,228.943596 813.411273,228.586918 814.045929,228.408231 814.680585,228.222559 815.315240,228.149607 815.949896,227.806717 816.584551,227.789230 817.219207,227.217180 817.853862,225.957519 818.488518,225.632352 819.123173,225.373220 819.757829,225.365850 820.392484,225.330630 821.027140,224.747940 821.661795,224.529060 822.296451,224.484600 822.931106,223.906620 823.565762,223.701420 824.200418,222.424601 824.835073,222.371736 825.469729,222.117960 826.104384,221.693437 826.739040,221.248353 827.373695,220.226195 828.008351,219.818908 828.643006,219.707614 829.277662,219.554583 829.912317,219.198177 830.546973,219.046939 831.181628,218.913420 831.816284,218.804597 832.450939,218.031827 833.085595,217.948980 833.720251,217.812122 834.354906,217.650767 834.989562,217.503696 835.624217,216.431425 836.258873,216.429132 836.893528,215.702040 837.528184,214.684865 838.162839,214.536745 838.797495,214.341906 839.432150,214.293561 840.066806,214.053600 840.701461,213.970623 841.336117,213.836066 841.970772,213.651049 842.605428,213.429030 843.240084,212.973805 843.874739,212.745349 844.509395,212.602511 845.144050,212.195207 845.778706,211.961385 846.413361,211.314180 847.048017,211.266590 847.682672,210.931471 848.317328,210.698580 848.951983,208.827840 849.586639,208.650013 850.221294,208.282210 850.855950,207.336488 851.490605,207.305940 852.125261,207.160851 852.759916,206.906142 853.394572,206.884353 854.029228,206.509080 854.663883,205.806354 855.298539,205.391581 855.933194,205.161429 856.567850,204.840703 857.202505,204.229579 857.837161,203.892275 858.471816,203.885548 859.106472,203.485684 859.741127,202.788120 860.375783,201.668104 861.010438,200.955000 861.645094,200.178834 862.279749,197.359752 862.914405,197.197788 863.549061,197.110819 864.183716,196.804830 864.818372,196.195593 865.453027,195.900240 866.087683,195.883546 866.722338,195.609540 867.356994,195.329100 867.991649,194.987100 868.626305,192.931680 869.260960,192.545220 869.895616,192.162045 870.530271,191.231940 871.164927,190.072560 871.799582,189.884054 872.434238,188.839579 873.068894,188.772960 873.703549,188.618232 874.338205,187.880746 874.972860,187.730892 875.607516,187.014732 876.242171,185.190383 876.876827,185.127240 877.511482,184.916127 878.146138,184.749430 878.780793,183.755820 879.415449,183.345828 880.050104,183.328761 880.684760,182.829000 881.319415,182.159492 881.954071,181.931930 882.588727,181.420270 883.223382,181.244413 883.858038,180.452854 884.492693,179.509133 885.127349,178.506120 885.762004,177.633304 886.396660,177.428820 887.031315,177.328614 887.665971,175.355347 888.300626,174.973260 888.935282,174.311832 889.569937,174.129103 890.204593,173.852341 890.839248,171.820020 891.473904,171.662700 892.108559,171.537085 892.743215,170.068980 893.377871,170.058720 894.012526,169.639086 894.647182,169.439700 895.281837,169.267297 895.916493,168.313623 896.551148,166.602549 897.185804,165.633240 897.820459,165.084222 898.455115,161.523521 899.089770,161.214376 899.724426,160.519586 900.359081,160.355563 900.993737,160.275066 901.628392,159.839541 902.263048,158.836251 902.897704,158.352060 903.532359,156.533304 904.167015,155.646956 904.801670,153.430579 905.436326,150.935106 906.070981,148.623796 906.705637,148.587960 907.340292,147.849128 907.974948,147.831114 908.609603,146.534250 909.244259,145.126920 909.878914,144.659682 910.513570,143.946730 911.148225,143.721300 911.782881,143.400661 912.417537,143.122800 913.052192,142.490100 913.686848,141.988983 914.321503,141.767695 914.956159,141.751279 915.590814,141.207600 916.225470,141.144913 916.860125,140.782735 917.494781,140.752740 918.129436,140.588580 918.764092,140.376048 919.398747,140.277149 920.033403,140.273548 920.668058,139.483920 921.302714,139.157919 921.937370,137.909329 922.572025,137.455518 923.206681,137.178840 923.841336,135.886080 924.475992,135.408547 925.110647,135.325200 925.745303,134.573484 926.379958,134.497444 927.014614,134.322985 927.649269,133.936680 928.283925,133.827582 928.918580,133.715305 929.553236,133.345020 930.187891,133.246866 930.822547,132.947808 931.457203,132.907911 932.091858,132.866164 932.726514,132.689748 933.361169,132.342960 933.995825,132.329280 934.630480,132.035160 935.265136,131.915460 935.899791,131.746983 936.534447,131.615690 937.169102,130.899720 937.803758,130.820892 938.438413,129.697851 939.073069,128.822715 939.707724,128.529660 940.342380,128.360370 940.977035,128.002980 941.611691,127.901064 942.246347,127.501413 942.881002,126.576840 943.515658,126.251186 944.150313,126.224479 944.784969,126.111294 945.419624,124.966874 946.054280,124.950427 946.688935,124.364100 947.323591,123.460504 947.958246,123.232764 948.592902,122.556714 949.227557,122.045340 949.862213,121.435515 950.496868,120.831240 951.131524,120.632880 951.766180,120.184918 952.400835,119.691179 953.035491,119.554956 953.670146,118.864981 954.304802,118.857031 954.939457,118.767242 955.574113,118.566079 956.208768,117.330484 956.843424,117.187230 957.478079,115.684140 958.112735,115.451580 958.747390,114.867343 959.382046,114.861050 960.016701,113.671383 960.651357,113.647087 961.286013,113.502180 961.920668,112.775704 962.555324,112.617559 963.189979,112.209420 963.824635,112.041739 964.459290,111.741112 965.093946,110.329788 965.728601,110.139423 966.363257,109.900819 966.997912,109.883820 967.632568,108.796159 968.267223,107.907744 968.901879,106.730580 969.536534,106.268880 970.171190,105.147344 970.805846,104.221299 971.440501,103.421971 972.075157,102.314780 972.709812,101.621941 973.344468,101.396945 973.979123,101.188027 974.613779,100.168773 975.248434,100.077600 975.883090,99.864588 976.517745,99.413854 977.152401,99.199908 977.787056,98.883698 978.421712,98.844060 979.056367,97.750298 979.691023,95.913703 980.325678,95.885555 980.960334,95.834017 981.594990,95.711682 982.229645,95.495532 982.864301,95.417278 983.498956,94.542569 984.133612,94.222597 984.768267,93.683966 985.402923,93.238680 986.037578,91.697593 986.672234,90.557400 987.306889,90.174360 987.941545,88.452651 988.576200,86.785140 989.210856,85.737443 989.845511,84.313871 990.480167,83.917383 991.114823,83.173098 991.749478,83.162664 992.384134,82.483806 993.018789,78.428959 993.653445,75.838068 994.288100,72.880345 994.922756,72.553527 995.557411,71.949421 996.192067,71.132149 996.826722,70.749685 997.461378,69.319441 998.096033,67.519816 998.730689,67.157760 999.365344,66.148075 1000.000000,55.268844 1000,525 Z" />
<g stroke-width="1" stroke="#ff0000" text-anchor="middle" font-family="Arial,Verdana" font-weight="bold" font-size="12" fill="#ff0000">
	<line x1="954.400000" y1="12" x2="954.400000" y2="529" />
	<text x="954.400000" y="549" stroke-width="0">95</text>
</g>
<g stroke-width="1" stroke="#ff0000" text-anchor="middle" font-family="Arial,Verdana" font-weight="bold" font-size="14" fill="#b00000">
	<line x1="84" y1="118.848052" x2="1000" y2="118.848052" />
</g>
	<text font-family="Arial,Verdana" font-weight="bold" font-size="14" fill="#b00000" text-anchor="end" x="940.400000" y="104.848052" stroke-width="0">~ 158 Mbps</text>
	<text font-family="Arial,Verdana" font-weight="normal" font-size="14" fill="#000000" text-anchor="middle" x="544" y="575" stroke-width="0">Percentile [%]</text>
	<text font-family="Arial,Verdana" font-weight="normal" font-size="14" fill="#000000" text-anchor="middle" x="0" y="0" stroke-width="0" transform="rotate(-90),translate(-282.5, 28)">Network Data Rate [Mbps]</text>
	<g xml:space="preserve" stroke-width="0" text-anchor="start" font-family="monospace" font-weight="normal" font-size="10" fill="#404040">
<rect x="98" y="22" width="190" height="140" stroke-width="0" fill="#ffffee" opacity="0.75"/>
		<text x="108" y="42">   samples: 1,438</text>
		<text x="108" y="52">       min: 2,071,213</text>
		<text x="108" y="62">       max: 183,131,055</text>
		<text x="108" y="72">     range: 181,059,842</text>
		<text x="108" y="82">       sum: 101,371,558,561</text>
		<text x="108" y="92">      mean: 70,494,825</text>
		<text x="108" y="102">    median: 79,507,869</text>
		<text x="108" y="112">      mode: 5,520,000</text>
		<text x="108" y="122">   std dev: 51,904,239</text>
		<text x="108" y="132">  skewness: 0.173</text>
		<text x="108" y="142">  kurtosis: 1.815</text>
		<text x="108" y="152"> 95th perc: 158,343,840</text>
	</g>
</svg>
