<?xml version="1.0" standalone="no"?>
<!DOCTYPE svg PUBLIC "-//W3C//DTD SVG 1.1//EN" "http://www.w3.org/Graphics/SVG/1.1/DTD/svg11.dtd">
<svg width="800" height="463" version="1.1" xmlns="http://www.w3.org/2000/svg">
<desc>netsgraph - network SVG graph</desc>
<g stroke-width="1" stroke="#cccccc" text-anchor="middle" font-family="Arial,Verdana" font-weight="normal" font-size="12" fill="#808080">
	<line x1="88.000000" y1="12" x2="88.000000" y2="403" />
	<text x="88.000000" y="423" stroke-width="0">0</text>
	<line x1="122.400000" y1="12" x2="122.400000" y2="403" />
	<text x="122.400000" y="423" stroke-width="0">5</text>
	<line x1="156.800000" y1="12" x2="156.800000" y2="403" />
	<text x="156.800000" y="423" stroke-width="0">10</text>
	<line x1="191.200000" y1="12" x2="191.200000" y2="403" />
	<text x="191.200000" y="423" stroke-width="0">15</text>
	<line x1="225.600000" y1="12" x2="225.600000" y2="403" />
	<text x="225.600000" y="423" stroke-width="0">20</text>
	<line x1="260.000000" y1="12" x2="260.000000" y2="403" />
	<text x="260.000000" y="423" stroke-width="0">25</text>
	<line x1="294.400000" y1="12" x2="294.400000" y2="403" />
	<text x="294.400000" y="423" stroke-width="0">30</text>
	<line x1="328.800000" y1="12" x2="328.800000" y2="403" />
	<text x="328.800000" y="423" stroke-width="0">35</text>
	<line x1="363.200000" y1="12" x2="363.200000" y2="403" />
	<text x="363.200000" y="423" stroke-width="0">40</text>
	<line x1="397.600000" y1="12" x2="397.600000" y2="403" />
	<text x="397.600000" y="423" stroke-width="0">45</text>
	<line x1="432.000000" y1="12" x2="432.000000" y2="403" />
	<text x="432.000000" y="423" stroke-width="0">50</text>
	<line x1="466.400000" y1="12" x2="466.400000" y2="403" />
	<text x="466.400000" y="423" stroke-width="0">55</text>
	<line x1="500.800000" y1="12" x2="500.800000" y2="403" />
	<text x="500.800000" y="423" stroke-width="0">60</text>
	<line x1="535.200000" y1="12" x2="535.200000" y2="403" />
	<text x="535.200000" y="423" stroke-width="0">65</text>
	<line x1="569.600000" y1="12" x2="569.600000" y2="403" />
	<text x="569.600000" y="423" stroke-width="0">70</text>
	<line x1="604.000000" y1="12" x2="604.000000" y2="403" />
	<text x="604.000000" y="423" stroke-width="0">75</text>
	<line x1="638.400000" y1="12" x2="638.400000" y2="403" />
	<text x="638.400000" y="423" stroke-width="0">80</text>
	<line x1="672.800000" y1="12" x2="672.800000" y2="403" />
	<text x="672.800000" y="423" stroke-width="0">85</text>
	<line x1="707.200000" y1="12" x2="707.200000" y2="403" />
	<text x="707.200000" y="423" stroke-width="0">90</text>
	<line x1="776.000000" y1="12" x2="776.000000" y2="403" />
	<text x="776.000000" y="423" stroke-width="0">100</text>
</g>
<g stroke-width="1" stroke="#cccccc" text-anchor="middle" font-family="Arial,Verdana" font-weight="normal" font-size="12" fill="#808080">
	<line x1="84" y1="399.000000" x2="776" y2="399.000000" />
	<text x="70" y="403" stroke-width="0">0</text>
	<line x1="84" y1="350.625000" x2="776" y2="350.625000" />
	<text x="70" y="354.625" stroke-width="0">25</text>
	<line x1="84" y1="302.250000" x2="776" y2="302.250000" />
	<text x="70" y="306.25" stroke-width="0">50</text>
	<line x1="84" y1="253.875000" x2="776" y2="253.875000" />
	<text x="70" y="257.875" stroke-width="0">75</text>
	<line x1="84" y1="205.500000" x2="776" y2="205.500000" />
	<text x="70" y="209.5" stroke-width="0">100</text>
	<line x1="84" y1="157.125000" x2="776" y2="157.125000" />
	<text x="70" y="161.125" stroke-width="0">125</text>
	<line x1="84" y1="108.750000" x2="776" y2="108.750000" />
	<text x="70" y="112.75" stroke-width="0">150</text>
	<line x1="84" y1="60.375000" x2="776" y2="60.375000" />
	<text x="70" y="64.375" stroke-width="0">175</text>
	<line x1="84" y1="12.000000" x2="776" y2="12.000000" />
	<text x="70" y="16" stroke-width="0">200</text>
</g>
<polyline fill="none" stroke="#0000ff" stroke-width="1" points=" 88.000000,394.992203 88.478775,394.211351 88.957550,394.190880 89.436326,393.632754 89.915101,393.571505 90.393876,393.422040 90.872651,393.395715 91.351427,393.389134 91.830202,393.322251 92.308977,393.240932 92.787752,392.873790 93.266527,392.804904 93.745303,392.762321 94.224078,392.726793 94.702853,392.372461 95.181628,392.292000 95.660404,392.287009 96.139179,392.286840 96.617954,392.278007 97.096729,392.179512 97.575505,392.175900 98.054280,392.160936 98.533055,392.119140 99.011830,392.088307 99.490605,391.835340 99.969381,391.690860 100.448156,391.662480 100.926931,391.657320 101.405706,391.625748 101.884482,391.592439 102.363257,391.540739 102.842032,391.525740 103.320807,391.490626 103.799582,391.483318 104.278358,391.443954 104.757133,391.435102 105.235908,391.358970 105.714683,391.330950 106.193459,391.300603 106.672234,391.226460 107.151009,391.187760 107.629784,391.148754 108.108559,391.115520 108.587335,391.107824 109.066110,391.084560 109.544885,391.068468 110.023660,391.029606 110.502436,390.997627 110.981211,390.950400 111.459986,390.924163 111.938761,390.856505 112.417537,390.839460 112.896312,390.819738 113.375087,390.762610 113.853862,390.736260 114.332637,390.673072 114.811413,390.672276 115.290188,390.635553 115.768963,390.562131 116.247738,390.501742 116.726514,390.491160 117.205289,390.408600 117.684064,390.382800 118.162839,390.374341 118.641614,390.338813 119.120390,390.310560 119.599165,390.310210 120.077940,390.302820 120.556715,390.295080 121.035491,390.285521 121.514266,390.248640 121.993041,390.202637 122.471816,390.177948 122.950592,390.170982 123.429367,390.078618 123.908142,390.052560 124.386917,390.007926 124.865692,389.969125 125.344468,389.958631 125.823243,389.941620 126.302018,389.857355 126.780793,389.847513 127.259569,389.793336 127.738344,389.774182 128.217119,389.761020 128.695894,389.745540 129.174669,389.735614 129.653445,389.724900 130.132220,389.721804 130.610995,389.714538 131.089770,389.701505 131.568546,389.661432 132.047321,389.658738 132.526096,389.642340 133.004871,389.616540 133.483646,389.591308 133.962422,389.519532 134.441197,389.483607 134.919972,389.478531 135.398747,389.474640 135.877523,389.472060 136.356298,389.454000 136.835073,389.426001 137.313848,389.407475 137.792624,389.396724 138.271399,389.386666 138.750174,389.361636 139.228949,389.226610 139.707724,389.223348 140.186500,389.160912 140.665275,389.141820 141.144050,389.131500 141.622825,389.113102 142.101601,389.090220 142.580376,389.090220 143.059151,389.077574 143.537926,389.076030 144.016701,389.074740 144.495477,389.067000 144.974252,389.040325 145.453027,389.016712 145.931802,389.002500 146.410578,388.976700 146.889353,388.925100 147.368128,388.865760 147.846903,388.864407 148.325678,388.831416 148.804454,388.825180 149.283229,388.814160 149.762004,388.721280 150.240779,388.716120 150.719555,388.690845 151.198330,388.681692 151.677105,388.620660 152.155880,388.612920 152.634656,388.545840 153.113431,388.533946 153.592206,388.491966 154.070981,388.468440 154.549756,388.455540 155.028532,388.450380 155.507307,388.431358 155.986082,388.382243 156.464857,388.351790 156.943633,388.348159 157.422408,388.323875 157.901183,388.318800 158.379958,388.318800 158.858733,388.313640 159.337509,388.261078 159.816284,388.246818 160.295059,388.238820 160.773834,388.179742 161.252610,388.086600 161.731385,388.055640 162.210160,387.949860 162.688935,387.865339 163.167711,387.864720 163.646486,387.864551 164.125261,387.849153 164.604036,387.836636 165.082811,387.796678 165.561587,387.747816 166.040362,387.730560 166.519137,387.727206 166.997912,387.686700 167.476688,387.537060 167.955463,387.511810 168.434238,387.468432 168.913013,387.413220 169.391788,387.355892 169.870564,387.354472 170.349339,387.346140 170.828114,387.318944 171.306889,387.256190 171.785665,387.235200 172.264440,387.173280 172.743215,387.103054 173.221990,387.102871 173.700765,387.057180 174.179541,387.046860 174.658316,387.046292 175.137091,387.001013 175.615866,386.982360 176.094642,386.971279 176.573417,386.969460 177.052192,386.943660 177.530967,386.886900 178.009743,386.877384 178.488518,386.808166 178.967293,386.774412 179.446068,386.719200 179.924843,386.704820 180.403619,386.685660 180.882394,386.659860 181.361169,386.619096 181.839944,386.613462 182.318720,386.512800 182.797495,386.507640 183.276270,386.489580 183.755045,386.449332 184.233820,386.427660 184.712596,386.419220 185.191371,386.415521 185.670146,386.379864 186.148921,386.265120 186.627697,386.214569 187.106472,386.195460 187.585247,386.160476 188.064022,386.131298 188.542797,385.883280 189.021573,385.811548 189.500348,385.782660 189.979123,385.687200 190.457898,385.684620 190.936674,385.620120 191.415449,385.589335 191.894224,385.474678 192.372999,385.429200 192.851775,385.344318 193.330550,385.305360 193.809325,385.204740 194.288100,385.183444 194.766875,385.166040 195.245651,385.155895 195.724426,385.073247 196.203201,385.008660 196.681976,385.000920 197.160752,384.960427 197.639527,384.913200 198.118302,384.905460 198.597077,384.900300 199.075852,384.825319 199.554628,384.786780 200.033403,384.746275 200.512178,384.637140 200.990953,384.608760 201.469729,384.573148 201.948504,384.522264 202.427279,384.511769 202.906054,384.497820 203.384830,384.355533 203.863605,384.288753 204.342380,384.288753 204.821155,384.281100 205.299930,384.239820 205.778706,384.172740 206.257481,384.149351 206.736256,384.146940 207.215031,384.084132 207.693807,384.065607 208.172582,383.928570 208.651357,383.766157 209.130132,383.710920 209.608907,383.641260 210.087683,383.624949 210.566458,383.615460 211.045233,383.566440 211.524008,383.527817 212.002784,383.499360 212.481559,383.438793 212.960334,383.390577 213.439109,383.197500 213.917884,383.089140 214.396660,383.081400 214.875435,383.070826 215.354210,383.068289 215.832985,383.039858 216.311761,383.034960 216.790536,382.900800 217.269311,382.888111 217.748086,382.756757 218.226862,382.743639 218.705637,382.732094 219.184412,382.717620 219.663187,382.599071 220.141962,382.548059 220.620738,382.393259 221.099513,382.147440 221.578288,381.716580 222.057063,381.590160 222.535839,381.571043 223.014614,381.562698 223.493389,381.422460 223.972164,381.239280 224.450939,381.195420 224.929715,381.148980 225.408490,381.095937 225.887265,380.978700 226.366040,380.964277 226.844816,380.938194 227.323591,380.923402 227.802366,380.919885 228.281141,380.775580 228.759916,380.738760 229.238692,380.719926 229.717467,380.670157 230.196242,380.537520 230.675017,380.333150 231.153793,380.111862 231.632568,379.988461 232.111343,379.894127 232.590118,379.586050 233.068894,379.420380 233.547669,379.324920 234.026444,379.320606 234.505219,379.242360 234.983994,379.198084 235.462770,379.128840 235.941545,379.035875 236.420320,378.951116 236.899095,378.904638 237.377871,378.852386 237.856646,378.803760 238.335421,378.703436 238.814196,378.641994 239.292971,378.492870 239.771747,377.611800 240.250522,377.511180 240.729297,377.500415 241.208072,377.446680 241.686848,377.005711 242.165623,376.980474 242.644398,376.959060 243.123173,376.939731 243.601949,376.894560 244.080724,376.807770 244.559499,376.729790 245.038274,376.727483 245.517049,376.719120 245.995825,376.624841 246.474600,376.536236 246.953375,376.475331 247.432150,376.246980 247.910926,376.121334 248.389701,376.101726 248.868476,375.946152 249.347251,375.842445 249.826026,375.568440 250.304802,375.294610 250.783577,375.271740 251.262352,375.220182 251.741127,375.203941 252.219903,374.980200 252.698678,374.967300 253.177453,374.662292 253.656228,374.606100 254.135003,374.267528 254.613779,374.150664 255.092554,373.780500 255.571329,373.722997 256.050104,373.463247 256.528880,373.446834 257.007655,373.416720 257.486430,373.190380 257.965205,373.145862 258.443981,373.125438 258.922756,373.067193 259.401531,372.998760 259.880306,372.877500 260.359081,372.606600 260.837857,372.518705 261.316632,372.477600 261.795407,372.276360 262.274182,371.729400 262.752958,371.708760 263.231733,371.633390 263.710508,371.582636 264.189283,371.463966 264.668058,370.764222 265.146834,370.688917 265.625609,370.570179 266.104384,370.283288 266.583159,370.266024 267.061935,370.082854 267.540710,370.041564 268.019485,369.805769 268.498260,369.592568 268.977035,369.482220 269.455811,369.420300 269.934586,369.415140 270.413361,369.229380 270.892136,368.981700 271.370912,368.885056 271.849687,367.898319 272.328462,367.811736 272.807237,367.613784 273.286013,367.580760 273.764788,367.441102 274.243563,367.087586 274.722338,366.946080 275.201113,366.750000 275.679889,366.303660 276.158664,365.898600 276.637439,365.783777 277.116214,365.712753 277.594990,365.537823 278.073765,365.410980 278.552540,365.261340 279.031315,364.875482 279.510090,364.334951 279.988866,364.332413 280.467641,364.197915 280.946416,364.035840 281.425191,363.998503 281.903967,363.873300 282.382742,363.616393 282.861517,363.310860 283.340292,363.050280 283.819068,362.831898 284.297843,362.598006 284.776618,362.540793 285.255393,362.278369 285.734168,362.235000 286.212944,362.228441 286.691719,361.842840 287.170494,361.610640 287.649269,361.551300 288.128045,361.497797 288.606820,361.355685 289.085595,361.280400 289.564370,361.264146 290.043145,360.890820 290.521921,360.855757 291.000696,360.245820 291.479471,360.171000 291.958246,360.100597 292.437022,359.796244 292.915797,359.732400 293.394572,359.074719 293.873347,359.015160 294.352122,358.615260 294.830898,358.575528 295.309673,358.561338 295.788448,358.426658 296.267223,358.156020 296.745999,357.898020 297.224774,357.485220 297.703549,357.479754 298.182324,357.245280 298.661100,357.183360 299.139875,356.871180 299.618650,356.848721 300.097425,356.602294 300.576200,356.351310 301.054976,355.994461 301.533751,355.787580 302.012526,355.715340 302.491301,354.367806 302.970077,354.159600 303.448852,354.090972 303.927627,354.048660 304.406402,353.534911 304.885177,353.486176 305.363953,353.181780 305.842728,352.743476 306.321503,352.428549 306.800278,352.121400 307.279054,352.006848 307.757829,351.442860 308.236604,350.710013 308.715379,349.972260 309.194154,349.510182 309.672930,349.477957 310.151705,349.365960 310.630480,348.981540 311.109255,348.630660 311.588031,348.545695 312.066806,347.201340 312.545581,347.149740 313.024356,347.111040 313.503132,346.723279 313.981907,346.687751 314.460682,345.814780 314.939457,345.129600 315.418232,344.249820 315.897008,344.244660 316.375783,343.633812 316.854558,343.302960 317.333333,343.222980 317.812109,343.195912 318.290884,342.959820 318.769659,342.951048 319.248434,342.928902 319.727209,342.817920 320.205985,342.410978 320.684760,342.327720 321.163535,341.891700 321.642310,341.398920 322.121086,340.425254 322.599861,340.373941 323.078636,340.368866 323.557411,339.582600 324.036186,339.569442 324.514962,339.196374 324.993737,339.176282 325.472512,338.929729 325.951287,338.274540 326.430063,336.656880 326.908838,336.550007 327.387613,335.709246 327.866388,334.866360 328.345164,334.057519 328.823939,334.001764 329.302714,333.860160 329.781489,333.831780 330.260264,333.714132 330.739040,333.406080 331.217815,333.364800 331.696590,333.168020 332.175365,333.029400 332.654141,332.952774 333.132916,332.758719 333.611691,332.730382 334.090466,331.930997 334.569241,331.360140 335.048017,331.019580 335.526792,330.949920 336.005567,330.410442 336.484342,329.490930 336.963118,328.909140 337.441893,327.742980 337.920668,327.637200 338.399443,327.193102 338.878219,326.898728 339.356994,326.713560 339.835769,326.406980 340.314544,326.304346 340.793319,326.265156 341.272095,326.112420 341.750870,325.868807 342.229645,325.557720 342.708420,325.428020 343.187196,325.206840 343.665971,324.123240 344.144746,323.698983 344.623521,322.477974 345.102296,321.480342 345.581072,320.248080 346.059847,319.920039 346.538622,317.501154 347.017397,317.478122 347.496173,315.490560 347.974948,315.117750 348.453723,314.945664 348.932498,314.534129 349.411273,313.985939 349.890049,313.673172 350.368824,313.453908 350.847599,313.031820 351.326374,311.171640 351.805150,309.222890 352.283925,308.795460 352.762700,308.418780 353.241475,307.809681 353.720251,307.438380 354.199026,306.348264 354.677801,305.118960 355.156576,304.637980 355.635351,303.606468 356.114127,303.470340 356.592902,302.848560 357.071677,302.462522 357.550452,302.295128 358.029228,302.210708 358.508003,302.126685 358.986778,302.071980 359.465553,301.983541 359.944328,301.695765 360.423104,301.207680 360.901879,301.201928 361.380654,301.162593 361.859429,300.438079 362.338205,299.270988 362.816980,298.893420 363.295755,298.873554 363.774530,298.758410 364.253305,298.529725 364.732081,298.114260 365.210856,297.577620 365.689631,296.275769 366.168406,296.250866 366.647182,295.372342 367.125957,295.370536 367.604732,295.159652 368.083507,295.069504 368.562283,294.930540 369.041058,293.733376 369.519833,293.581200 369.998608,293.336100 370.477383,292.636920 370.956159,292.525515 371.434934,292.224120 371.913709,289.656102 372.392484,289.000169 372.871260,288.784980 373.350035,288.344237 373.828810,288.227700 374.307585,287.925840 374.786360,286.695180 375.265136,286.148660 375.743911,286.097508 376.222686,285.634800 376.701461,285.363681 377.180237,284.262240 377.659012,282.661127 378.137787,282.618061 378.616562,282.468921 379.095338,281.842458 379.574113,281.709816 380.052888,280.672639 380.531663,280.671591 381.010438,280.664172 381.489214,280.614120 381.967989,280.443840 382.446764,280.143773 382.925539,278.865049 383.404315,278.214978 383.883090,277.125173 384.361865,276.510755 384.840640,276.230911 385.319415,275.147100 385.798191,274.834920 386.276966,274.726560 386.755741,274.715902 387.234516,274.375428 387.713292,274.136746 388.192067,274.007628 388.670842,273.492728 389.149617,273.223710 389.628392,273.188880 390.107168,273.106997 390.585943,272.840477 391.064718,272.424500 391.543493,271.857600 392.022269,271.292284 392.501044,270.899193 392.979819,270.832050 393.458594,270.172860 393.937370,270.015480 394.416145,269.799722 394.894920,269.164517 395.373695,268.422393 395.852470,266.790305 396.331246,266.603799 396.810021,266.202590 397.288796,266.150564 397.767571,265.980622 398.246347,265.564684 398.725122,265.544034 399.203897,265.091148 399.682672,264.835627 400.161447,264.817261 400.640223,264.636180 401.118998,264.532586 401.597773,264.418868 402.076548,263.529360 402.555324,263.498400 403.034099,263.204872 403.512874,262.654740 403.991649,262.605458 404.470424,262.352880 404.949200,262.084560 405.427975,261.497566 405.906750,260.688780 406.385525,260.590740 406.864301,260.519274 407.343076,260.419352 407.821851,259.981987 408.300626,259.581960 408.779402,259.488075 409.258177,259.225920 409.736952,258.955020 410.215727,258.836598 410.694502,258.726356 411.173278,257.901112 411.652053,257.334780 412.130828,257.146440 412.609603,256.826520 413.088379,255.812580 413.567154,255.744984 414.045929,255.300936 414.524704,254.866752 415.003479,254.708340 415.482255,254.700600 415.961030,254.409060 416.439805,254.006580 416.918580,253.897302 417.397356,253.781858 417.876131,253.761480 418.354906,253.258338 418.833681,252.915240 419.312457,252.367668 419.791232,252.105120 420.270007,252.021207 420.748782,251.563062 421.227557,250.835410 421.706333,250.688700 422.185108,250.401897 422.663883,249.986940 423.142658,249.383303 423.621434,248.983062 424.100209,248.948046 424.578984,248.596845 425.057759,248.273820 425.536534,248.173200 426.015310,248.031042 426.494085,247.773089 426.972860,247.486328 427.451635,247.284252 427.930411,247.194492 428.409186,247.097856 428.887961,246.897193 429.366736,246.310440 429.845511,246.309740 430.324287,245.776380 430.803062,245.653546 431.281837,245.246234 431.760612,245.220692 432.239388,245.083857 432.718163,245.002562 433.196938,244.801140 433.675713,244.781079 434.154489,244.576680 434.633264,244.555279 435.112039,244.504440 435.590814,244.432200 436.069589,244.243860 436.548365,244.117440 437.027140,244.071259 437.505915,244.034364 437.984690,243.738138 438.463466,243.694932 438.942241,243.598860 439.421016,243.024535 439.899791,242.869159 440.378566,242.832177 440.857342,242.425738 441.336117,242.360766 441.814892,242.215980 442.293667,242.101868 442.772443,241.842472 443.251218,241.535410 443.729993,241.496160 444.208768,241.400700 444.687543,241.111998 445.166319,240.980858 445.645094,240.830520 446.123869,240.670560 446.602644,240.382890 447.081420,240.348891 447.560195,240.307161 448.038970,239.762659 448.517745,239.737490 448.996521,239.053932 449.475296,239.005686 449.954071,238.895520 450.432846,238.857497 450.911621,238.656061 451.390397,238.555992 451.869172,238.242780 452.347947,238.183239 452.826722,237.976515 453.305498,237.939482 453.784273,237.442980 454.263048,236.734072 454.741823,236.630280 455.220598,236.506440 455.699374,236.490515 456.178149,236.255640 456.656924,236.036880 457.135699,235.872285 457.614475,235.760820 458.093250,235.513140 458.572025,235.133880 459.050800,234.632844 459.529576,234.568860 460.008351,234.542725 460.487126,234.537900 460.965901,234.502593 461.444676,234.404772 461.923452,234.143160 462.402227,234.140580 462.881002,234.117360 463.359777,233.974686 463.838553,233.710160 464.317328,233.709720 464.796103,233.624580 465.274878,233.525398 465.753653,233.461078 466.232429,233.455357 466.711204,233.156725 467.189979,233.007960 467.668754,232.995060 468.147530,232.829940 468.626305,232.723339 469.105080,232.605226 469.583855,232.602900 470.062630,232.506256 470.541406,232.424705 471.020181,232.365540 471.498956,231.883428 471.977731,231.854066 472.456507,231.663006 472.935282,231.449640 473.414057,231.439320 473.892832,231.351600 474.371608,231.137460 474.850383,231.049740 475.329158,230.956860 475.807933,230.804640 476.286708,230.451661 476.765484,230.327340 477.244259,230.180280 477.723034,229.670112 478.201809,229.656667 478.680585,229.578108 479.159360,229.577744 479.638135,229.377266 480.116910,229.347482 480.595685,229.312110 481.074461,229.220268 481.553236,229.188893 482.032011,229.163760 482.510786,228.732900 482.989562,228.495540 483.468337,228.462516 483.947112,228.019593 484.425887,227.817000 484.904662,227.638938 485.383438,227.638499 485.862213,227.626249 486.340988,227.405723 486.819763,227.102340 487.298539,227.090664 487.777314,226.962102 488.256089,226.828292 488.734864,226.716661 489.213640,226.430508 489.692415,226.398525 490.171190,226.348149 490.649965,226.293051 491.128740,226.253520 491.607516,226.204500 492.086291,226.120249 492.565066,225.735972 493.043841,225.728687 493.522617,225.662700 494.001392,225.618925 494.480167,225.547374 494.958942,225.415908 495.437717,225.380380 495.916493,225.035760 496.395268,225.012464 496.874043,224.940300 497.352818,224.620948 497.831594,224.594064 498.310369,224.450100 498.789144,224.446230 499.267919,224.403364 499.746695,224.233380 500.225470,224.145660 500.704245,224.010020 501.183020,223.841660 501.661795,223.818875 502.140571,223.663200 502.619346,223.619213 503.098121,223.609020 503.576896,223.584236 504.055672,223.420680 504.534447,223.273286 505.013222,222.890892 505.491997,222.599817 505.970772,222.402061 506.449548,222.297069 506.928323,222.290142 507.407098,222.049850 507.885873,221.958126 508.364649,221.819980 508.843424,221.728510 509.322199,221.670848 509.800974,221.402420 510.279749,221.349946 510.758525,221.340354 511.237300,221.271836 511.716075,221.261220 512.194850,221.111186 512.673626,221.006237 513.152401,220.703864 513.631176,220.464000 514.109951,220.436931 514.588727,220.192326 515.067502,220.091605 515.546277,219.986700 516.025052,219.836028 516.503827,219.835495 516.982603,219.728911 517.461378,219.692064 517.940153,219.412060 518.418928,219.280812 518.897704,219.251400 519.376479,218.846908 519.855254,218.776068 520.334029,218.690766 520.812804,218.107017 521.291580,217.990554 521.770355,217.951080 522.249130,217.825633 522.727905,217.718705 523.206681,217.697390 523.685456,217.571820 524.164231,217.504740 524.643006,217.395014 525.121781,217.217573 525.600557,216.884359 526.079332,216.859740 526.558107,216.724269 527.036882,216.690466 527.515658,216.575940 527.994433,216.544849 528.473208,216.518969 528.951983,216.421534 529.430759,216.388475 529.909534,216.344274 530.388309,216.322881 530.867084,216.204420 531.345859,216.103800 531.824635,216.082285 532.303410,216.078875 532.782185,215.970570 533.260960,215.944686 533.739736,215.478041 534.218511,215.455416 534.697286,215.376240 535.176061,215.167518 535.654836,215.097600 536.133612,214.886040 536.612387,214.873140 537.091162,214.709288 537.569937,214.640632 538.048713,214.607410 538.527488,214.436605 539.006263,214.343902 539.485038,213.735285 539.963814,213.681696 540.442589,213.554760 540.921364,213.490260 541.400139,213.086774 541.878914,213.034371 542.357690,212.855580 542.836465,212.602740 543.315240,212.582100 543.794015,212.357898 544.272791,212.260446 544.751566,212.197680 545.230341,212.185786 545.709116,212.166720 546.187891,211.888080 546.666667,211.770948 547.145442,211.765464 547.624217,211.467540 548.102992,210.819960 548.581768,210.614172 549.060543,210.239460 549.539318,210.192041 550.018093,210.175658 550.496868,209.906822 550.975644,209.891160 551.454419,209.704977 551.933194,209.506740 552.411969,209.486734 552.890745,209.366904 553.369520,209.227889 553.848295,209.158440 554.327070,209.112875 554.805846,208.975260 555.284621,208.824393 555.763396,208.804980 556.242171,208.755960 556.720946,208.719500 557.199722,208.651098 557.678497,208.551058 558.157272,208.528920 558.636047,208.463424 559.114823,208.457113 559.593598,208.350900 560.072373,208.085342 560.551148,207.442007 561.029923,207.136491 561.508699,206.985564 561.987474,206.854500 562.466249,206.730660 562.945024,206.579363 563.423800,206.525878 563.902575,206.158556 564.381350,205.956787 564.860125,205.949178 565.338900,205.600802 565.817676,205.530110 566.296451,205.329720 566.775226,205.318963 567.254001,204.883424 567.732777,204.855000 568.211552,204.760108 568.690327,204.710702 569.169102,204.618427 569.647878,204.563460 570.126653,204.529920 570.605428,204.515803 571.084203,204.342807 571.562978,204.186780 572.041754,204.040820 572.520529,203.905220 572.999304,203.894278 573.478079,203.307000 573.956855,202.992240 574.435630,202.886766 574.914405,202.772424 575.393180,202.469652 575.871955,202.364268 576.350731,202.013193 576.829506,201.980203 577.308281,201.821694 577.787056,201.476648 578.265832,201.047360 578.744607,200.911728 579.223382,200.543820 579.702157,200.437458 580.180932,200.341749 580.659708,200.303880 581.138483,200.121140 581.617258,200.077796 582.096033,199.938620 582.574809,199.915393 583.053584,199.901400 583.532359,199.516980 584.011134,199.142880 584.489910,198.937928 584.968685,198.856500 585.447460,198.444673 585.926235,198.203760 586.405010,198.144970 586.883786,198.140656 587.362561,197.303340 587.841336,197.085330 588.320111,196.726157 588.798887,196.686720 589.277662,196.573548 589.756437,196.524180 590.235212,196.397760 590.713987,196.049329 591.192763,195.873539 591.671538,195.796620 592.150313,195.742698 592.629088,195.530880 593.107864,195.285188 593.586639,195.121950 594.065414,194.983751 594.544189,194.575430 595.022965,193.923540 595.501740,193.887376 595.980515,193.785954 596.459290,193.469460 596.938065,193.195980 597.416841,193.024169 597.895616,192.515166 598.374391,192.243960 598.853166,192.130440 599.331942,191.985960 599.810717,191.984184 600.289492,191.767717 600.768267,191.689810 601.247042,191.648420 601.725818,190.834603 602.204593,190.530079 602.683368,190.484400 603.162143,189.858595 603.640919,189.746520 604.119694,189.641658 604.598469,189.400538 605.077244,189.276960 605.556019,189.160860 606.034795,189.049920 606.513570,188.996746 606.992345,187.992374 607.471120,187.452900 607.949896,187.306506 608.428671,187.075127 608.907446,186.805922 609.386221,186.168366 609.864997,185.858504 610.343772,185.713065 610.822547,185.573237 611.301322,185.162634 611.780097,184.945140 612.258873,184.783406 612.737648,184.654475 613.216423,184.650986 613.695198,184.576716 614.173974,184.570190 614.652749,184.493902 615.131524,184.306753 615.610299,184.106058 616.089074,184.073650 616.567850,183.987960 617.046625,183.964707 617.525400,183.025620 618.004175,183.005784 618.482951,182.966280 618.961726,182.546954 619.440501,182.019420 619.919276,181.078332 620.398051,180.702641 620.876827,180.475688 621.355602,180.341119 621.834377,179.711843 622.313152,179.371643 622.791928,178.866787 623.270703,178.710136 623.749478,178.637040 624.228253,178.584594 624.707029,178.450603 625.185804,178.188120 625.664579,178.118164 626.143354,178.116142 626.622129,177.798540 627.100905,177.782929 627.579680,177.518352 628.058455,177.478531 628.537230,177.334914 629.016006,177.132244 629.494781,177.125921 629.973556,177.119125 630.452331,176.890861 630.931106,176.877226 631.409882,176.764787 631.888657,176.733517 632.367432,176.338260 632.846207,176.219378 633.324983,176.128528 633.803758,176.106366 634.282533,175.731960 634.761308,175.659204 635.240084,175.390131 635.718859,175.255332 636.197634,175.115264 636.676409,175.060230 637.155184,174.801559 637.633960,174.788366 638.112735,174.356820 638.591510,173.406549 639.070285,173.161248 639.549061,172.965763 640.027836,172.960203 640.506611,172.933633 640.985386,172.494060 641.464161,172.328940 641.942937,172.295400 642.421712,171.859380 642.900487,171.704580 643.379262,170.741365 643.858038,170.701485 644.336813,170.510040 644.815588,170.189786 645.294363,169.854020 645.773138,169.082919 646.251914,168.775668 646.730689,168.691708 647.209464,168.576264 647.688239,168.307397 648.167015,168.193304 648.645790,168.092580 649.124565,168.010485 649.603340,167.427519 650.082116,167.365020 650.560891,167.261776 651.039666,167.140052 651.518441,167.029104 651.997216,166.220198 652.475992,166.218468 652.954767,165.669960 653.433542,164.902618 653.912317,164.790878 654.391093,164.643894 654.869868,164.607423 655.348643,164.426400 655.827418,164.363803 656.306193,164.262295 656.784969,164.122721 657.263744,163.955233 657.742519,163.611818 658.221294,163.439474 658.700070,163.331719 659.178845,163.024454 659.657620,162.848062 660.136395,162.359820 660.615170,162.323919 661.093946,162.071110 661.572721,161.895420 662.051496,160.484160 662.530271,160.350010 663.009047,160.072544 663.487822,159.359105 663.966597,159.336060 664.445372,159.226607 664.924148,159.034458 665.402923,159.018020 665.881698,158.734920 666.360473,158.204793 666.839248,157.891894 667.318024,157.718271 667.796799,157.476320 668.275574,157.015296 668.754349,156.760839 669.233125,156.755764 669.711900,156.454113 670.190675,155.927880 670.669450,155.082956 671.148225,154.545000 671.627001,153.959471 672.105776,151.832795 672.584551,151.710612 673.063326,151.645004 673.542102,151.414170 674.020877,150.954570 674.499652,150.731760 674.978427,150.719166 675.457203,150.512460 675.935978,150.300900 676.414753,150.042900 676.893528,148.492320 677.372303,148.200780 677.851079,147.911718 678.329854,147.210060 678.808629,146.335440 679.287404,146.193234 679.766180,145.405296 680.244955,145.355040 680.723730,145.238315 681.202505,144.681966 681.681280,144.568918 682.160056,144.028658 682.638831,142.652394 683.117606,142.604760 683.596381,142.445500 684.075157,142.319746 684.553932,141.570180 685.032707,141.260887 685.511482,141.248013 685.990257,140.871000 686.469033,140.365932 686.947808,140.194263 687.426583,139.808273 687.905358,139.675610 688.384134,139.078468 688.862909,138.366539 689.341684,137.609880 689.820459,136.951440 690.299235,136.797180 690.778010,136.721586 691.256785,135.232981 691.735560,134.944740 692.214335,134.445768 692.693111,134.307920 693.171886,134.099134 693.650661,132.565980 694.129436,132.447300 694.608212,132.352538 695.086987,131.245020 695.565762,131.237280 696.044537,130.920714 696.523312,130.770300 697.002088,130.640242 697.480863,129.920803 697.959638,128.629993 698.438413,127.898760 698.917189,127.484589 699.395964,124.798446 699.874739,124.565231 700.353514,124.041092 700.832289,123.917355 701.311065,123.856629 701.789840,123.528075 702.268615,122.771207 702.747390,122.405940 703.226166,121.033896 703.704941,120.365247 704.183716,118.693244 704.662491,116.810694 705.141267,115.067074 705.620042,115.040040 706.098817,114.482675 706.577592,114.469086 707.056367,113.490750 707.535143,112.429080 708.013918,112.076603 708.492693,111.538761 708.971468,111.368700 709.450244,111.126814 709.929019,110.917200 710.407794,110.439900 710.886569,110.061864 711.365344,109.894928 711.844120,109.882544 712.322895,109.472400 712.801670,109.425110 713.280445,109.151888 713.759221,109.129260 714.237996,109.005420 714.716771,108.845089 715.195546,108.770481 715.674322,108.767764 716.153097,108.172080 716.631872,107.926149 717.110647,106.984231 717.589422,106.641882 718.068198,106.433160 718.546973,105.457920 719.025748,105.097676 719.504523,105.034800 719.983299,104.467716 720.462074,104.410353 720.940849,104.278743 721.419624,103.987320 721.898399,103.905018 722.377175,103.820318 722.855950,103.540980 723.334725,103.466934 723.813500,103.241329 724.292276,103.211231 724.771051,103.179738 725.249826,103.046652 725.728601,102.785040 726.207376,102.774720 726.686152,102.552840 727.164927,102.462540 727.643702,102.335443 728.122477,102.236398 728.601253,101.696280 729.080028,101.636813 729.558803,100.789607 730.037578,100.129416 730.516354,99.908340 730.995129,99.780630 731.473904,99.511020 731.952679,99.434136 732.431454,99.132645 732.910230,98.435160 733.389005,98.189492 733.867780,98.169344 734.346555,98.083959 734.825331,97.220624 735.304106,97.208217 735.782881,96.765900 736.261656,96.084240 736.740431,95.912436 737.219207,95.402433 737.697982,95.016660 738.176757,94.556616 738.655532,94.100760 739.134308,93.951120 739.613083,93.613184 740.091858,93.240714 740.570633,93.137949 741.049408,92.617442 741.528184,92.611444 742.006959,92.543709 742.485734,92.391954 742.964509,91.459839 743.443285,91.351770 743.922060,90.217860 744.400835,90.042420 744.879610,89.601680 745.358386,89.596933 745.837161,88.699464 746.315936,88.681136 746.794711,88.571820 747.273486,88.023777 747.752262,87.904475 748.231037,87.596580 748.709812,87.470084 749.188587,87.243295 749.667363,86.178612 750.146138,86.035003 750.624913,85.855004 751.103688,85.842180 751.582463,85.021664 752.061239,84.351456 752.540014,83.463420 753.018789,83.115120 753.497564,82.269049 753.976340,81.570453 754.455115,80.967452 754.933890,80.132203 755.412665,79.609534 755.891441,79.439801 756.370216,79.282196 756.848991,78.513285 757.327766,78.444505 757.806541,78.283812 758.285317,77.943785 758.764092,77.782387 759.242867,77.543843 759.721642,77.513940 760.200418,76.688821 760.679193,75.303320 761.157968,75.282085 761.636743,75.243206 762.115518,75.150918 762.594294,74.987858 763.073069,74.928824 763.551844,74.268956 764.030619,74.027573 764.509395,73.621237 764.988170,73.285320 765.466945,72.122746 765.945720,71.262600 766.424495,70.973640 766.903271,69.674807 767.382046,68.416860 767.860821,67.626492 768.339596,66.552569 768.818372,66.253464 769.297147,65.691986 769.775922,65.684115 770.254697,65.171994 770.733473,62.113074 771.212248,60.158542 771.691023,57.927278 772.169798,57.680731 772.648573,57.225002 773.127349,56.608463 773.606124,56.319938 774.084899,55.240982 774.563674,53.883370 775.042450,53.610240 775.521225,52.848548 776.000000,44.641408" />
<path fill="#00ff00" opacity="0.7" stroke-width="0" d="M 88,399 L  88.000000,394.992203 88.478775,394.211351 88.957550,394.190880 89.436326,393.632754 89.915101,393.571505 90.393876,393.422040 90.872651,393.395715 91.351427,393.389134 91.830202,393.322251 92.308977,393.240932 92.787752,392.873790 93.266527,392.804904 93.745303,392.762321 94.224078,392.726793 94.702853,392.372461 95.181628,392.292000 95.660404,392.287009 96.139179,392.286840 96.617954,392.278007 97.096729,392.179512 97.575505,392.175900 98.054280,392.160936 98.533055,392.119140 99.011830,392.088307 99.490605,391.835340 99.969381,391.690860 100.448156,391.662480 100.926931,391.657320 101.405706,391.625748 101.884482,391.592439 102.363257,391.540739 102.842032,391.525740 103.320807,391.490626 103.799582,391.483318 104.278358,391.443954 104.757133,391.435102 105.235908,391.358970 105.714683,391.330950 106.193459,391.300603 106.672234,391.226460 107.151009,391.187760 107.629784,391.148754 108.108559,391.115520 108.587335,391.107824 109.066110,391.084560 109.544885,391.068468 110.023660,391.029606 110.502436,390.997627 110.981211,390.950400 111.459986,390.924163 111.938761,390.856505 112.417537,390.839460 112.896312,390.819738 113.375087,390.762610 113.853862,390.736260 114.332637,390.673072 114.811413,390.672276 115.290188,390.635553 115.768963,390.562131 116.247738,390.501742 116.726514,390.491160 117.205289,390.408600 117.684064,390.382800 118.162839,390.374341 118.641614,390.338813 119.120390,390.310560 119.599165,390.310210 120.077940,390.302820 120.556715,390.295080 121.035491,390.285521 121.514266,390.248640 121.993041,390.202637 122.471816,390.177948 122.950592,390.170982 123.429367,390.078618 123.908142,390.052560 124.386917,390.007926 124.865692,389.969125 125.344468,389.958631 125.823243,389.941620 126.302018,389.857355 126.780793,389.847513 127.259569,389.793336 127.738344,389.774182 128.217119,389.761020 128.695894,389.745540 129.174669,389.735614 129.653445,389.724900 130.132220,389.721804 130.610995,389.714538 131.089770,389.701505 131.568546,389.661432 132.047321,389.658738 132.526096,389.642340 133.004871,389.616540 133.483646,389.591308 133.962422,389.519532 134.441197,389.483607 134.919972,389.478531 135.398747,389.474640 135.877523,389.472060 136.356298,389.454000 136.835073,389.426001 137.313848,389.407475 137.792624,389.396724 138.271399,389.386666 138.750174,389.361636 139.228949,389.226610 139.707724,389.223348 140.186500,389.160912 140.665275,389.141820 141.144050,389.131500 141.622825,389.113102 142.101601,389.090220 142.580376,389.090220 143.059151,389.077574 143.537926,389.076030 144.016701,389.074740 144.495477,389.067000 144.974252,389.040325 145.453027,389.016712 145.931802,389.002500 146.410578,388.976700 146.889353,388.925100 147.368128,388.865760 147.846903,388.864407 148.325678,388.831416 148.804454,388.825180 149.283229,388.814160 149.762004,388.721280 150.240779,388.716120 150.719555,388.690845 151.198330,388.681692 151.677105,388.620660 152.155880,388.612920 152.634656,388.545840 153.113431,388.533946 153.592206,388.491966 154.070981,388.468440 154.549756,388.455540 155.028532,388.450380 155.507307,388.431358 155.986082,388.382243 156.464857,388.351790 156.943633,388.348159 157.422408,388.323875 157.901183,388.318800 158.379958,388.318800 158.858733,388.313640 159.337509,388.261078 159.816284,388.246818 160.295059,388.238820 160.773834,388.179742 161.252610,388.086600 161.731385,388.055640 162.210160,387.949860 162.688935,387.865339 163.167711,387.864720 163.646486,387.864551 164.125261,387.849153 164.604036,387.836636 165.082811,387.796678 165.561587,387.747816 166.040362,387.730560 166.519137,387.727206 166.997912,387.686700 167.476688,387.537060 167.955463,387.511810 168.434238,387.468432 168.913013,387.413220 169.391788,387.355892 169.870564,387.354472 170.349339,387.346140 170.828114,387.318944 171.306889,387.256190 171.785665,387.235200 172.264440,387.173280 172.743215,387.103054 173.221990,387.102871 173.700765,387.057180 174.179541,387.046860 174.658316,387.046292 175.137091,387.001013 175.615866,386.982360 176.094642,386.971279 176.573417,386.969460 177.052192,386.943660 177.530967,386.886900 178.009743,386.877384 178.488518,386.808166 178.967293,386.774412 179.446068,386.719200 179.924843,386.704820 180.403619,386.685660 180.882394,386.659860 181.361169,386.619096 181.839944,386.613462 182.318720,386.512800 182.797495,386.507640 183.276270,386.489580 183.755045,386.449332 184.233820,386.427660 184.712596,386.419220 185.191371,386.415521 185.670146,386.379864 186.148921,386.265120 186.627697,386.214569 187.106472,386.195460 187.585247,386.160476 188.064022,386.131298 188.542797,385.883280 189.021573,385.811548 189.500348,385.782660 189.979123,385.687200 190.457898,385.684620 190.936674,385.620120 191.415449,385.589335 191.894224,385.474678 192.372999,385.429200 192.851775,385.344318 193.330550,385.305360 193.809325,385.204740 194.288100,385.183444 194.766875,385.166040 195.245651,385.155895 195.724426,385.073247 196.203201,385.008660 196.681976,385.000920 197.160752,384.960427 197.639527,384.913200 198.118302,384.905460 198.597077,384.900300 199.075852,384.825319 199.554628,384.786780 200.033403,384.746275 200.512178,384.637140 200.990953,384.608760 201.469729,384.573148 201.948504,384.522264 202.427279,384.511769 202.906054,384.497820 203.384830,384.355533 203.863605,384.288753 204.342380,384.288753 204.821155,384.281100 205.299930,384.239820 205.778706,384.172740 206.257481,384.149351 206.736256,384.146940 207.215031,384.084132 207.693807,384.065607 208.172582,383.928570 208.651357,383.766157 209.130132,383.710920 209.608907,383.641260 210.087683,383.624949 210.566458,383.615460 211.045233,383.566440 211.524008,383.527817 212.002784,383.499360 212.481559,383.438793 212.960334,383.390577 213.439109,383.197500 213.917884,383.089140 214.396660,383.081400 214.875435,383.070826 215.354210,383.068289 215.832985,383.039858 216.311761,383.034960 216.790536,382.900800 217.269311,382.888111 217.748086,382.756757 218.226862,382.743639 218.705637,382.732094 219.184412,382.717620 219.663187,382.599071 220.141962,382.548059 220.620738,382.393259 221.099513,382.147440 221.578288,381.716580 222.057063,381.590160 222.535839,381.571043 223.014614,381.562698 223.493389,381.422460 223.972164,381.239280 224.450939,381.195420 224.929715,381.148980 225.408490,381.095937 225.887265,380.978700 226.366040,380.964277 226.844816,380.938194 227.323591,380.923402 227.802366,380.919885 228.281141,380.775580 228.759916,380.738760 229.238692,380.719926 229.717467,380.670157 230.196242,380.537520 230.675017,380.333150 231.153793,380.111862 231.632568,379.988461 232.111343,379.894127 232.590118,379.586050 233.068894,379.420380 233.547669,379.324920 234.026444,379.320606 234.505219,379.242360 234.983994,379.198084 235.462770,379.128840 235.941545,379.035875 236.420320,378.951116 236.899095,378.904638 237.377871,378.852386 237.856646,378.803760 238.335421,378.703436 238.814196,378.641994 239.292971,378.492870 239.771747,377.611800 240.250522,377.511180 240.729297,377.500415 241.208072,377.446680 241.686848,377.005711 242.165623,376.980474 242.644398,376.959060 243.123173,376.939731 243.601949,376.894560 244.080724,376.807770 244.559499,376.729790 245.038274,376.727483 245.517049,376.719120 245.995825,376.624841 246.474600,376.536236 246.953375,376.475331 247.432150,376.246980 247.910926,376.121334 248.389701,376.101726 248.868476,375.946152 249.347251,375.842445 249.826026,375.568440 250.304802,375.294610 250.783577,375.271740 251.262352,375.220182 251.741127,375.203941 252.219903,374.980200 252.698678,374.967300 253.177453,374.662292 253.656228,374.606100 254.135003,374.267528 254.613779,374.150664 255.092554,373.780500 255.571329,373.722997 256.050104,373.463247 256.528880,373.446834 257.007655,373.416720 257.486430,373.190380 257.965205,373.145862 258.443981,373.125438 258.922756,373.067193 259.401531,372.998760 259.880306,372.877500 260.359081,372.606600 260.837857,372.518705 261.316632,372.477600 261.795407,372.276360 262.274182,371.729400 262.752958,371.708760 263.231733,371.633390 263.710508,371.582636 264.189283,371.463966 264.668058,370.764222 265.146834,370.688917 265.625609,370.570179 266.104384,370.283288 266.583159,370.266024 267.061935,370.082854 267.540710,370.041564 268.019485,369.805769 268.498260,369.592568 268.977035,369.482220 269.455811,369.420300 269.934586,369.415140 270.413361,369.229380 270.892136,368.981700 271.370912,368.885056 271.849687,367.898319 272.328462,367.811736 272.807237,367.613784 273.286013,367.580760 273.764788,367.441102 274.243563,367.087586 274.722338,366.946080 275.201113,366.750000 275.679889,366.303660 276.158664,365.898600 276.637439,365.783777 277.116214,365.712753 277.594990,365.537823 278.073765,365.410980 278.552540,365.261340 279.031315,364.875482 279.510090,364.334951 279.988866,364.332413 280.467641,364.197915 280.946416,364.035840 281.425191,363.998503 281.903967,363.873300 282.382742,363.616393 282.861517,363.310860 283.340292,363.050280 283.819068,362.831898 284.297843,362.598006 284.776618,362.540793 285.255393,362.278369 285.734168,362.235000 286.212944,362.228441 286.691719,361.842840 287.170494,361.610640 287.649269,361.551300 288.128045,361.497797 288.606820,361.355685 289.085595,361.280400 289.564370,361.264146 290.043145,360.890820 290.521921,360.855757 291.000696,360.245820 291.479471,360.171000 291.958246,360.100597 292.437022,359.796244 292.915797,359.732400 293.394572,359.074719 293.873347,359.015160 294.352122,358.615260 294.830898,358.575528 295.309673,358.561338 295.788448,358.426658 296.267223,358.156020 296.745999,357.898020 297.224774,357.485220 297.703549,357.479754 298.182324,357.245280 298.661100,357.183360 299.139875,356.871180 299.618650,356.848721 300.097425,356.602294 300.576200,356.351310 301.054976,355.994461 301.533751,355.787580 302.012526,355.715340 302.491301,354.367806 302.970077,354.159600 303.448852,354.090972 303.927627,354.048660 304.406402,353.534911 304.885177,353.486176 305.363953,353.181780 305.842728,352.743476 306.321503,352.428549 306.800278,352.121400 307.279054,352.006848 307.757829,351.442860 308.236604,350.710013 308.715379,349.972260 309.194154,349.510182 309.672930,349.477957 310.151705,349.365960 310.630480,348.981540 311.109255,348.630660 311.588031,348.545695 312.066806,347.201340 312.545581,347.149740 313.024356,347.111040 313.503132,346.723279 313.981907,346.687751 314.460682,345.814780 314.939457,345.129600 315.418232,344.249820 315.897008,344.244660 316.375783,343.633812 316.854558,343.302960 317.333333,343.222980 317.812109,343.195912 318.290884,342.959820 318.769659,342.951048 319.248434,342.928902 319.727209,342.817920 320.205985,342.410978 320.684760,342.327720 321.163535,341.891700 321.642310,341.398920 322.121086,340.425254 322.599861,340.373941 323.078636,340.368866 323.557411,339.582600 324.036186,339.569442 324.514962,339.196374 324.993737,339.176282 325.472512,338.929729 325.951287,338.274540 326.430063,336.656880 326.908838,336.550007 327.387613,335.709246 327.866388,334.866360 328.345164,334.057519 328.823939,334.001764 329.302714,333.860160 329.781489,333.831780 330.260264,333.714132 330.739040,333.406080 331.217815,333.364800 331.696590,333.168020 332.175365,333.029400 332.654141,332.952774 333.132916,332.758719 333.611691,332.730382 334.090466,331.930997 334.569241,331.360140 335.048017,331.019580 335.526792,330.949920 336.005567,330.410442 336.484342,329.490930 336.963118,328.909140 337.441893,327.742980 337.920668,327.637200 338.399443,327.193102 338.878219,326.898728 339.356994,326.713560 339.835769,326.406980 340.314544,326.304346 340.793319,326.265156 341.272095,326.112420 341.750870,325.868807 342.229645,325.557720 342.708420,325.428020 343.187196,325.206840 343.665971,324.123240 344.144746,323.698983 344.623521,322.477974 345.102296,321.480342 345.581072,320.248080 346.059847,319.920039 346.538622,317.501154 347.017397,317.478122 347.496173,315.490560 347.974948,315.117750 348.453723,314.945664 348.932498,314.534129 349.411273,313.985939 349.890049,313.673172 350.368824,313.453908 350.847599,313.031820 351.326374,311.171640 351.805150,309.222890 352.283925,308.795460 352.762700,308.418780 353.241475,307.809681 353.720251,307.438380 354.199026,306.348264 354.677801,305.118960 355.156576,304.637980 355.635351,303.606468 356.114127,303.470340 356.592902,302.848560 357.071677,302.462522 357.550452,302.295128 358.029228,302.210708 358.508003,302.126685 358.986778,302.071980 359.465553,301.983541 359.944328,301.695765 360.423104,301.207680 360.901879,301.201928 361.380654,301.162593 361.859429,300.438079 362.338205,299.270988 362.816980,298.893420 363.295755,298.873554 363.774530,298.758410 364.253305,298.529725 364.732081,298.114260 365.210856,297.577620 365.689631,296.275769 366.168406,296.250866 366.647182,295.372342 367.125957,295.370536 367.604732,295.159652 368.083507,295.069504 368.562283,294.930540 369.041058,293.733376 369.519833,293.581200 369.998608,293.336100 370.477383,292.636920 370.956159,292.525515 371.434934,292.224120 371.913709,289.656102 372.392484,289.000169 372.871260,288.784980 373.350035,288.344237 373.828810,288.227700 374.307585,287.925840 374.786360,286.695180 375.265136,286.148660 375.743911,286.097508 376.222686,285.634800 376.701461,285.363681 377.180237,284.262240 377.659012,282.661127 378.137787,282.618061 378.616562,282.468921 379.095338,281.842458 379.574113,281.709816 380.052888,280.672639 380.531663,280.671591 381.010438,280.664172 381.489214,280.614120 381.967989,280.443840 382.446764,280.143773 382.925539,278.865049 383.404315,278.214978 383.883090,277.125173 384.361865,276.510755 384.840640,276.230911 385.319415,275.147100 385.798191,274.834920 386.276966,274.726560 386.755741,274.715902 387.234516,274.375428 387.713292,274.136746 388.192067,274.007628 388.670842,273.492728 389.149617,273.223710 389.628392,273.188880 390.107168,273.106997 390.585943,272.840477 391.064718,272.424500 391.543493,271.857600 392.022269,271.292284 392.501044,270.899193 392.979819,270.832050 393.458594,270.172860 393.937370,270.015480 394.416145,269.799722 394.894920,269.164517 395.373695,268.422393 395.852470,266.790305 396.331246,266.603799 396.810021,266.202590 397.288796,266.150564 397.767571,265.980622 398.246347,265.564684 398.725122,265.544034 399.203897,265.091148 399.682672,264.835627 400.161447,264.817261 400.640223,264.636180 401.118998,264.532586 401.597773,264.418868 402.076548,263.529360 402.555324,263.498400 403.034099,263.204872 403.512874,262.654740 403.991649,262.605458 404.470424,262.352880 404.949200,262.084560 405.427975,261.497566 405.906750,260.688780 406.385525,260.590740 406.864301,260.519274 407.343076,260.419352 407.821851,259.981987 408.300626,259.581960 408.779402,259.488075 409.258177,259.225920 409.736952,258.955020 410.215727,258.836598 410.694502,258.726356 411.173278,257.901112 411.652053,257.334780 412.130828,257.146440 412.609603,256.826520 413.088379,255.812580 413.567154,255.744984 414.045929,255.300936 414.524704,254.866752 415.003479,254.708340 415.482255,254.700600 415.961030,254.409060 416.439805,254.006580 416.918580,253.897302 417.397356,253.781858 417.876131,253.761480 418.354906,253.258338 418.833681,252.915240 419.312457,252.367668 419.791232,252.105120 420.270007,252.021207 420.748782,251.563062 421.227557,250.835410 421.706333,250.688700 422.185108,250.401897 422.663883,249.986940 423.142658,249.383303 423.621434,248.983062 424.100209,248.948046 424.578984,248.596845 425.057759,248.273820 425.536534,248.173200 426.015310,248.031042 426.494085,247.773089 426.972860,247.486328 427.451635,247.284252 427.930411,247.194492 428.409186,247.097856 428.887961,246.897193 429.366736,246.310440 429.845511,246.309740 430.324287,245.776380 430.803062,245.653546 431.281837,245.246234 431.760612,245.220692 432.239388,245.083857 432.718163,245.002562 433.196938,244.801140 433.675713,244.781079 434.154489,244.576680 434.633264,244.555279 435.112039,244.504440 435.590814,244.432200 436.069589,244.243860 436.548365,244.117440 437.027140,244.071259 437.505915,244.034364 437.984690,243.738138 438.463466,243.694932 438.942241,243.598860 439.421016,243.024535 439.899791,242.869159 440.378566,242.832177 440.857342,242.425738 441.336117,242.360766 441.814892,242.215980 442.293667,242.101868 442.772443,241.842472 443.251218,241.535410 443.729993,241.496160 444.208768,241.400700 444.687543,241.111998 445.166319,240.980858 445.645094,240.830520 446.123869,240.670560 446.602644,240.382890 447.081420,240.348891 447.560195,240.307161 448.038970,239.762659 448.517745,239.737490 448.996521,239.053932 449.475296,239.005686 449.954071,238.895520 450.432846,238.857497 450.911621,238.656061 451.390397,238.555992 451.869172,238.242780 452.347947,238.183239 452.826722,237.976515 453.305498,237.939482 453.784273,237.442980 454.263048,236.734072 454.741823,236.630280 455.220598,236.506440 455.699374,236.490515 456.178149,236.255640 456.656924,236.036880 457.135699,235.872285 457.614475,235.760820 458.093250,235.513140 458.572025,235.133880 459.050800,234.632844 459.529576,234.568860 460.008351,234.542725 460.487126,234.537900 460.965901,234.502593 461.444676,234.404772 461.923452,234.143160 462.402227,234.140580 462.881002,234.117360 463.359777,233.974686 463.838553,233.710160 464.317328,233.709720 464.796103,233.624580 465.274878,233.525398 465.753653,233.461078 466.232429,233.455357 466.711204,233.156725 467.189979,233.007960 467.668754,232.995060 468.147530,232.829940 468.626305,232.723339 469.105080,232.605226 469.583855,232.602900 470.062630,232.506256 470.541406,232.424705 471.020181,232.365540 471.498956,231.883428 471.977731,231.854066 472.456507,231.663006 472.935282,231.449640 473.414057,231.439320 473.892832,231.351600 474.371608,231.137460 474.850383,231.049740 475.329158,230.956860 475.807933,230.804640 476.286708,230.451661 476.765484,230.327340 477.244259,230.180280 477.723034,229.670112 478.201809,229.656667 478.680585,229.578108 479.159360,229.577744 479.638135,229.377266 480.116910,229.347482 480.595685,229.312110 481.074461,229.220268 481.553236,229.188893 482.032011,229.163760 482.510786,228.732900 482.989562,228.495540 483.468337,228.462516 483.947112,228.019593 484.425887,227.817000 484.904662,227.638938 485.383438,227.638499 485.862213,227.626249 486.340988,227.405723 486.819763,227.102340 487.298539,227.090664 487.777314,226.962102 488.256089,226.828292 488.734864,226.716661 489.213640,226.430508 489.692415,226.398525 490.171190,226.348149 490.649965,226.293051 491.128740,226.253520 491.607516,226.204500 492.086291,226.120249 492.565066,225.735972 493.043841,225.728687 493.522617,225.662700 494.001392,225.618925 494.480167,225.547374 494.958942,225.415908 495.437717,225.380380 495.916493,225.035760 496.395268,225.012464 496.874043,224.940300 497.352818,224.620948 497.831594,224.594064 498.310369,224.450100 498.789144,224.446230 499.267919,224.403364 499.746695,224.233380 500.225470,224.145660 500.704245,224.010020 501.183020,223.841660 501.661795,223.818875 502.140571,223.663200 502.619346,223.619213 503.098121,223.609020 503.576896,223.584236 504.055672,223.420680 504.534447,223.273286 505.013222,222.890892 505.491997,222.599817 505.970772,222.402061 506.449548,222.297069 506.928323,222.290142 507.407098,222.049850 507.885873,221.958126 508.364649,221.819980 508.843424,221.728510 509.322199,221.670848 509.800974,221.402420 510.279749,221.349946 510.758525,221.340354 511.237300,221.271836 511.716075,221.261220 512.194850,221.111186 512.673626,221.006237 513.152401,220.703864 513.631176,220.464000 514.109951,220.436931 514.588727,220.192326 515.067502,220.091605 515.546277,219.986700 516.025052,219.836028 516.503827,219.835495 516.982603,219.728911 517.461378,219.692064 517.940153,219.412060 518.418928,219.280812 518.897704,219.251400 519.376479,218.846908 519.855254,218.776068 520.334029,218.690766 520.812804,218.107017 521.291580,217.990554 521.770355,217.951080 522.249130,217.825633 522.727905,217.718705 523.206681,217.697390 523.685456,217.571820 524.164231,217.504740 524.643006,217.395014 525.121781,217.217573 525.600557,216.884359 526.079332,216.859740 526.558107,216.724269 527.036882,216.690466 527.515658,216.575940 527.994433,216.544849 528.473208,216.518969 528.951983,216.421534 529.430759,216.388475 529.909534,216.344274 530.388309,216.322881 530.867084,216.204420 531.345859,216.103800 531.824635,216.082285 532.303410,216.078875 532.782185,215.970570 533.260960,215.944686 533.739736,215.478041 534.218511,215.455416 534.697286,215.376240 535.176061,215.167518 535.654836,215.097600 536.133612,214.886040 536.612387,214.873140 537.091162,214.709288 537.569937,214.640632 538.048713,214.607410 538.527488,214.436605 539.006263,214.343902 539.485038,213.735285 539.963814,213.681696 540.442589,213.554760 540.921364,213.490260 541.400139,213.086774 541.878914,213.034371 542.357690,212.855580 542.836465,212.602740 543.315240,212.582100 543.794015,212.357898 544.272791,212.260446 544.751566,212.197680 545.230341,212.185786 545.709116,212.166720 546.187891,211.888080 546.666667,211.770948 547.145442,211.765464 547.624217,211.467540 548.102992,210.819960 548.581768,210.614172 549.060543,210.239460 549.539318,210.192041 550.018093,210.175658 550.496868,209.906822 550.975644,209.891160 551.454419,209.704977 551.933194,209.506740 552.411969,209.486734 552.890745,209.366904 553.369520,209.227889 553.848295,209.158440 554.327070,209.112875 554.805846,208.975260 555.284621,208.824393 555.763396,208.804980 556.242171,208.755960 556.720946,208.719500 557.199722,208.651098 557.678497,208.551058 558.157272,208.528920 558.636047,208.463424 559.114823,208.457113 559.593598,208.350900 560.072373,208.085342 560.551148,207.442007 561.029923,207.136491 561.508699,206.985564 561.987474,206.854500 562.466249,206.730660 562.945024,206.579363 563.423800,206.525878 563.902575,206.158556 564.381350,205.956787 564.860125,205.949178 565.338900,205.600802 565.817676,205.530110 566.296451,205.329720 566.775226,205.318963 567.254001,204.883424 567.732777,204.855000 568.211552,204.760108 568.690327,204.710702 569.169102,204.618427 569.647878,204.563460 570.126653,204.529920 570.605428,204.515803 571.084203,204.342807 571.562978,204.186780 572.041754,204.040820 572.520529,203.905220 572.999304,203.894278 573.478079,203.307000 573.956855,202.992240 574.435630,202.886766 574.914405,202.772424 575.393180,202.469652 575.871955,202.364268 576.350731,202.013193 576.829506,201.980203 577.308281,201.821694 577.787056,201.476648 578.265832,201.047360 578.744607,200.911728 579.223382,200.543820 579.702157,200.437458 580.180932,200.341749 580.659708,200.303880 581.138483,200.121140 581.617258,200.077796 582.096033,199.938620 582.574809,199.915393 583.053584,199.901400 583.532359,199.516980 584.011134,199.142880 584.489910,198.937928 584.968685,198.856500 585.447460,198.444673 585.926235,198.203760 586.405010,198.144970 586.883786,198.140656 587.362561,197.303340 587.841336,197.085330 588.320111,196.726157 588.798887,196.686720 589.277662,196.573548 589.756437,196.524180 590.235212,196.397760 590.713987,196.049329 591.192763,195.873539 591.671538,195.796620 592.150313,195.742698 592.629088,195.530880 593.107864,195.285188 593.586639,195.121950 594.065414,194.983751 594.544189,194.575430 595.022965,193.923540 595.501740,193.887376 595.980515,193.785954 596.459290,193.469460 596.938065,193.195980 597.416841,193.024169 597.895616,192.515166 598.374391,192.243960 598.853166,192.130440 599.331942,191.985960 599.810717,191.984184 600.289492,191.767717 600.768267,191.689810 601.247042,191.648420 601.725818,190.834603 602.204593,190.530079 602.683368,190.484400 603.162143,189.858595 603.640919,189.746520 604.119694,189.641658 604.598469,189.400538 605.077244,189.276960 605.556019,189.160860 606.034795,189.049920 606.513570,188.996746 606.992345,187.992374 607.471120,187.452900 607.949896,187.306506 608.428671,187.075127 608.907446,186.805922 609.386221,186.168366 609.864997,185.858504 610.343772,185.713065 610.822547,185.573237 611.301322,185.162634 611.780097,184.945140 612.258873,184.783406 612.737648,184.654475 613.216423,184.650986 613.695198,184.576716 614.173974,184.570190 614.652749,184.493902 615.131524,184.306753 615.610299,184.106058 616.089074,184.073650 616.567850,183.987960 617.046625,183.964707 617.525400,183.025620 618.004175,183.005784 618.482951,182.966280 618.961726,182.546954 619.440501,182.019420 619.919276,181.078332 620.398051,180.702641 620.876827,180.475688 621.355602,180.341119 621.834377,179.711843 622.313152,179.371643 622.791928,178.866787 623.270703,178.710136 623.749478,178.637040 624.228253,178.584594 624.707029,178.450603 625.185804,178.188120 625.664579,178.118164 626.143354,178.116142 626.622129,177.798540 627.100905,177.782929 627.579680,177.518352 628.058455,177.478531 628.537230,177.334914 629.016006,177.132244 629.494781,177.125921 629.973556,177.119125 630.452331,176.890861 630.931106,176.877226 631.409882,176.764787 631.888657,176.733517 632.367432,176.338260 632.846207,176.219378 633.324983,176.128528 633.803758,176.106366 634.282533,175.731960 634.761308,175.659204 635.240084,175.390131 635.718859,175.255332 636.197634,175.115264 636.676409,175.060230 637.155184,174.801559 637.633960,174.788366 638.112735,174.356820 638.591510,173.406549 639.070285,173.161248 639.549061,172.965763 640.027836,172.960203 640.506611,172.933633 640.985386,172.494060 641.464161,172.328940 641.942937,172.295400 642.421712,171.859380 642.900487,171.704580 643.379262,170.741365 643.858038,170.701485 644.336813,170.510040 644.815588,170.189786 645.294363,169.854020 645.773138,169.082919 646.251914,168.775668 646.730689,168.691708 647.209464,168.576264 647.688239,168.307397 648.167015,168.193304 648.645790,168.092580 649.124565,168.010485 649.603340,167.427519 650.082116,167.365020 650.560891,167.261776 651.039666,167.140052 651.518441,167.029104 651.997216,166.220198 652.475992,166.218468 652.954767,165.669960 653.433542,164.902618 653.912317,164.790878 654.391093,164.643894 654.869868,164.607423 655.348643,164.426400 655.827418,164.363803 656.306193,164.262295 656.784969,164.122721 657.263744,163.955233 657.742519,163.611818 658.221294,163.439474 658.700070,163.331719 659.178845,163.024454 659.657620,162.848062 660.136395,162.359820 660.615170,162.323919 661.093946,162.071110 661.572721,161.895420 662.051496,160.484160 662.530271,160.350010 663.009047,160.072544 663.487822,159.359105 663.966597,159.336060 664.445372,159.226607 664.924148,159.034458 665.402923,159.018020 665.881698,158.734920 666.360473,158.204793 666.839248,157.891894 667.318024,157.718271 667.796799,157.476320 668.275574,157.015296 668.754349,156.760839 669.233125,156.755764 669.711900,156.454113 670.190675,155.927880 670.669450,155.082956 671.148225,154.545000 671.627001,153.959471 672.105776,151.832795 672.584551,151.710612 673.063326,151.645004 673.542102,151.414170 674.020877,150.954570 674.499652,150.731760 674.978427,150.719166 675.457203,150.512460 675.935978,150.300900 676.414753,150.042900 676.893528,148.492320 677.372303,148.200780 677.851079,147.911718 678.329854,147.210060 678.808629,146.335440 679.287404,146.193234 679.766180,145.405296 680.244955,145.355040 680.723730,145.238315 681.202505,144.681966 681.681280,144.568918 682.160056,144.028658 682.638831,142.652394 683.117606,142.604760 683.596381,142.445500 684.075157,142.319746 684.553932,141.570180 685.032707,141.260887 685.511482,141.248013 685.990257,140.871000 686.469033,140.365932 686.947808,140.194263 687.426583,139.808273 687.905358,139.675610 688.384134,139.078468 688.862909,138.366539 689.341684,137.609880 689.820459,136.951440 690.299235,136.797180 690.778010,136.721586 691.256785,135.232981 691.735560,134.944740 692.214335,134.445768 692.693111,134.307920 693.171886,134.099134 693.650661,132.565980 694.129436,132.447300 694.608212,132.352538 695.086987,131.245020 695.565762,131.237280 696.044537,130.920714 696.523312,130.770300 697.002088,130.640242 697.480863,129.920803 697.959638,128.629993 698.438413,127.898760 698.917189,127.484589 699.395964,124.798446 699.874739,124.565231 700.353514,124.041092 700.832289,123.917355 701.311065,123.856629 701.789840,123.528075 702.268615,122.771207 702.747390,122.405940 703.226166,121.033896 703.704941,120.365247 704.183716,118.693244 704.662491,116.810694 705.141267,115.067074 705.620042,115.040040 706.098817,114.482675 706.577592,114.469086 707.056367,113.490750 707.535143,112.429080 708.013918,112.076603 708.492693,111.538761 708.971468,111.368700 709.450244,111.126814 709.929019,110.917200 710.407794,110.439900 710.886569,110.061864 711.365344,109.894928 711.844120,109.882544 712.322895,109.472400 712.801670,109.425110 713.280445,109.151888 713.759221,109.129260 714.237996,109.005420 714.716771,108.845089 715.195546,108.770481 715.674322,108.767764 716.153097,108.172080 716.631872,107.926149 717.110647,106.984231 717.589422,106.641882 718.068198,106.433160 718.546973,105.457920 719.025748,105.097676 719.504523,105.034800 719.983299,104.467716 720.462074,104.410353 720.940849,104.278743 721.419624,103.987320 721.898399,103.905018 722.377175,103.820318 722.855950,103.540980 723.334725,103.466934 723.813500,103.241329 724.292276,103.211231 724.771051,103.179738 725.249826,103.046652 725.728601,102.785040 726.207376,102.774720 726.686152,102.552840 727.164927,102.462540 727.643702,102.335443 728.122477,102.236398 728.601253,101.696280 729.080028,101.636813 729.558803,100.789607 730.037578,100.129416 730.516354,99.908340 730.995129,99.780630 731.473904,99.511020 731.952679,99.434136 732.431454,99.132645 732.910230,98.435160 733.389005,98.189492 733.867780,98.169344 734.346555,98.083959 734.825331,97.220624 735.304106,97.208217 735.782881,96.765900 736.261656,96.084240 736.740431,95.912436 737.219207,95.402433 737.697982,95.016660 738.176757,94.556616 738.655532,94.100760 739.134308,93.951120 739.613083,93.613184 740.091858,93.240714 740.570633,93.137949 741.049408,92.617442 741.528184,92.611444 742.006959,92.543709 742.485734,92.391954 742.964509,91.459839 743.443285,91.351770 743.922060,90.217860 744.400835,90.042420 744.879610,89.601680 745.358386,89.596933 745.837161,88.699464 746.315936,88.681136 746.794711,88.571820 747.273486,88.023777 747.752262,87.904475 748.231037,87.596580 748.709812,87.470084 749.188587,87.243295 749.667363,86.178612 750.146138,86.035003 750.624913,85.855004 751.103688,85.842180 751.582463,85.021664 752.061239,84.351456 752.540014,83.463420 753.018789,83.115120 753.497564,82.269049 753.976340,81.570453 754.455115,80.967452 754.933890,80.132203 755.412665,79.609534 755.891441,79.439801 756.370216,79.282196 756.848991,78.513285 757.327766,78.444505 757.806541,78.283812 758.285317,77.943785 758.764092,77.782387 759.242867,77.543843 759.721642,77.513940 760.200418,76.688821 760.679193,75.303320 761.157968,75.282085 761.636743,75.243206 762.115518,75.150918 762.594294,74.987858 763.073069,74.928824 763.551844,74.268956 764.030619,74.027573 764.509395,73.621237 764.988170,73.285320 765.466945,72.122746 765.945720,71.262600 766.424495,70.973640 766.903271,69.674807 767.382046,68.416860 767.860821,67.626492 768.339596,66.552569 768.818372,66.253464 769.297147,65.691986 769.775922,65.684115 770.254697,65.171994 770.733473,62.113074 771.212248,60.158542 771.691023,57.927278 772.169798,57.680731 772.648573,57.225002 773.127349,56.608463 773.606124,56.319938 774.084899,55.240982 774.563674,53.883370 775.042450,53.610240 775.521225,52.848548 776.000000,44.641408 776,399 Z" />
<g stroke-width="1" stroke="#ff0000" text-anchor="middle" font-family="Arial,Verdana" font-weight="bold" font-size="12" fill="#ff0000">
	<line x1="741.600000" y1="12" x2="741.600000" y2="403" />
	<text x="741.600000" y="423" stroke-width="0">95</text>
</g>
<g stroke-width="1" stroke="#ff0000" text-anchor="middle" font-family="Arial,Verdana" font-weight="bold" font-size="14" fill="#b00000">
	<line x1="84" y1="92.604671" x2="776" y2="92.604671" />
</g>
	<text font-family="Arial,Verdana" font-weight="bold" font-size="14" fill="#b00000" text-anchor="end" x="727.600000" y="78.604671" stroke-width="0">~ 158 Mbps</text>
	<text font-family="Arial,Verdana" font-weight="normal" font-size="14" fill="#000000" text-anchor="middle" x="432" y="449" stroke-width="0">Percentile [%]</text>
	<text font-family="Arial,Verdana" font-weight="normal" font-size="14" fill="#000000" text-anchor="middle" x="0" y="0" stroke-width="0" transform="rotate(-90),translate(-219.5, 28)">Network Data Rate [Mbps]</text>
	<g xml:space="preserve" stroke-width="0" font-family="monospace" font-weight="normal" font-size="10" fill="#404040">
<rect x="98" y="22" width="166.66666666667" height="165" stroke-width="0" fill="#ffffee" opacity="0.75"/>
		<text x="108" y="43" text-anchor="start">  samples:</text>
		<text x="254.66666666667" y="43" text-anchor="end">1,438     </text>
		<text x="108" y="54" text-anchor="start"> tot data:</text>
		<text x="254.66666666667" y="54" text-anchor="end">760 GB  </text>
		<text x="108" y="65" text-anchor="start">      sum:</text>
		<text x="254.66666666667" y="65" text-anchor="end">101,372 Mbps</text>
		<text x="108" y="76" text-anchor="start">      min:</text>
		<text x="254.66666666667" y="76" text-anchor="end">2 Mbps</text>
		<text x="108" y="87" text-anchor="start">      max:</text>
		<text x="254.66666666667" y="87" text-anchor="end">183 Mbps</text>
		<text x="108" y="98" text-anchor="start">    range:</text>
		<text x="254.66666666667" y="98" text-anchor="end">181 Mbps</text>
		<text x="108" y="109" text-anchor="start">     mean:</text>
		<text x="254.66666666667" y="109" text-anchor="end">70 Mbps</text>
		<text x="108" y="120" text-anchor="start">   median:</text>
		<text x="254.66666666667" y="120" text-anchor="end">80 Mbps</text>
		<text x="108" y="131" text-anchor="start">     mode:</text>
		<text x="254.66666666667" y="131" text-anchor="end">6 Mbps</text>
		<text x="108" y="142" text-anchor="start">   stddev:</text>
		<text x="254.66666666667" y="142" text-anchor="end">52 Mbps</text>
		<text x="108" y="153" text-anchor="start"> skewness:</text>
		<text x="254.66666666667" y="153" text-anchor="end">0.173     </text>
		<text x="108" y="164" text-anchor="start"> kurtosis:</text>
		<text x="254.66666666667" y="164" text-anchor="end">1.815     </text>
		<text x="108" y="175" text-anchor="start">95th perc:</text>
		<text x="254.66666666667" y="175" text-anchor="end">158 Mbps</text>
	</g>
</svg>
