<?xml version="1.0" standalone="no"?>
<!DOCTYPE svg PUBLIC "-//W3C//DTD SVG 1.1//EN" "http://www.w3.org/Graphics/SVG/1.1/DTD/svg11.dtd">
<svg width="800" height="463" version="1.1" xmlns="http://www.w3.org/2000/svg">
<desc>netsgraph - network SVG graph</desc>
<rect x="0" y="0" width="800" height="463" stroke-width="1" stroke="#000000" fill="#ffffff" />
<g stroke-width="1" stroke="#cccccc" text-anchor="middle" font-family="Arial,Verdana" font-weight="normal" font-size="12" fill="#808080">
	<line x1="88.000000" y1="12" x2="88.000000" y2="403" />
	<text x="88.000000" y="423" stroke-width="0">0</text>
	<line x1="122.400000" y1="12" x2="122.400000" y2="403" />
	<text x="122.400000" y="423" stroke-width="0">5</text>
	<line x1="156.800000" y1="12" x2="156.800000" y2="403" />
	<text x="156.800000" y="423" stroke-width="0">10</text>
	<line x1="191.200000" y1="12" x2="191.200000" y2="403" />
	<text x="191.200000" y="423" stroke-width="0">15</text>
	<line x1="225.600000" y1="12" x2="225.600000" y2="403" />
	<text x="225.600000" y="423" stroke-width="0">20</text>
	<line x1="260.000000" y1="12" x2="260.000000" y2="403" />
	<text x="260.000000" y="423" stroke-width="0">25</text>
	<line x1="294.400000" y1="12" x2="294.400000" y2="403" />
	<text x="294.400000" y="423" stroke-width="0">30</text>
	<line x1="328.800000" y1="12" x2="328.800000" y2="403" />
	<text x="328.800000" y="423" stroke-width="0">35</text>
	<line x1="363.200000" y1="12" x2="363.200000" y2="403" />
	<text x="363.200000" y="423" stroke-width="0">40</text>
	<line x1="397.600000" y1="12" x2="397.600000" y2="403" />
	<text x="397.600000" y="423" stroke-width="0">45</text>
	<line x1="432.000000" y1="12" x2="432.000000" y2="403" />
	<text x="432.000000" y="423" stroke-width="0">50</text>
	<line x1="466.400000" y1="12" x2="466.400000" y2="403" />
	<text x="466.400000" y="423" stroke-width="0">55</text>
	<line x1="500.800000" y1="12" x2="500.800000" y2="403" />
	<text x="500.800000" y="423" stroke-width="0">60</text>
	<line x1="535.200000" y1="12" x2="535.200000" y2="403" />
	<text x="535.200000" y="423" stroke-width="0">65</text>
	<line x1="569.600000" y1="12" x2="569.600000" y2="403" />
	<text x="569.600000" y="423" stroke-width="0">70</text>
	<line x1="604.000000" y1="12" x2="604.000000" y2="403" />
	<text x="604.000000" y="423" stroke-width="0">75</text>
	<line x1="638.400000" y1="12" x2="638.400000" y2="403" />
	<text x="638.400000" y="423" stroke-width="0">80</text>
	<line x1="672.800000" y1="12" x2="672.800000" y2="403" />
	<text x="672.800000" y="423" stroke-width="0">85</text>
	<line x1="707.200000" y1="12" x2="707.200000" y2="403" />
	<text x="707.200000" y="423" stroke-width="0">90</text>
	<line x1="776.000000" y1="12" x2="776.000000" y2="403" />
	<text x="776.000000" y="423" stroke-width="0">100</text>
</g>
<g stroke-width="1" stroke="#cccccc" text-anchor="middle" font-family="Arial,Verdana" font-weight="normal" font-size="12" fill="#808080">
	<line x1="84" y1="399.000000" x2="776" y2="399.000000" />
	<text x="70" y="403" stroke-width="0">0</text>
	<line x1="84" y1="350.625000" x2="776" y2="350.625000" />
	<text x="70" y="354.625" stroke-width="0">25</text>
	<line x1="84" y1="302.250000" x2="776" y2="302.250000" />
	<text x="70" y="306.25" stroke-width="0">50</text>
	<line x1="84" y1="253.875000" x2="776" y2="253.875000" />
	<text x="70" y="257.875" stroke-width="0">75</text>
	<line x1="84" y1="205.500000" x2="776" y2="205.500000" />
	<text x="70" y="209.5" stroke-width="0">100</text>
	<line x1="84" y1="157.125000" x2="776" y2="157.125000" />
	<text x="70" y="161.125" stroke-width="0">125</text>
	<line x1="84" y1="108.750000" x2="776" y2="108.750000" />
	<text x="70" y="112.75" stroke-width="0">150</text>
	<line x1="84" y1="60.375000" x2="776" y2="60.375000" />
	<text x="70" y="64.375" stroke-width="0">175</text>
	<line x1="84" y1="12.000000" x2="776" y2="12.000000" />
	<text x="70" y="16" stroke-width="0">200</text>
</g>
<polyline fill="none" stroke="#0000ff" stroke-width="1" points=" 88.000000,394.992203 88.478775,394.211351 89.436326,393.632754 90.393876,393.422040 91.351427,393.389134 92.308977,393.240932 93.266527,392.804904 94.224078,392.726793 95.181628,392.292000 96.139179,392.286840 97.096729,392.179512 98.054280,392.160936 99.011830,392.088307 99.969381,391.690860 100.926931,391.657320 101.884482,391.592439 102.842032,391.525740 103.799582,391.483318 104.757133,391.435102 105.714683,391.330950 106.672234,391.226460 107.629784,391.148754 108.587335,391.107824 109.544885,391.068468 110.502436,390.997627 111.459986,390.924163 112.417537,390.839460 113.375087,390.762610 114.332637,390.673072 115.290188,390.635553 116.247738,390.501742 117.205289,390.408600 118.162839,390.374341 119.120390,390.310560 120.077940,390.302820 121.035491,390.285521 121.993041,390.202637 122.950592,390.170982 123.908142,390.052560 124.865692,389.969125 125.823243,389.941620 126.780793,389.847513 127.738344,389.774182 128.695894,389.745540 129.653445,389.724900 130.610995,389.714538 131.568546,389.661432 132.526096,389.642340 133.483646,389.591308 134.441197,389.483607 135.398747,389.474640 136.356298,389.454000 137.313848,389.407475 138.271399,389.386666 139.228949,389.226610 140.186500,389.160912 141.144050,389.131500 142.101601,389.090220 143.059151,389.077574 144.016701,389.074740 144.974252,389.040325 145.931802,389.002500 146.889353,388.925100 147.846903,388.864407 148.804454,388.825180 149.762004,388.721280 150.719555,388.690845 151.677105,388.620660 152.634656,388.545840 153.592206,388.491966 154.549756,388.455540 155.507307,388.431358 156.464857,388.351790 157.422408,388.323875 158.379958,388.318800 159.337509,388.261078 160.295059,388.238820 161.252610,388.086600 162.210160,387.949860 163.167711,387.864720 164.125261,387.849153 165.082811,387.796678 166.040362,387.730560 166.997912,387.686700 167.955463,387.511810 168.913013,387.413220 169.870564,387.354472 170.828114,387.318944 171.785665,387.235200 172.743215,387.103054 173.700765,387.057180 174.658316,387.046292 175.615866,386.982360 176.573417,386.969460 177.530967,386.886900 178.488518,386.808166 179.446068,386.719200 180.403619,386.685660 181.361169,386.619096 182.318720,386.512800 183.276270,386.489580 184.233820,386.427660 185.191371,386.415521 186.148921,386.265120 187.106472,386.195460 188.064022,386.131298 189.021573,385.811548 189.979123,385.687200 190.936674,385.620120 191.894224,385.474678 192.851775,385.344318 193.809325,385.204740 194.766875,385.166040 195.724426,385.073247 196.681976,385.000920 197.639527,384.913200 198.597077,384.900300 199.554628,384.786780 200.512178,384.637140 201.469729,384.573148 202.427279,384.511769 203.384830,384.355533 204.342380,384.288753 205.299930,384.239820 206.257481,384.149351 207.215031,384.084132 208.172582,383.928570 209.130132,383.710920 210.087683,383.624949 211.045233,383.566440 212.002784,383.499360 212.960334,383.390577 213.917884,383.089140 214.875435,383.070826 215.832985,383.039858 216.790536,382.900800 217.748086,382.756757 218.705637,382.732094 219.663187,382.599071 220.620738,382.393259 221.578288,381.716580 222.535839,381.571043 223.493389,381.422460 224.450939,381.195420 225.408490,381.095937 226.366040,380.964277 227.323591,380.923402 228.281141,380.775580 229.238692,380.719926 230.196242,380.537520 231.153793,380.111862 232.111343,379.894127 233.068894,379.420380 234.026444,379.320606 234.983994,379.198084 235.941545,379.035875 236.899095,378.904638 237.856646,378.803760 238.814196,378.641994 239.771747,377.611800 240.729297,377.500415 241.686848,377.005711 242.644398,376.959060 243.601949,376.894560 244.559499,376.729790 245.517049,376.719120 246.474600,376.536236 247.432150,376.246980 248.389701,376.101726 249.347251,375.842445 250.304802,375.294610 251.262352,375.220182 252.219903,374.980200 253.177453,374.662292 254.135003,374.267528 255.092554,373.780500 256.050104,373.463247 257.007655,373.416720 257.965205,373.145862 258.922756,373.067193 259.880306,372.877500 260.837857,372.518705 261.795407,372.276360 262.274182,371.729400 263.231733,371.633390 264.189283,371.463966 264.668058,370.764222 265.625609,370.570179 266.583159,370.266024 267.540710,370.041564 268.498260,369.592568 269.455811,369.420300 270.413361,369.229380 271.370912,368.885056 271.849687,367.898319 272.807237,367.613784 273.764788,367.441102 274.722338,366.946080 275.679889,366.303660 276.637439,365.783777 277.594990,365.537823 278.552540,365.261340 279.510090,364.334951 280.467641,364.197915 281.425191,363.998503 282.382742,363.616393 283.340292,363.050280 284.297843,362.598006 285.255393,362.278369 286.212944,362.228441 287.170494,361.610640 288.128045,361.497797 289.085595,361.280400 290.043145,360.890820 291.000696,360.245820 291.958246,360.100597 292.915797,359.732400 293.394572,359.074719 294.352122,358.615260 295.309673,358.561338 296.267223,358.156020 297.224774,357.485220 298.182324,357.245280 299.139875,356.871180 300.097425,356.602294 301.054976,355.994461 302.012526,355.715340 302.491301,354.367806 303.448852,354.090972 304.406402,353.534911 305.363953,353.181780 306.321503,352.428549 307.279054,352.006848 307.757829,351.442860 308.236604,350.710013 308.715379,349.972260 309.672930,349.477957 310.630480,348.981540 311.588031,348.545695 312.066806,347.201340 313.024356,347.111040 313.981907,346.687751 314.460682,345.814780 314.939457,345.129600 315.418232,344.249820 316.375783,343.633812 317.333333,343.222980 318.290884,342.959820 319.248434,342.928902 320.205985,342.410978 321.163535,341.891700 322.121086,340.425254 323.078636,340.368866 323.557411,339.582600 324.514962,339.196374 325.472512,338.929729 325.951287,338.274540 326.430063,336.656880 327.387613,335.709246 327.866388,334.866360 328.345164,334.057519 329.302714,333.860160 330.260264,333.714132 331.217815,333.364800 332.175365,333.029400 333.132916,332.758719 334.090466,331.930997 334.569241,331.360140 335.526792,330.949920 336.005567,330.410442 336.484342,329.490930 336.963118,328.909140 337.441893,327.742980 338.399443,327.193102 339.356994,326.713560 340.314544,326.304346 341.272095,326.112420 342.229645,325.557720 343.187196,325.206840 343.665971,324.123240 344.623521,322.477974 345.102296,321.480342 345.581072,320.248080 346.538622,317.501154 347.496173,315.490560 348.453723,314.945664 349.411273,313.985939 350.368824,313.453908 351.326374,311.171640 351.805150,309.222890 352.762700,308.418780 353.241475,307.809681 354.199026,306.348264 354.677801,305.118960 355.635351,303.606468 356.592902,302.848560 357.550452,302.295128 358.508003,302.126685 359.465553,301.983541 360.423104,301.207680 361.380654,301.162593 361.859429,300.438079 362.338205,299.270988 363.295755,298.873554 364.253305,298.529725 365.210856,297.577620 365.689631,296.275769 366.647182,295.372342 367.604732,295.159652 368.562283,294.930540 369.041058,293.733376 369.998608,293.336100 370.477383,292.636920 371.434934,292.224120 371.913709,289.656102 372.392484,289.000169 373.350035,288.344237 374.307585,287.925840 374.786360,286.695180 375.265136,286.148660 376.222686,285.634800 377.180237,284.262240 377.659012,282.661127 378.616562,282.468921 379.095338,281.842458 380.052888,280.672639 381.010438,280.664172 381.967989,280.443840 382.925539,278.865049 383.404315,278.214978 383.883090,277.125173 384.361865,276.510755 385.319415,275.147100 386.276966,274.726560 387.234516,274.375428 388.192067,274.007628 388.670842,273.492728 389.628392,273.188880 390.585943,272.840477 391.543493,271.857600 392.022269,271.292284 392.979819,270.832050 393.458594,270.172860 394.416145,269.799722 394.894920,269.164517 395.373695,268.422393 395.852470,266.790305 396.810021,266.202590 397.767571,265.980622 398.725122,265.544034 399.682672,264.835627 400.640223,264.636180 401.597773,264.418868 402.076548,263.529360 403.034099,263.204872 403.512874,262.654740 404.470424,262.352880 405.427975,261.497566 405.906750,260.688780 406.864301,260.519274 407.821851,259.981987 408.779402,259.488075 409.736952,258.955020 410.694502,258.726356 411.173278,257.901112 411.652053,257.334780 412.609603,256.826520 413.088379,255.812580 414.045929,255.300936 415.003479,254.708340 415.961030,254.409060 416.918580,253.897302 417.876131,253.761480 418.354906,253.258338 419.312457,252.367668 420.270007,252.021207 421.227557,250.835410 422.185108,250.401897 423.142658,249.383303 424.100209,248.948046 425.057759,248.273820 426.015310,248.031042 426.972860,247.486328 427.930411,247.194492 428.887961,246.897193 429.366736,246.310440 430.324287,245.776380 431.281837,245.246234 432.239388,245.083857 433.196938,244.801140 434.154489,244.576680 435.112039,244.504440 436.069589,244.243860 437.027140,244.071259 437.984690,243.738138 438.942241,243.598860 439.421016,243.024535 440.378566,242.832177 441.336117,242.360766 442.293667,242.101868 443.251218,241.535410 444.208768,241.400700 445.166319,240.980858 446.123869,240.670560 447.081420,240.348891 448.038970,239.762659 448.996521,239.053932 449.954071,238.895520 450.911621,238.656061 451.869172,238.242780 452.826722,237.976515 453.784273,237.442980 454.263048,236.734072 455.220598,236.506440 456.178149,236.255640 457.135699,235.872285 458.093250,235.513140 459.050800,234.632844 460.008351,234.542725 460.965901,234.502593 461.923452,234.143160 462.881002,234.117360 463.838553,233.710160 464.796103,233.624580 465.753653,233.461078 466.711204,233.156725 467.668754,232.995060 468.626305,232.723339 469.583855,232.602900 470.541406,232.424705 471.498956,231.883428 472.456507,231.663006 473.414057,231.439320 474.371608,231.137460 475.329158,230.956860 476.286708,230.451661 477.244259,230.180280 477.723034,229.670112 478.680585,229.578108 479.638135,229.377266 480.595685,229.312110 481.553236,229.188893 482.510786,228.732900 483.468337,228.462516 484.425887,227.817000 485.383438,227.638499 486.340988,227.405723 487.298539,227.090664 488.256089,226.828292 489.213640,226.430508 490.171190,226.348149 491.128740,226.253520 492.086291,226.120249 493.043841,225.728687 494.001392,225.618925 494.958942,225.415908 495.916493,225.035760 496.874043,224.940300 497.831594,224.594064 498.789144,224.446230 499.746695,224.233380 500.704245,224.010020 501.661795,223.818875 502.619346,223.619213 503.576896,223.584236 504.534447,223.273286 505.491997,222.599817 506.449548,222.297069 507.407098,222.049850 508.364649,221.819980 509.322199,221.670848 510.279749,221.349946 511.237300,221.271836 512.194850,221.111186 513.152401,220.703864 514.109951,220.436931 515.067502,220.091605 516.025052,219.836028 516.982603,219.728911 517.940153,219.412060 518.897704,219.251400 519.855254,218.776068 520.812804,218.107017 521.770355,217.951080 522.727905,217.718705 523.685456,217.571820 524.643006,217.395014 525.600557,216.884359 526.558107,216.724269 527.515658,216.575940 528.473208,216.518969 529.430759,216.388475 530.388309,216.322881 531.345859,216.103800 532.303410,216.078875 533.260960,215.944686 534.218511,215.455416 535.176061,215.167518 536.133612,214.886040 537.091162,214.709288 538.048713,214.607410 539.006263,214.343902 539.485038,213.735285 540.442589,213.554760 541.400139,213.086774 542.357690,212.855580 543.315240,212.582100 544.272791,212.260446 545.230341,212.185786 546.187891,211.888080 547.145442,211.765464 548.102992,210.819960 549.060543,210.239460 550.018093,210.175658 550.975644,209.891160 551.933194,209.506740 552.890745,209.366904 553.848295,209.158440 554.805846,208.975260 555.763396,208.804980 556.720946,208.719500 557.678497,208.551058 558.636047,208.463424 559.593598,208.350900 560.551148,207.442007 561.508699,206.985564 562.466249,206.730660 563.423800,206.525878 564.381350,205.956787 565.338900,205.600802 566.296451,205.329720 567.254001,204.883424 568.211552,204.760108 569.169102,204.618427 570.126653,204.529920 571.084203,204.342807 572.041754,204.040820 572.999304,203.894278 573.478079,203.307000 574.435630,202.886766 575.393180,202.469652 576.350731,202.013193 577.308281,201.821694 578.265832,201.047360 579.223382,200.543820 580.180932,200.341749 581.138483,200.121140 582.096033,199.938620 583.053584,199.901400 584.011134,199.142880 584.968685,198.856500 585.926235,198.203760 586.883786,198.140656 587.362561,197.303340 588.320111,196.726157 589.277662,196.573548 590.235212,196.397760 591.192763,195.873539 592.150313,195.742698 593.107864,195.285188 594.065414,194.983751 595.022965,193.923540 595.980515,193.785954 596.938065,193.195980 597.895616,192.515166 598.853166,192.130440 599.810717,191.984184 600.768267,191.689810 601.725818,190.834603 602.683368,190.484400 603.162143,189.858595 604.119694,189.641658 605.077244,189.276960 606.034795,189.049920 606.992345,187.992374 607.471120,187.452900 608.428671,187.075127 609.386221,186.168366 610.343772,185.713065 611.301322,185.162634 612.258873,184.783406 613.216423,184.650986 614.173974,184.570190 615.131524,184.306753 616.089074,184.073650 617.046625,183.964707 617.525400,183.025620 618.482951,182.966280 619.440501,182.019420 619.919276,181.078332 620.876827,180.475688 621.834377,179.711843 622.791928,178.866787 623.749478,178.637040 624.707029,178.450603 625.664579,178.118164 626.622129,177.798540 627.579680,177.518352 628.537230,177.334914 629.494781,177.125921 630.452331,176.890861 631.409882,176.764787 632.367432,176.338260 633.324983,176.128528 634.282533,175.731960 635.240084,175.390131 636.197634,175.115264 637.155184,174.801559 638.112735,174.356820 638.591510,173.406549 639.549061,172.965763 640.506611,172.933633 641.464161,172.328940 642.421712,171.859380 643.379262,170.741365 644.336813,170.510040 645.294363,169.854020 645.773138,169.082919 646.730689,168.691708 647.688239,168.307397 648.645790,168.092580 649.603340,167.427519 650.560891,167.261776 651.518441,167.029104 651.997216,166.220198 652.954767,165.669960 653.433542,164.902618 654.391093,164.643894 655.348643,164.426400 656.306193,164.262295 657.263744,163.955233 658.221294,163.439474 659.178845,163.024454 660.136395,162.359820 661.093946,162.071110 662.051496,160.484160 663.009047,160.072544 663.487822,159.359105 664.445372,159.226607 665.402923,159.018020 666.360473,158.204793 667.318024,157.718271 668.275574,157.015296 669.233125,156.755764 670.190675,155.927880 670.669450,155.082956 671.148225,154.545000 671.627001,153.959471 672.105776,151.832795 673.063326,151.645004 674.020877,150.954570 674.978427,150.719166 675.935978,150.300900 676.893528,148.492320 677.851079,147.911718 678.329854,147.210060 678.808629,146.335440 679.766180,145.405296 680.723730,145.238315 681.202505,144.681966 682.160056,144.028658 682.638831,142.652394 683.596381,142.445500 684.553932,141.570180 685.511482,141.248013 686.469033,140.365932 687.426583,139.808273 688.384134,139.078468 688.862909,138.366539 689.341684,137.609880 689.820459,136.951440 690.778010,136.721586 691.256785,135.232981 692.214335,134.445768 693.171886,134.099134 693.650661,132.565980 694.608212,132.352538 695.086987,131.245020 696.044537,130.920714 697.002088,130.640242 697.480863,129.920803 697.959638,128.629993 698.438413,127.898760 699.395964,124.798446 700.353514,124.041092 701.311065,123.856629 702.268615,122.771207 703.226166,121.033896 703.704941,120.365247 704.183716,118.693244 704.662491,116.810694 705.141267,115.067074 706.098817,114.482675 707.056367,113.490750 707.535143,112.429080 708.492693,111.538761 709.450244,111.126814 710.407794,110.439900 711.365344,109.894928 712.322895,109.472400 713.280445,109.151888 714.237996,109.005420 715.195546,108.770481 716.153097,108.172080 717.110647,106.984231 718.068198,106.433160 718.546973,105.457920 719.504523,105.034800 719.983299,104.467716 720.940849,104.278743 721.898399,103.905018 722.855950,103.540980 723.813500,103.241329 724.771051,103.179738 725.728601,102.785040 726.686152,102.552840 727.643702,102.335443 728.601253,101.696280 729.558803,100.789607 730.037578,100.129416 730.995129,99.780630 731.952679,99.434136 732.910230,98.435160 733.867780,98.169344 734.825331,97.220624 735.782881,96.765900 736.261656,96.084240 737.219207,95.402433 738.176757,94.556616 739.134308,93.951120 740.091858,93.240714 741.049408,92.617442 742.006959,92.543709 742.964509,91.459839 743.922060,90.217860 744.879610,89.601680 745.837161,88.699464 746.794711,88.571820 747.273486,88.023777 748.231037,87.596580 749.188587,87.243295 749.667363,86.178612 750.624913,85.855004 751.582463,85.021664 752.061239,84.351456 752.540014,83.463420 753.497564,82.269049 753.976340,81.570453 754.455115,80.967452 754.933890,80.132203 755.412665,79.609534 756.370216,79.282196 756.848991,78.513285 757.806541,78.283812 758.764092,77.782387 759.721642,77.513940 760.200418,76.688821 760.679193,75.303320 761.636743,75.243206 762.594294,74.987858 763.551844,74.268956 764.509395,73.621237 765.466945,72.122746 765.945720,71.262600 766.903271,69.674807 767.382046,68.416860 767.860821,67.626492 768.339596,66.552569 769.297147,65.691986 770.254697,65.171994 770.733473,62.113074 771.212248,60.158542 771.691023,57.927278 772.648573,57.225002 773.127349,56.608463 774.084899,55.240982 774.563674,53.883370 775.521225,52.848548 776.000000,44.641408" />
<path fill="#00ff00" opacity="0.7" stroke-width="0" d="M 88,399 L  88.000000,394.992203 88.478775,394.211351 89.436326,393.632754 90.393876,393.422040 91.351427,393.389134 92.308977,393.240932 93.266527,392.804904 94.224078,392.726793 95.181628,392.292000 96.139179,392.286840 97.096729,392.179512 98.054280,392.160936 99.011830,392.088307 99.969381,391.690860 100.926931,391.657320 101.884482,391.592439 102.842032,391.525740 103.799582,391.483318 104.757133,391.435102 105.714683,391.330950 106.672234,391.226460 107.629784,391.148754 108.587335,391.107824 109.544885,391.068468 110.502436,390.997627 111.459986,390.924163 112.417537,390.839460 113.375087,390.762610 114.332637,390.673072 115.290188,390.635553 116.247738,390.501742 117.205289,390.408600 118.162839,390.374341 119.120390,390.310560 120.077940,390.302820 121.035491,390.285521 121.993041,390.202637 122.950592,390.170982 123.908142,390.052560 124.865692,389.969125 125.823243,389.941620 126.780793,389.847513 127.738344,389.774182 128.695894,389.745540 129.653445,389.724900 130.610995,389.714538 131.568546,389.661432 132.526096,389.642340 133.483646,389.591308 134.441197,389.483607 135.398747,389.474640 136.356298,389.454000 137.313848,389.407475 138.271399,389.386666 139.228949,389.226610 140.186500,389.160912 141.144050,389.131500 142.101601,389.090220 143.059151,389.077574 144.016701,389.074740 144.974252,389.040325 145.931802,389.002500 146.889353,388.925100 147.846903,388.864407 148.804454,388.825180 149.762004,388.721280 150.719555,388.690845 151.677105,388.620660 152.634656,388.545840 153.592206,388.491966 154.549756,388.455540 155.507307,388.431358 156.464857,388.351790 157.422408,388.323875 158.379958,388.318800 159.337509,388.261078 160.295059,388.238820 161.252610,388.086600 162.210160,387.949860 163.167711,387.864720 164.125261,387.849153 165.082811,387.796678 166.040362,387.730560 166.997912,387.686700 167.955463,387.511810 168.913013,387.413220 169.870564,387.354472 170.828114,387.318944 171.785665,387.235200 172.743215,387.103054 173.700765,387.057180 174.658316,387.046292 175.615866,386.982360 176.573417,386.969460 177.530967,386.886900 178.488518,386.808166 179.446068,386.719200 180.403619,386.685660 181.361169,386.619096 182.318720,386.512800 183.276270,386.489580 184.233820,386.427660 185.191371,386.415521 186.148921,386.265120 187.106472,386.195460 188.064022,386.131298 189.021573,385.811548 189.979123,385.687200 190.936674,385.620120 191.894224,385.474678 192.851775,385.344318 193.809325,385.204740 194.766875,385.166040 195.724426,385.073247 196.681976,385.000920 197.639527,384.913200 198.597077,384.900300 199.554628,384.786780 200.512178,384.637140 201.469729,384.573148 202.427279,384.511769 203.384830,384.355533 204.342380,384.288753 205.299930,384.239820 206.257481,384.149351 207.215031,384.084132 208.172582,383.928570 209.130132,383.710920 210.087683,383.624949 211.045233,383.566440 212.002784,383.499360 212.960334,383.390577 213.917884,383.089140 214.875435,383.070826 215.832985,383.039858 216.790536,382.900800 217.748086,382.756757 218.705637,382.732094 219.663187,382.599071 220.620738,382.393259 221.578288,381.716580 222.535839,381.571043 223.493389,381.422460 224.450939,381.195420 225.408490,381.095937 226.366040,380.964277 227.323591,380.923402 228.281141,380.775580 229.238692,380.719926 230.196242,380.537520 231.153793,380.111862 232.111343,379.894127 233.068894,379.420380 234.026444,379.320606 234.983994,379.198084 235.941545,379.035875 236.899095,378.904638 237.856646,378.803760 238.814196,378.641994 239.771747,377.611800 240.729297,377.500415 241.686848,377.005711 242.644398,376.959060 243.601949,376.894560 244.559499,376.729790 245.517049,376.719120 246.474600,376.536236 247.432150,376.246980 248.389701,376.101726 249.347251,375.842445 250.304802,375.294610 251.262352,375.220182 252.219903,374.980200 253.177453,374.662292 254.135003,374.267528 255.092554,373.780500 256.050104,373.463247 257.007655,373.416720 257.965205,373.145862 258.922756,373.067193 259.880306,372.877500 260.837857,372.518705 261.795407,372.276360 262.274182,371.729400 263.231733,371.633390 264.189283,371.463966 264.668058,370.764222 265.625609,370.570179 266.583159,370.266024 267.540710,370.041564 268.498260,369.592568 269.455811,369.420300 270.413361,369.229380 271.370912,368.885056 271.849687,367.898319 272.807237,367.613784 273.764788,367.441102 274.722338,366.946080 275.679889,366.303660 276.637439,365.783777 277.594990,365.537823 278.552540,365.261340 279.510090,364.334951 280.467641,364.197915 281.425191,363.998503 282.382742,363.616393 283.340292,363.050280 284.297843,362.598006 285.255393,362.278369 286.212944,362.228441 287.170494,361.610640 288.128045,361.497797 289.085595,361.280400 290.043145,360.890820 291.000696,360.245820 291.958246,360.100597 292.915797,359.732400 293.394572,359.074719 294.352122,358.615260 295.309673,358.561338 296.267223,358.156020 297.224774,357.485220 298.182324,357.245280 299.139875,356.871180 300.097425,356.602294 301.054976,355.994461 302.012526,355.715340 302.491301,354.367806 303.448852,354.090972 304.406402,353.534911 305.363953,353.181780 306.321503,352.428549 307.279054,352.006848 307.757829,351.442860 308.236604,350.710013 308.715379,349.972260 309.672930,349.477957 310.630480,348.981540 311.588031,348.545695 312.066806,347.201340 313.024356,347.111040 313.981907,346.687751 314.460682,345.814780 314.939457,345.129600 315.418232,344.249820 316.375783,343.633812 317.333333,343.222980 318.290884,342.959820 319.248434,342.928902 320.205985,342.410978 321.163535,341.891700 322.121086,340.425254 323.078636,340.368866 323.557411,339.582600 324.514962,339.196374 325.472512,338.929729 325.951287,338.274540 326.430063,336.656880 327.387613,335.709246 327.866388,334.866360 328.345164,334.057519 329.302714,333.860160 330.260264,333.714132 331.217815,333.364800 332.175365,333.029400 333.132916,332.758719 334.090466,331.930997 334.569241,331.360140 335.526792,330.949920 336.005567,330.410442 336.484342,329.490930 336.963118,328.909140 337.441893,327.742980 338.399443,327.193102 339.356994,326.713560 340.314544,326.304346 341.272095,326.112420 342.229645,325.557720 343.187196,325.206840 343.665971,324.123240 344.623521,322.477974 345.102296,321.480342 345.581072,320.248080 346.538622,317.501154 347.496173,315.490560 348.453723,314.945664 349.411273,313.985939 350.368824,313.453908 351.326374,311.171640 351.805150,309.222890 352.762700,308.418780 353.241475,307.809681 354.199026,306.348264 354.677801,305.118960 355.635351,303.606468 356.592902,302.848560 357.550452,302.295128 358.508003,302.126685 359.465553,301.983541 360.423104,301.207680 361.380654,301.162593 361.859429,300.438079 362.338205,299.270988 363.295755,298.873554 364.253305,298.529725 365.210856,297.577620 365.689631,296.275769 366.647182,295.372342 367.604732,295.159652 368.562283,294.930540 369.041058,293.733376 369.998608,293.336100 370.477383,292.636920 371.434934,292.224120 371.913709,289.656102 372.392484,289.000169 373.350035,288.344237 374.307585,287.925840 374.786360,286.695180 375.265136,286.148660 376.222686,285.634800 377.180237,284.262240 377.659012,282.661127 378.616562,282.468921 379.095338,281.842458 380.052888,280.672639 381.010438,280.664172 381.967989,280.443840 382.925539,278.865049 383.404315,278.214978 383.883090,277.125173 384.361865,276.510755 385.319415,275.147100 386.276966,274.726560 387.234516,274.375428 388.192067,274.007628 388.670842,273.492728 389.628392,273.188880 390.585943,272.840477 391.543493,271.857600 392.022269,271.292284 392.979819,270.832050 393.458594,270.172860 394.416145,269.799722 394.894920,269.164517 395.373695,268.422393 395.852470,266.790305 396.810021,266.202590 397.767571,265.980622 398.725122,265.544034 399.682672,264.835627 400.640223,264.636180 401.597773,264.418868 402.076548,263.529360 403.034099,263.204872 403.512874,262.654740 404.470424,262.352880 405.427975,261.497566 405.906750,260.688780 406.864301,260.519274 407.821851,259.981987 408.779402,259.488075 409.736952,258.955020 410.694502,258.726356 411.173278,257.901112 411.652053,257.334780 412.609603,256.826520 413.088379,255.812580 414.045929,255.300936 415.003479,254.708340 415.961030,254.409060 416.918580,253.897302 417.876131,253.761480 418.354906,253.258338 419.312457,252.367668 420.270007,252.021207 421.227557,250.835410 422.185108,250.401897 423.142658,249.383303 424.100209,248.948046 425.057759,248.273820 426.015310,248.031042 426.972860,247.486328 427.930411,247.194492 428.887961,246.897193 429.366736,246.310440 430.324287,245.776380 431.281837,245.246234 432.239388,245.083857 433.196938,244.801140 434.154489,244.576680 435.112039,244.504440 436.069589,244.243860 437.027140,244.071259 437.984690,243.738138 438.942241,243.598860 439.421016,243.024535 440.378566,242.832177 441.336117,242.360766 442.293667,242.101868 443.251218,241.535410 444.208768,241.400700 445.166319,240.980858 446.123869,240.670560 447.081420,240.348891 448.038970,239.762659 448.996521,239.053932 449.954071,238.895520 450.911621,238.656061 451.869172,238.242780 452.826722,237.976515 453.784273,237.442980 454.263048,236.734072 455.220598,236.506440 456.178149,236.255640 457.135699,235.872285 458.093250,235.513140 459.050800,234.632844 460.008351,234.542725 460.965901,234.502593 461.923452,234.143160 462.881002,234.117360 463.838553,233.710160 464.796103,233.624580 465.753653,233.461078 466.711204,233.156725 467.668754,232.995060 468.626305,232.723339 469.583855,232.602900 470.541406,232.424705 471.498956,231.883428 472.456507,231.663006 473.414057,231.439320 474.371608,231.137460 475.329158,230.956860 476.286708,230.451661 477.244259,230.180280 477.723034,229.670112 478.680585,229.578108 479.638135,229.377266 480.595685,229.312110 481.553236,229.188893 482.510786,228.732900 483.468337,228.462516 484.425887,227.817000 485.383438,227.638499 486.340988,227.405723 487.298539,227.090664 488.256089,226.828292 489.213640,226.430508 490.171190,226.348149 491.128740,226.253520 492.086291,226.120249 493.043841,225.728687 494.001392,225.618925 494.958942,225.415908 495.916493,225.035760 496.874043,224.940300 497.831594,224.594064 498.789144,224.446230 499.746695,224.233380 500.704245,224.010020 501.661795,223.818875 502.619346,223.619213 503.576896,223.584236 504.534447,223.273286 505.491997,222.599817 506.449548,222.297069 507.407098,222.049850 508.364649,221.819980 509.322199,221.670848 510.279749,221.349946 511.237300,221.271836 512.194850,221.111186 513.152401,220.703864 514.109951,220.436931 515.067502,220.091605 516.025052,219.836028 516.982603,219.728911 517.940153,219.412060 518.897704,219.251400 519.855254,218.776068 520.812804,218.107017 521.770355,217.951080 522.727905,217.718705 523.685456,217.571820 524.643006,217.395014 525.600557,216.884359 526.558107,216.724269 527.515658,216.575940 528.473208,216.518969 529.430759,216.388475 530.388309,216.322881 531.345859,216.103800 532.303410,216.078875 533.260960,215.944686 534.218511,215.455416 535.176061,215.167518 536.133612,214.886040 537.091162,214.709288 538.048713,214.607410 539.006263,214.343902 539.485038,213.735285 540.442589,213.554760 541.400139,213.086774 542.357690,212.855580 543.315240,212.582100 544.272791,212.260446 545.230341,212.185786 546.187891,211.888080 547.145442,211.765464 548.102992,210.819960 549.060543,210.239460 550.018093,210.175658 550.975644,209.891160 551.933194,209.506740 552.890745,209.366904 553.848295,209.158440 554.805846,208.975260 555.763396,208.804980 556.720946,208.719500 557.678497,208.551058 558.636047,208.463424 559.593598,208.350900 560.551148,207.442007 561.508699,206.985564 562.466249,206.730660 563.423800,206.525878 564.381350,205.956787 565.338900,205.600802 566.296451,205.329720 567.254001,204.883424 568.211552,204.760108 569.169102,204.618427 570.126653,204.529920 571.084203,204.342807 572.041754,204.040820 572.999304,203.894278 573.478079,203.307000 574.435630,202.886766 575.393180,202.469652 576.350731,202.013193 577.308281,201.821694 578.265832,201.047360 579.223382,200.543820 580.180932,200.341749 581.138483,200.121140 582.096033,199.938620 583.053584,199.901400 584.011134,199.142880 584.968685,198.856500 585.926235,198.203760 586.883786,198.140656 587.362561,197.303340 588.320111,196.726157 589.277662,196.573548 590.235212,196.397760 591.192763,195.873539 592.150313,195.742698 593.107864,195.285188 594.065414,194.983751 595.022965,193.923540 595.980515,193.785954 596.938065,193.195980 597.895616,192.515166 598.853166,192.130440 599.810717,191.984184 600.768267,191.689810 601.725818,190.834603 602.683368,190.484400 603.162143,189.858595 604.119694,189.641658 605.077244,189.276960 606.034795,189.049920 606.992345,187.992374 607.471120,187.452900 608.428671,187.075127 609.386221,186.168366 610.343772,185.713065 611.301322,185.162634 612.258873,184.783406 613.216423,184.650986 614.173974,184.570190 615.131524,184.306753 616.089074,184.073650 617.046625,183.964707 617.525400,183.025620 618.482951,182.966280 619.440501,182.019420 619.919276,181.078332 620.876827,180.475688 621.834377,179.711843 622.791928,178.866787 623.749478,178.637040 624.707029,178.450603 625.664579,178.118164 626.622129,177.798540 627.579680,177.518352 628.537230,177.334914 629.494781,177.125921 630.452331,176.890861 631.409882,176.764787 632.367432,176.338260 633.324983,176.128528 634.282533,175.731960 635.240084,175.390131 636.197634,175.115264 637.155184,174.801559 638.112735,174.356820 638.591510,173.406549 639.549061,172.965763 640.506611,172.933633 641.464161,172.328940 642.421712,171.859380 643.379262,170.741365 644.336813,170.510040 645.294363,169.854020 645.773138,169.082919 646.730689,168.691708 647.688239,168.307397 648.645790,168.092580 649.603340,167.427519 650.560891,167.261776 651.518441,167.029104 651.997216,166.220198 652.954767,165.669960 653.433542,164.902618 654.391093,164.643894 655.348643,164.426400 656.306193,164.262295 657.263744,163.955233 658.221294,163.439474 659.178845,163.024454 660.136395,162.359820 661.093946,162.071110 662.051496,160.484160 663.009047,160.072544 663.487822,159.359105 664.445372,159.226607 665.402923,159.018020 666.360473,158.204793 667.318024,157.718271 668.275574,157.015296 669.233125,156.755764 670.190675,155.927880 670.669450,155.082956 671.148225,154.545000 671.627001,153.959471 672.105776,151.832795 673.063326,151.645004 674.020877,150.954570 674.978427,150.719166 675.935978,150.300900 676.893528,148.492320 677.851079,147.911718 678.329854,147.210060 678.808629,146.335440 679.766180,145.405296 680.723730,145.238315 681.202505,144.681966 682.160056,144.028658 682.638831,142.652394 683.596381,142.445500 684.553932,141.570180 685.511482,141.248013 686.469033,140.365932 687.426583,139.808273 688.384134,139.078468 688.862909,138.366539 689.341684,137.609880 689.820459,136.951440 690.778010,136.721586 691.256785,135.232981 692.214335,134.445768 693.171886,134.099134 693.650661,132.565980 694.608212,132.352538 695.086987,131.245020 696.044537,130.920714 697.002088,130.640242 697.480863,129.920803 697.959638,128.629993 698.438413,127.898760 699.395964,124.798446 700.353514,124.041092 701.311065,123.856629 702.268615,122.771207 703.226166,121.033896 703.704941,120.365247 704.183716,118.693244 704.662491,116.810694 705.141267,115.067074 706.098817,114.482675 707.056367,113.490750 707.535143,112.429080 708.492693,111.538761 709.450244,111.126814 710.407794,110.439900 711.365344,109.894928 712.322895,109.472400 713.280445,109.151888 714.237996,109.005420 715.195546,108.770481 716.153097,108.172080 717.110647,106.984231 718.068198,106.433160 718.546973,105.457920 719.504523,105.034800 719.983299,104.467716 720.940849,104.278743 721.898399,103.905018 722.855950,103.540980 723.813500,103.241329 724.771051,103.179738 725.728601,102.785040 726.686152,102.552840 727.643702,102.335443 728.601253,101.696280 729.558803,100.789607 730.037578,100.129416 730.995129,99.780630 731.952679,99.434136 732.910230,98.435160 733.867780,98.169344 734.825331,97.220624 735.782881,96.765900 736.261656,96.084240 737.219207,95.402433 738.176757,94.556616 739.134308,93.951120 740.091858,93.240714 741.049408,92.617442 742.006959,92.543709 742.964509,91.459839 743.922060,90.217860 744.879610,89.601680 745.837161,88.699464 746.794711,88.571820 747.273486,88.023777 748.231037,87.596580 749.188587,87.243295 749.667363,86.178612 750.624913,85.855004 751.582463,85.021664 752.061239,84.351456 752.540014,83.463420 753.497564,82.269049 753.976340,81.570453 754.455115,80.967452 754.933890,80.132203 755.412665,79.609534 756.370216,79.282196 756.848991,78.513285 757.806541,78.283812 758.764092,77.782387 759.721642,77.513940 760.200418,76.688821 760.679193,75.303320 761.636743,75.243206 762.594294,74.987858 763.551844,74.268956 764.509395,73.621237 765.466945,72.122746 765.945720,71.262600 766.903271,69.674807 767.382046,68.416860 767.860821,67.626492 768.339596,66.552569 769.297147,65.691986 770.254697,65.171994 770.733473,62.113074 771.212248,60.158542 771.691023,57.927278 772.648573,57.225002 773.127349,56.608463 774.084899,55.240982 774.563674,53.883370 775.521225,52.848548 776.000000,44.641408 776,399 Z" />
<g stroke-width="1" stroke="#ff0000" text-anchor="middle" font-family="Arial,Verdana" font-weight="bold" font-size="12" fill="#ff0000">
	<line x1="741.600000" y1="12" x2="741.600000" y2="403" />
	<text x="741.600000" y="423" stroke-width="0">95</text>
</g>
<g stroke-width="1" stroke="#ff0000" text-anchor="middle" font-family="Arial,Verdana" font-weight="bold" font-size="14" fill="#b00000">
	<line x1="84" y1="92.604671" x2="776" y2="92.604671" />
</g>
	<text font-family="Arial,Verdana" font-weight="bold" font-size="14" fill="#b00000" text-anchor="end" x="727.600000" y="78.604671" stroke-width="0">~ 158 Mbit/s</text>
	<text font-family="Arial,Verdana" font-weight="normal" font-size="14" fill="#000000" text-anchor="middle" x="432" y="449" stroke-width="0">Percentile [%]</text>
	<text font-family="Arial,Verdana" font-weight="normal" font-size="14" fill="#000000" text-anchor="middle" y="21" x="-205.5" transform="matrix(0,-1,1,0,0,0)" stroke-width="0" >Network Data Rate [Mbit/s]</text>
	<g xml:space="preserve" stroke-width="0" font-family="monospace" font-weight="normal" font-size="10" fill="#404040">
<rect x="98" y="22" width="180" height="209" stroke-width="0" fill="#ffffee" opacity="0.75"/>
		<text x="108" y="43" text-anchor="start">  samples:</text>
		<text x="268" y="43" text-anchor="end">1,438       </text>
		<text x="108" y="54" text-anchor="start"> tot data:</text>
		<text x="268" y="54" text-anchor="end">760.257 GB    </text>
		<text x="108" y="65" text-anchor="start">      sum:</text>
		<text x="268" y="65" text-anchor="end">101.372 Gbit/s</text>
		<text x="108" y="76" text-anchor="start">      min:</text>
		<text x="268" y="76" text-anchor="end">2.071 Mbit/s</text>
		<text x="108" y="87" text-anchor="start">      max:</text>
		<text x="268" y="87" text-anchor="end">183.131 Mbit/s</text>
		<text x="108" y="98" text-anchor="start">    range:</text>
		<text x="268" y="98" text-anchor="end">181.060 Mbit/s</text>
		<text x="108" y="109" text-anchor="start">     mean:</text>
		<text x="268" y="109" text-anchor="end">70.495 Mbit/s</text>
		<text x="108" y="120" text-anchor="start">   median:</text>
		<text x="268" y="120" text-anchor="end">79.508 Mbit/s</text>
		<text x="108" y="131" text-anchor="start">     mode:</text>
		<text x="268" y="131" text-anchor="end">5.520 Mbit/s</text>
		<text x="108" y="142" text-anchor="start">   stddev:</text>
		<text x="268" y="142" text-anchor="end">51.904 Mbit/s</text>
		<text x="108" y="153" text-anchor="start"> skewness:</text>
		<text x="268" y="153" text-anchor="end">0.173       </text>
		<text x="108" y="164" text-anchor="start"> kurtosis:</text>
		<text x="268" y="164" text-anchor="end">1.815       </text>
		<text x="108" y="175" text-anchor="start"> 95th prc:</text>
		<text x="268" y="175" text-anchor="end">158.344 Mbit/s</text>
		<text x="108" y="186" text-anchor="start">  prc/max:</text>
		<text x="268" y="186" text-anchor="end">86.465 %     </text>
		<text x="108" y="197" text-anchor="start"> mean/prc:</text>
		<text x="268" y="197" text-anchor="end">44.520 %     </text>
		<text x="108" y="208" text-anchor="start">  med/prc:</text>
		<text x="268" y="208" text-anchor="end">50.212 %     </text>
		<text x="108" y="219" text-anchor="start"> mode/prc:</text>
		<text x="268" y="219" text-anchor="end">3.486 %     </text>
	</g>
</svg>
